<mxfile host="app.diagrams.net" agent="Mozilla/5.0 (Windows NT 10.0; Win64; x64) AppleWebKit/537.36 (KHTML, like Gecko) Chrome/135.0.0.0 Safari/537.36" version="26.2.12">
  <diagram name="Page-1" id="ZLEN9qb5oNUtfHCkZp4R">
    <mxGraphModel dx="1680" dy="931" grid="1" gridSize="10" guides="1" tooltips="1" connect="1" arrows="1" fold="1" page="1" pageScale="1" pageWidth="850" pageHeight="1100" math="0" shadow="0">
      <root>
        <mxCell id="0" />
        <mxCell id="1" parent="0" />
        <mxCell id="bf281JipG-QSbm_vybdA-1" value="" style="shape=image;verticalLabelPosition=bottom;labelBackgroundColor=default;verticalAlign=top;aspect=fixed;imageAspect=0;image=data:image/png,iVBORw0KGgoAAAANSUhEUgAABZoAAAOBCAYAAAB4URWQAAAAAXNSR0IArs4c6QAAAARnQU1BAACxjwv8YQUAAAAJcEhZcwAADsEAAA7BAbiRa+0AAAGHaVRYdFhNTDpjb20uYWRvYmUueG1wAAAAAAA8P3hwYWNrZXQgYmVnaW49J++7vycgaWQ9J1c1TTBNcENlaGlIenJlU3pOVGN6a2M5ZCc/Pg0KPHg6eG1wbWV0YSB4bWxuczp4PSJhZG9iZTpuczptZXRhLyI+PHJkZjpSREYgeG1sbnM6cmRmPSJodHRwOi8vd3d3LnczLm9yZy8xOTk5LzAyLzIyLXJkZi1zeW50YXgtbnMjIj48cmRmOkRlc2NyaXB0aW9uIHJkZjphYm91dD0idXVpZDpmYWY1YmRkNS1iYTNkLTExZGEtYWQzMS1kMzNkNzUxODJmMWIiIHhtbG5zOnRpZmY9Imh0dHA6Ly9ucy5hZG9iZS5jb20vdGlmZi8xLjAvIj48dGlmZjpPcmllbnRhdGlvbj4xPC90aWZmOk9yaWVudGF0aW9uPjwvcmRmOkRlc2NyaXB0aW9uPjwvcmRmOlJERj48L3g6eG1wbWV0YT4NCjw/eHBhY2tldCBlbmQ9J3cnPz4slJgLAAD+EklEQVR4Xuzde3xT9f0/8FdvaZM26b2lTa/0RlsohSpTBNSpIDCviBfAoVN+0+m8zQljKuKFoeJgKjonzjG5KKCC3yFXnVJExSGl0Du9N72mt6RJmkvT3x80h+a0hd6AtHk9H488WD7vT05OIgP6yjvv46LT6ztBRERERERERERERDRIruIFIiIiIiIiIiIiIqKBYNBMREREREREREREREPCoJmIiIiIiIiIiIiIhoRBMxERERERERERERENCYNmIiIiIiIiIiIiIhoSBs1ERERERERERERENCQMmomIiIiIiIiIiIhoSBg0ExEREREREREREdGQMGgmIiIiIiIiIiIioiFh0ExEREREREREREREQ8KgmYiIiIiIiIiIiIiGhEEzEREREREREREREQ0Jg2YiIiIiIiIiIiIiGhIGzUREREREREREREQ0JAyaiYiIiIiIiIiIiGhIGDQTERERERERERER0ZAwaCYiIiIiIiIiIiKiIWHQTERERERERERERERDwqCZiIiIiIiIiIiIiIaEQTMRERERERERERERDQmDZiIiIiIiIiIiIiIaEgbNRERERERERERERDQkDJqJiIiIiIiIiIiIaEgYNBMRERERERERERHRkDBoJiIiIiIiIiIiIqIhYdBMREREREREREREREPCoJmIiIiIiIiIiIiIhoRBMxERERERERERERENCYNmIiIiIiIiIiIiIhoSBs1ERERERERERERENCQMmomIiIiIiIiIiIhoSBg0ExEREREREREREdGQMGgmIiIiIiIiIiIioiFh0ExEREREREREREREQ8KgmYiIiIiIiIiIiIiGxEWn13eKF4mIiIiIiIhocJ7/NFu8ROQU3FxdsOK2CeJlInISDJqJiIiIiIiIhtHST7Lw9oFC8TLRqPfM3GQGzUROjKMziIiIiIiIiIiIiGhIGDQTERERERERERER0ZAwaCYiIiIiIiIiIiKiIWHQTERERERERERERERDwqCZiIiIiIiIiIiIiIaEQTMRERERERERERERDQmDZiIiIiIiIiIiIiIaEgbNRERERERERERERDQkDJqJiIiIiIiIiIiIaEgYNBMRERERERERERHRkDBoJiIiIiIiIiIiIqIhYdBMREREREREREREREPCoJmIiIiIiIiIiIiIhoRBMxEREREREZED2LBkKjo3L+71dnD5TPH2YXVw+UxUvT0fv0wNE5cuuBfvSIfmgwV48Y50cYmIiEYQF51e3yleJCIiIiIiIqLBWfpJFt4+UChePq8NS6bixolK/Prdw/g6p0ZcJnJ4z8xNxorbJoiXichJMGgmIiIiIiIiGkYXKmi+d1oc1t//C2z7oQwPvn8E6OpEHhfui1+/exjXJIfi4evHoaKxDZNjAgEAqma93fEOLp+J67q6lk0WK179v5N4fkeW3XG+zqkRnkvu5QEA+CqnBtev2i8cIzbYB54eblD6y3rUf5kahn8/PE2oda/fOy0Of7l7MupaDZgcEwhVsx5f59Ti1ssisW5PLp7fkXXO5ybHxqCZyLlxdAYRERERERHRKKGQesDLww0uCzfi1+8ehkLqgeW3nAn+NiyZiilxQfj1u4fhsnAjPjpcjCdmp+DeaXF2x7AFvUeL1cJxpsQF2Y3vGBsix94TKrgs3IgPvinC9KRQvHhHuhAyt+pNcFm4ES4LN+KrnBqhDtE5Rjy6HWUN2gE9NxEROSYGzUREREREREQOQukvw1fLZ9rNZ8557Rbxtj4ZLR349Gg5AOCjw8WobNQhzE+KX6aG4caJShwtVuOjw8UAgAffPwLFA1uE+zaLZ8RBYzBj1a6TwnG2/VCGKXFBQiitatZjy5FSAMC3eXUwWjoQ7i/D1zk1iHh0O1Kf2SUc70hhPYyWDuE+AHxf1GB336Y/z01ERI6JQTMRERERERGRg1A163Hdqv1CN7DLwo12oe1gKf1lUEg9UNbQJi71EOYnRaveZDe+o7pZD6PZarfvfHJeuwWdmxfjudsmwtPdTVzu1XA9NxERXXwMmomIiIiIiIho2NgCZl+ZBNet2o+XPj/Ro6OZiIhGHwbNRERERERERKOcqlkPjcGMmGAfcamHmhYDfGUS/LLrooEAEO4vg6fH+SOEe6fFIUQhxUufn0DEo9t7vajhuQzluYmI6NLin9REREREREREI4AtLL4yIRjoCnWnxAWJt/Xq65wa7D2hspt1/OId6dB8sEC4SJ/NxkPFdhcRvHdaHO68IsZuvvO5eHq4ItxfBnQ99onZKf0enTHU5yYiokuHQTMRERERERHRCPB1Tg3++U0R4kMV6Ny8GOvv/wW+ya0Vb+vTg+8fwdFiNf798DRhdvK2H8rw/I4su30fHS7GIx/+iClxQejcvBj/fngajharcf2q/Xb7emO7eN8D1ySgc/NibFgyFdt+KIPR0oGpiSHi7T0M5bmJiOjSctHp9Z3iRSIiIiIiIiIanKWfZOHtA4XiZaJR75m5yVhx25ludCJyPuxoJiIiIiIiIiIiIqIhYdBMREREREREREREREPCoJmIiIiIiIiIiIiIhoRBMxERERERERERERENCYNmIiIiIiIiIiIiIhoSBs1ERERERERERERENCQMmomIiIiIiIiIiIhoSBg0ExEREREREREREdGQMGgmIiIiIiIiIiIioiFh0ExEREREREREREREQ8KgmYiIiIiIiIiIiIiGhEEzEREREREREREREQ0Jg2YiIiIiIiIiIiIiGhIGzUREREREREREREQ0JC46vb5TvEhEREREREREg3O8UiNeInIKnZ2dmBzlK14mIifBoJmIiIiIiIhoGEk8PODu7i5eJhr1zBYLzGazeJmInARHZxARERERERERERHRkDBoJiIiIiIiIiIiIqIhYdBMREREREREREREREPCoJmIiIiIiIiIiIiIhoRBMxERERERERERERENCYNmIiIiIiIiIiIiIhoSBs1ERERERERERERENCQMmomIiIiIiIiIiIhoSBg0ExEREREREREREdGQMGgmIiIiIiIiGqCOjg6oVCrxMpFDs1g60G40iZeJiIYFg2YiIiIiIiKiQVA3NIiXhkzVrEfM4zvgsnAjXBZuhN+SrTharBZvOy9tuxnTX9yD6S/ugbbdjM9+KofLwo347Kdy8dZh8/LObOG8h3r+/XG0WA2/JVvx8s5scemCWrD+EGIe3wFVs15c6jfbuYvfL9t/n95em+2/oe2/6UDUNTQiv6gMp/JPI6+wBEUlFWhp1Yq3ERENCYNmIiIiIiIiIgdwtFiN1Gd2YWpiCDo3L0bn5sV4em4qfvH87iEHxLdfHo3OzYtx++XR4tKw8pVJ8OOLc4Xzb3n/HkyJCxJvGxZT4oLQ8v49ePbWNHHpgtryyAyU/e0OKP1l4tKAvTR/Ejo3L4bmgwWYlhSCpzb91GuA/dlP5Zi37htEB3nj499fDbmXh3hLn1o0bSivrEFDYzO0bXq06QyorW9EhaoWjU0t4u1ERIPGoJmIiIiIiIjIAazbmws/mQdeX3CZsPbsrWl2AbG447l7x2v32lUv7EGr/mzXq7ijuXv38YL1h3p0O3evD7V7F308v63b2da9+9A/vxfOf8H6Q3aPt51j947e3rp++zpv2/M/s/WY0Enc1+O6d2HbHmd7/gXrD/XoaBZ3Jw/mQwG5lweenJ2CcrUOP56275Q/WqzGb/5xBNFB3vjuhTkDDrhr69Qwmnp2QLdq2lBaUY2aOjUaGpvtbvXqJobQRDRgDJqJiIiIiIiILjFVsx5HCusxNTGkzyBR1azHVS98KXQ8f/rENXhu+3Eh2Pzjlv+hRW/Gjy/OxYYlU1HRqBMfAugKLtfszsE9U2PRuXmxuIyXd2Zjze4c/PjiXGg+WIDIQG/c/da3Ax7XMFA5VS04+eoteGn+JHyZpRLC3pd3ZuNIYT2q3p6PH1+ci5OVLfjb3jzxw/t13lVNOrS8fw/umRqLDf8thKpZj6PFamz7oQxVb89H1dvz4SfzwB82/9Tj9XZuXowtj8ywWztarMbM1Qfw9NxUdG5ejJfmT8Jv/nFk2MaFVDXpcOeb3wAAtj12TZ+/N/rS1NwKjbZNuD8mJBBjQgLh4e4OADC0G3G6tBL5RWV2t4LT5Sgp5wxyIhoYBs1ERERERERE3XR2dgo3q9Xa5w1Aj7VqlQpNTU3iQw6LH083oFytwx1TznQ33zAhHNOSQrB2Ty4KalpxpLAec9KVmBIXhGSlLyZE+okPAQDYf7IarXqTcBzbr+ia7bwvW4UJkX5IVvoKnbaHC+px4GR1t6P0rlVvwi+e3y1094o7k88lMtAbci8PpCh90ao3oapJJ5yPLYDva1xGf887RXnmPUlR+qFFb4aqSY8pcUHIXn0zPvz2NCIe3Y5ydc+Avvt71N3+rmPPnBAOALj/6nj4yTywbm+uaOe5advNWLsnF9FB3vhFfLCw/t5XhShX69CqNw34mDa236vu7m4I8FMgbEwI3NzdxNt6cHM7/x4iou4YNBMREREREdGI09nZCbPZjPb2drS1taG1tRVNjY1oqK9HbU0NVFVVqKioQFlpKUqKi1FUVITCggLk5+UhNycHp06exMnsbGSfOIETWVnIOn4cx3/+GT8fO4bjx48jq+t2IisL1SoVsk+csLvlnDqFjo6OHuu1tbVCsDfcclWt8JVJEBHgLS4NWF/H0RjMqGzUCaHvQIlnNIs7gM/FFgJ3Zzuf8+nveacofcVLwniMfdkqVL09H9OSQsRb+pSraoGfzAPKgIF1Gts8t/04XBZuhOKBLThZ2dKja9n2ft4zNRZbj5QOeCyHTCqFh8eZ7mWLpQMl5dUoPF2K9nYjAEAi8YDUyxNSL094ekqEx3l4uMPDo+/3kYioNwyaiYiIiIiIyGFYrVa0t7dDq9WiqbERtbW1qKqsRGlJCQoLC5Gbk4PsEydw/OefkZebi5LiYlSrVFA3NECj1aLdaIS1sxPuHh6QSaVQ+PoiIDAQY0JDoVQqERUdjbFxcUhMSsK45GSkpKZi/IQJSJs4EemTJmFyRgYmT56MSd1uEZGRSJ80ye42IS0Nbm5uPdaVSiVcXQf+o7bSX4apiSE4Uljf5zzk7p2+falsPNMFfD59HUch9UBkoHe/j3Oh9fd8+ruvNzuOlgsX2VNIBxaudu+MHgzbxQD7unDi03NTMSUuCE/cmAJfmaTPiwX2xctLAj9fBdy7OpjbjUbo9O0AAImHO0KCAjBpwjhMmjAOnpKzQfOYkECkJMYK94mI+mPgf/sRERERERERDYHRaIRGo4G6oQGqqiqUlpQgPy9P6AouPn0atTU10Gg06OjogMTTE37+/ggPC8PYuDikpKZickYG0iZOREpqKhKTkhAXH4+YmBhERkYiPDwcoaGhCAoORkBAAPz8/CBXKODt4wOZTAYvLy9IJBJ4eHjA3d0dbm5ucHV1hYuLi/hUByx0zBgEBASIl/vliRtT0KI3449b/ies2S5S99lP5fhFfDCig7yx4+iZrtYDJ6txuKAeT85OQVKYL6YmhuBkZQvyVK3IU7XiZGXvF3ObOSEcvjIJdhwtF0Y22Mi9PDArTSkcx1aflhSCG7rGQwxGRIA3fGUS5HYdc192/+b/is/HdsFD8UgO8b6BnHf3sNj2nvaXbWSGbYTGh9+eRovejCduTBHtHJopcUF4em4qytU6fPjtaXH5nCKVYxAc4CeEzQAg95FBofBBeGgQ3Nxc4ebmCqu1Q6h3WK1wc2NkREQDwz81iIiIiIiIaNh1dnbCoNejqakJ1dXVKCkpQV5uLo7//DOKCgtRV1sLvV4Pd3d3+Pn7IzIqCskpKUifNAmp48cjITERMbGxUCqVCAkJgb+/P3zkcnh5ecG960Jmo82UuCDkvHYLjhTWCzOOn9t+HJ8+cQ1uvzwaSn8ZvnthjlCft+4boQYA7z1wJSZE+uEXz+/Gg+8fQVRgz9EY6BZabj1SCsUDWxAp2vfsrWl4em4qfvH8bige2AIA+PKZ6885kuJ8psQFYU66Es9tP47I3++AQnq2e/Z8nr01DXPSlfjF87sR8eh2RAZ6470HrhRvG/R52+Yq/+L53fjNP868b5WNOmgM5++MnhIXhP3LbsCa3TlwWbgRa3bnYP+yG3p0Jg+H+6+OR3SQN9bszhnQxQYlHu6IjY5AXEwE4mMiMDY6AtGR4RgXH2M3LkMZForI8FAow4IREji4D0uIyLm56PT6TvEiERERERERUX9ZLBbo9XoY9HoYDAbhJpVK4eXlBS/br15e8PT0HNRoCUfT0dGBUydPYmJ6urgESVentKM6WqzGzNUH8PTcVDx7axpe3pl9QQNSch5miwVm8/kDeiIanRg0ExERERERUb91dnZCp9NBp9NBr9NBr9fDYrFAJpNBKpNBKpVCJpXCSyodllEUjmokB80AsGD9IWw9Uircf2n+JDx7a5rdHrHPfirHvHXfiJcBAPdMjR3Qhf9GO1uY36o3iUuYlhTSr07rkYhBM5FzY9BMREREREREfbJYLGhra4OurQ1tOh10bW3w9vaGzNv7zK9dM4+dTUdHB9QNDQgdM0ZcGhFBM9GFwKCZyLkxaCYiIiIiIiKB1WqFVqtFm1YLrVaL9vZ2+Pj4wMfHB95dv47mTuXhwKCZnBWDZiLnxqCZiIiIiIjIyRkMBmhaW6HRaqHVaCCXyyGXy+Ejl8PHx0e8nc6DQTM5KwbNRM6NQTMREREREZET0mg0aG1thaa1FQCg8PWFQqGAXC4fFRfru5QYNJOzYtBM5NwYNBMRERERETmJ1pYWtLS0oLW1FV5eXlD4+sLX1xdSqVS8lYaAQTM5KwbNRM6NQTMREREREdEoptFo0NzcjJbmZshkMvj5+cHXzw8SiUS8lYYJg2ZyVgyaiZwbg2YiIiIiIqJRRqfTobm5Gc1NTZBIJPD394efvz/D5YuEQTM5KwbNRM6NQTMREREREdEoYDKZ0NzUhKbmZnRarfD394d/QAC8vLzEW+kCY9BMzopBM5FzY9BMREREREQ0grW0tKCpsREajQYBAQEICAiAj1wu3kYXEYNmclYMmomcG4NmIiIiIiKiEcZkMqFRrUZjYyM8PT3PBMyBgXBxcRFvpUuAQTM5KwbNRM6NQTMREREREdEIodFo0KhWo1WjQVBgIAICAyGTycTb6BJj0EzOikEzkXNj0ExEREREROTg1Go11A0NAIDAoCAEBQWxe9mBMWgmZ8Wgmci5MWgmIiIiIiJyQB0dHWior0dDQwNk3t4IDgqCwtdXvI0cEINmcla1tbXQGwwYM2aMuERETsBVvEBERERERESXjslkgqqqCtknTsBkMiEuPh5xcXEMmYloRGhqbBQvEZGTYNBMRERERETkAIxGIyorKpBz6hQAIHX8eERFR3MGs5NRNzbhlrvvR8b0WciYPgvXzpmHvIIi8bbz0hsMeOiJpXjoiaXQGww49N0PyJg+C4e++0G8dVgN5fwPffcDNm7ZJl6+oIbjfdm4ZZvwesWvO6+gCNfOmWf3umzPaftvM9qYzWbU1NSIl4nICTBoJiIiIiIiuoRMXQFzXm4u3NzcMCEtDcqICEgkEvFWGuXyCoow/94lSE9LxbHMfTiWuQ/3LboLix58dEhBKADMuOoKHMvchxlXXSEuDZuhnH9eQRFWvPK6ePmCG673RSH3waYNbwuv+79fforkpATxNhz67gc8uWwFIpThePm5pZBJpeItI1pgUBBSUlPRptWiorxcXCaiUY5BMxERERER0SVgsVhQVVWFnJwcuLm5YfyECQhXKjnb14l9/OkuKBQK/P63vxHWFi+40y4IFXcMd++U7V77f7//I9radEJN3LnbvQt3xao1Pbp6u9dvuft+qBubhFpf+nP+3Y9r6/pVNzZh2YpV0Gjb8Oa7H2DFqjU99nbv/u3+Ohc9+CgWPfioXd3WRWx7rO112daf/vOLuHbOPDz0xFIc+O+hPt+XgXRj94ctTI9QhuOD9W8gKDBAvGVU8PDwQEJiIqxWK4pPn0ZHR4d4CxGNUgyaiYiIiIiILqLOzk7U1NTg1MmTQGcnA2YCusLTrOwcpKel9hlAqhub8MAjfxA6hteuXok33/1ACEnfeu+f0Gg02LThbfz5j49DVd37+IK8giL8a9Mn+NXsG3Asc5+4jI1btuFfmz7Bpg1vI3P/ToSNCcGzL716zjEP/Tn/vIIiHPj6EPbt3Ip9O7dCoVDgb+9ugEwmxeqVy6GQ++Cxhx/AyuVP49B3P+DNdz/A2tUrsW/nVtTU1uPVteuB87zOvIIi/O7JZbhv0V04lrkPjz38AFa88rpdYNym02H3p5vw93WvwrPbNwf6Or9zve7+qq9XY9mKVQCA1SuX9/kejSYxsbGQSqUoLChA+zC8h0Tk+Bg0ExERERERXSRqtRo5p07BaDRiXHIyIiIj4eHhId5G1Kvc/EJUqapx3dXTAACXTZ6IyzPSsWX756hUVSMrOwczpl2J5KQEREdFICkxXnwIAMDRY8eh0bYJx7H9iq7Zzt8fPYakxHhER0VAJpViwfzb8NOxLPzv5xPdjjJwyUkJ2LThbezedxCzbr0HVapq8RbBV98eRoQyHCnjEhEUGID0tFTU1TcIr9N2fuLXefTYcQDAlIxJAIC5s66HQqHAx5/uEvZcOSWj15EVAzk/MY22DYsefNSuS7y7jz/dhSpVNTTaNrtzGW0a1WrU1NTAarXCarViTFgYAgMDUVBYiNaWFmG9t1tnZ6dwI6KRiUEzERERERHRBabRaFBQUIDm5mbExMYiJiYGXl5e4m1E51RaXgGF3AfBQYHi0oD1dRy93oCa2nqEhgT3GsYOhW18x/dHj2Hfzq24PCNdvAXoCrvr6htQparGrFvvQcb0WfjPngOoqa2HwdAOAH2eX0lZBRQKRa+v7Xz6e369Ec9oXrn86V7rv5p9A/6z58B5Z1aPVFarFTXV1cg+cUK4VVdXw9rRgeLiYrv17BMnUFtTg+wTJ3AiKwtZx48Lt5+PHcPPx47h+M8/n1nLysKJrCxknziBk9nZOHXqFHJzcpCXm4v8vDwUFhSgqKgIxadPo7SkBOVlZaisqICqqgo11dWoq61FQ0MDmhob0dLSAq1WC71Oh/b2dpjNZlitVvFLIaJBYNBMRERERER0gZhMJiHwCA4ORkJCAnx8fMTbiISu3azsnD7nIcdGR0GjbUODulFcEtTVN/Rr1ENfx5HJpAgbE9Lv49j05/xtXcovP7cUMlnPkNhGJpUiNCQYEcpw7Nu5VQhvd338IQL8/YBzvM6xMVHQaDS9vrbz6e/5DcZ9i+5CclIC7p53CxRyH7zx1nt9vk8jmaurKyIiI5E+aZJwCwsLg4eHBxKTkuzW0ydNQrhSifRJkzBp8mS72+SMDEzOyED6pElImzgRaWlpGD9hAlJSUzEuORmJiYkYGxeHmNhYREVHI1ypxJjQUAQFB8PP3x8+cjm8pFK4e3gALi6wdHSg3WCARqtFU2MjamtqUFFRgeLTp5GXlycE3Sezs5Gbm4vCggIUFxejvLwcKpUKdbW1aGxsRGtrK3Q6HUwmE8Npol4waCYiIiIiIroA6uvqkJuTAw+JBKnjxyMgYPTPZKWhuXveLdBoNHjrvX8Ka7aL0x367gekjEtEhDIcX317GADwv59P4KdjWVgw/zZEKsORnpaKgsLTKK+oQnlFFQoKT3c7+llTMiZBIffBV98eht5gwJbtnws1mVSKK6dkCMex1S/PSMdlkyfaHUfsfOffPQS2nXtfrrt6GqpU1cjNLxQu/rdi1Roh0Ladn/g4tpEZthEau/cdhEajwd3zbhH29GUg5zdYyUkJuG/RXahSVWP3voPi8ogXGBSEkJAQ4X5lZSVaWluRmJQ0qA/ZXFxc4OrqCldXV7i5ucHd3R0eHh6QSCTw8vKCVCqFTCaDj48P5AoFfH194e/vj8DAQAQHByM0NBRhYWFQKpWIjIpCTEwMxsbFISExEeOSk5E6fjzS0tIwafJkpE2ciHHJyRgbG4twpRKBgYHw8faGu5sbLBYL2rRaqBsaUFlRgcKCApzo6rLOzclBUWEhykpLoVKpUF9fj5aWFuh0OpjNZvFLIhrVXHR6PYffEBERERERDRNdWxtUKhXc3NwQrlRC2svX+2l0k3h4DPrijrYL/nWfD7x29UrMuOqKXuvda3qDAU/96QX8dCwLyUkJAAAfH2/89S8v4H8/n8CTy1YI+zdu2YY33/0AAIRxDt2P1b1+eUY6/vqXF3odVSEmPj90O8fuNYXcB3K5HC4uLvhg/RuQyaTCudueb/vn/9frOXQ/jvh1yqRS4YKAGm0bFHIfvLN2NZKTEuwuFLh4wZ1A17gM2/uSMi6xz/M718X7bBdPtD1Pd709p+38NRpNr48ZycwWizCKoqy0FC4uLoiJjYWLi4t466jQYbEIr9lsMsFkNp/93133OywWSCQSSDw94Sn+1dNz0H9WEDkiBs1ERERERETDpFqlQkNDA5QREQgKChKXyUkMJWi+GMTh57mCUke0YtUaZGXn4IP1bwAAHnjkD0hPS+0xF5kuPrPFgra2NpSWlMBHLkdERIR4i9OxWq1nQmfbzWiE0WiEset/A4BnV+js6eUFLy8veHX9b1dXDiKgkYVBMxERERER0RC1abWoqqqCl5cXlBER8PDwEG8hJ+LoQTO6wtr/7Dkg3H/s4QeEjtu+2Lp/e/Or2TdctKC3e8cyAEQow8/bdTwUjvK6R4KamhqUlZUhLCwMIaGh4jL1wmKxnAme29vRbjSivb39zP9ubz8zIkQqhdTL68yvXTciR8WgmYiIiIiIaAhqqqvR0NCAiIgIBAQGisvkhEZC0Ex0IVRXV0OlUiF1/HhxiQahvStwNhgMaDcYYDAYYDQazwTOMhlktl9lMnY/k0Ng0ExERERERDQI7QYDKisr4ebmhsioKHYxk4BBMzmr2tpatBuNdhcEpOFltVphMBhg0Ouht/2q18PLywsyb294y2SQeXtDJpOJH0p0wTFoJiIiIiIiGqBGtRoVFRVQRkQwUKEeGDSTs7JdGI8uPr1eD71OB13Xr0ajEd7e3vD28YFP169ubm7ihxENKwbNREREREREA1BZUYE2nQ5RUVHw9vYWl4kYNJPTYtDsODo6OqDT6aBra0NbWxt0Oh28pFL4+PgIN/45RcONQTMREREREVE/tBsMKC8vh5dUiujoaHGZSMCgmZwVg2bH1tYVOrdptWhra4OXlxfkcjl85HLI5XLOeaYhY9BMRERERER0Hs3NzSgvK0O4UslRGXReDJrJWTFoHllsobO262YLnBVyObx9fMTbic6LQTMREREREdE51NbWoqGhATExMZDL5eIyUQ8MmslZMWgeuTo7O88EzhoNNFotzCYTFAoF5AoFFAoFL3hL/cKgmYiIiIiIqA8V5eUwGo2IjomBRCIRl4l6xaCZnBWD5tHDZDKdCZ27bl5SKXwVCih8fSGTycTbiQAGzURERERERD11WCwoLS2Fh4cHomNixGWic2LQTM6KQfPopdVo0KrRQNPais7OTvj6+sLXz4/f9CE7DJqJiIiIiIi6aW9vR2lJCXz9/BAeHi4uE50Xg2ZyVgyanYPBYEBrSwtaW1thMpng6+cHPz8/KBQK8VZyMgyaiYiIiIiIuuja2lBSUoLQMWN40T8aNAbN5KwYNDsfo9GIlpYWtLS0wNjeDn9/f/j5+7PT2UkxaCYiIiIiIgKg0WhQUlyMqOhoBAQEiMtE/cagmZwVg2bnZjQa0dLcjOaWFljMZvj7+8M/IIAznZ0Ig2YiIiIiInJ6LS0tKCkuRlxcHHz9/MRlogFh0EzOikEz2RgMBjQ3N6O5qQlubm4ICAiAf0AAPDw8xFtpFGHQTERERERETq25qQnl5eWIi4uDnPMlaRgwaCZnxaCZeqPVaNDU1ISmpib4+fkhICCAH+qOUq7iBSIiIiIiImfR1NSEiooKxCckMGSmS27jlm24ds485BUUCWvqxiYsevBRuzUiopFErlAgOiYGE9PTIVcoUFdXh5xTp1BTUwOTySTeTiMYg2YiIiIiInJKTU1NqKyoQHx8PHx8fMRloktCo23Dx5/uEi8TEY14rq6uCAoKQmJSEmJjY2Exm5Gbk4PS0lJoNRrxdhqBGDQTEREREZHTaW5uRmVFBeLi4+HNkJkcyOUZ6cjKzsGh734QlwAAeQVFuHbOPGRMn4Vb7r4f6sYmAMCh737AQ08sxdN/flGoHfruB2Hvxi3bhGMc+u4HZEyfhYzps/DQE0uhNxi6PQMR0YUn8/ZGZFQU0iZOhI+3N6pUKuTn50OtVou30gjCoJmIiIiIiJxKS0sLysvKEBcXx05mcjihIcH4w+9/iy3bP+8RAKsbm7BsxSrct+guHMvch/S0VDz70qvCvp+OZeHmOTORuX8nwsaE4I233sP2j97H2tUr8dkXe6BubEJeQRHWvPl3bNrwNjL37wQAvLp2vd3zEBFdLK6urggOCUFycjLCwsLQ2tqKk9nZqK2pgcViEW8nB8egmYiIiIiInIZWo0FJcTHGxsXBRy4Xl4kcwmWTJwIAtn/+f3brDepGyH28MXfW9QCAu+fdguqaOpRXVAEAIpThSBmXCJlUitCQYNx+82wEBQYgOCgQch9vAMDRY8cRHhaK6KgIyKRSLJh/G+rqG3qE2kREF5uvry/i4uIQn5AAk8mEk9nZqKqshNFoFG8lB8WgmYiIiIiInIJOp0NJSQnGxsVBwQv/kQOTSaV4/OEHceDrQ8JoDHQFzdo2nXA/OCgQCvnZrvywMSGQyaTC/b78dCwL02feiozps/DkshWoqa2HXs+gmYgcg1QqRVR0NMaPHw8XV1fk5eaiorwc7e3t4q3kYBg0ExERERHRqGc0GlFaUoKIyEj4+fmJy0QOJzkpAXFjY7DunfeFte6dyegKnjXaNuF+f/1q9g04lrlPuO36+EMEBQaItxERXVIeEgmUSiUmpKXBQyJBQX4+yhk4OzQGzURERERENKp1dHSgtKQEISEhCAwMFJeJHNbvf/sb1NTWQ1VdA3QFzdo2HXbvOwgA+PjTXcIYjP6akjEJx0+cQl5BEQBgxao1vCAgETk0Nzc3hIWFYUJaGiQSCfLz81FZUQETR2o4HAbNREREREQ0qpWWlkKuUCAkNFRcInJoQYEB+MPvf2t3f/XK5fjXpk+QMX0WsrJz8PJzSyGTnn9chk1yUgKefuwhLHrw0UEfg4joUnB1dT0TOE+YADc3N+Tk5EClUqGjo0O8lS4RF51e3yleJCIicgbvfX1avER0yf32l/HiJSIagoryclg7OxETEyMuEV0wEg8PuLu7i5eJRj2zxQKz2SxeJrogzGYzamtq0NTUhDFhYQjlB8qXHINmIiJyWteu+gpHSxrFy0SXjEzihoZ35omXiWiQamtqoNVqkZCYKC4RXVAMmslZMWimS8Gg16OmpgZGoxFjwsLg7+8v3kIXCUdnEBERERHRqNPc1AS1Ws1OZiIiolFOKpNhbFwcwpVK1NXWoqS4GAbOnb8kGDQTEREREdGootfrUVZWhpiYGHhIJOIyERERjUK+vr4Yl5wMbx8f5Ofloaa6WryFLjAGzURERERENGp0Wq0oLytDZFQUfORycZmIiIhGudDQUKSOHw+j0Yi83Fy0traKt9AFwqCZiIiIiIhGjfLycsjlcgQFBYlLRERE5CQkEgliYmMRFhaGqspKVFZUwGq1irfRMGPQTEREREREo0JdXR3MZjMiIiPFJSIiInJCfv7+SElNBVxcznQ3t7SIt9AwYtBMREREREQjXptWi9qaGkRFRYlLRERE5MRcXFwQGRmJiMhIVFVVoaqyUryFhgmDZiIiIiIiGtE6rVZUVFQgMioKnl5e4jIRERERfH19kZySAqvVirzcXLS1tYm30BAxaCYiIiIiohGtorIScoUCAQEB4hIRERGRwNXVFVHR0QgNDUXx6dOora0Vb6EhYNBMREREREQjVlNjI/R6PSI5l5mIiIj6KSAwEOOSk9Gm1aKkuBhms1m8hQaBQTMREREREY1IZpMJlZWVDJmJiIhowDw9PRGfkACpVIqC/HxoWlvFW2iAGDQTEREREdGIVFVVhZCQEPj4+IhLRERERP0SFh6OiMhIlJWVoY6jNIaEQTMREREREY04jWo1TCYTwsLDxSUiIiKiAfHz88O45GRoNBqUlZais7NTvIX6gUEzERERERGNKBazGSqVCsqICHGJiIiIaFAkEgkSEhPh5uaGgoICtLe3i7fQeTBoJiIiIiKiEUWlUiEwKIgjM4iIiGjYRUZFISAgAAX5+Wjl3OYBYdBMREQ0SAeXz0Tn5sXCrert+fhlaphQz3ntFuS8douwV1wfjF+mhqHq7fnYsGSquERE5BRaW1uh0+mgVCrFJaIRb8WqNciYPguHvvvBbv3Qdz8gY/osrFi1xm59OG3csg0PPbEUeoNBXCIicjohISGIiY1FWWkpGhoaxGXqA4NmIiKiAbKFvePCfXHdqv1wWbgRLgs3olVvws6nrsW90+LED8H1q/Yj4tHt+DqnRlwiIqIBqFapEM65zDSKjUuMx1ffHrZb++rbwxiXGG+3RkREF5avry8Sk5KgbmhAdXW1uEy9YNBMREQ0QMtvmQAA+PW7h+2C499vPAqNwYzFM3oGzeKO5g1Lptp1Q3fvUM557RYce+VX0HywwK7+y9Qw/PvhaVD6y/DANQk4uHwm0C347quzmohotKitrYWXlxf8/P3FJaJRI31CKurqG6BubAIAqBubUFffgPQJqXb7bN3PGdNnYeOWbQCAvIIi3HzXfbj5rvtwy933Q93YJHRD227du6VttWvnzMPJnHxhXW8w4KEnlgqPYaczETkrqVSKhMRE6HQ6VJSXi8skwqCZiIhoAH6ZGoZx4b7Ir27t0Z38dU4NIh7djutX7bdbF9uwZCruvCIGv373MFwWbsRLn5/AnVfE4MU70oU94yP8sW5PLlwWbsRXOTW484oYKP1l+PW7h6Fq1uODb4pw/ar9QvicX91q11n91uIpds9JRDTSmUwm1FRXI4zdzDTKeXvLAAC5+YXCr6EhwQgJCRL2bNyyDVnZOdi3cys2bXgb/9r0iRAga7VaPP3YQ9j18YdoUDdizZt/x6YNb+NY5j489vAD2LL9c+gNBuQVFGHFK69j7eqV2P3pJrTpdMLxX127HqEhwTiWuQ/7dm5FTW09/vfzCaFORORM3N3dkZCQgA6rFSUlJeIydcOgmYiIaACU/jIopB4oa2gTl/plUkwAbpyoxLYfyvDR4WIAwPM7snC0WI15U6KFfafrNHh+RxYA4EhhPQAgYYxcqNssmBoLAFi166SwtvqLUwhRSO2CayKika62pgahoaHw8vISl4hGFW9vGa6ckiGMz/jq28O47uppdntKyipw+82zERQYgOSkBMyYdqWwXy6XIzgoEACQnJSALz75F5KTEgAAsdFRwjEa1I1ISozHZZMnQiaVYsH824TayuVPY+XypwEAMpkUYWNChBoRkbOKjY2Fu7s7ioqKYLVaxWVi0ExERHRxBfl4QSH1wAPXJNiNzrhukKMuYoJ9oPSX4atuFyb898PToJB6iLcSEY1YOp0Ora2tGBM2uD8riUaaKRmToNPpUV5ZheKSMiE4RtdYi7p6+wtTjY05GyAr5D52+7uP2Hhy2QphvbS8QvjfYnkFRbh2zjxkTJ+F6TNvxU/Hznz4TUTk7KKioiCTSnG6qAgWi0VcdnoMmomIiAZA1ayHxmBGTLCPuDQgH3xTJIy6sN1Sn9kl3tYvqma93UUJXRZuhOfij4SOaCKika62pgZjwsLg6sofX8g5REdFAAB27z0IHx9v4T4AyKRShIYEd9t9psO5N4e++0EYsXEscx/Wrl4p1Lp3N3dnMLTjb+9uwH2L7sKxzH3I3L8Tl2fwW1JERDbKiAj4yOU4ffo0LGazuOzU+C81IiKiAfg6pwb51a0YF+7b6wX3cl67BTmv3SJeFqjb2oclqLYpa2iDQuoBpf+ZeY5ERKONprUVJpMJwcH2wRrRaCaTSuHtLcMH/96KK6dkQCaV2tXHxkThsy/2QN3YhLyCIhw6/H2P8RpieoMBW7Z/LtxPGZcozF4W17r7388n2NFMRBeNxWLB1199hb+sWoV9+/bBZDKJt1w0RqMRmzdtwqurV+PHH3+0q4WHh8PX1/dM2MzOZgGDZiIiogGyzUP+98PT7MLmnNduQXyoAp8e7ftqxMfLmrD3hArTk0KFGcq/TA1D1dvzcXD5TPH289pypBQagxnLbh4vrG1YMhWaDxbg3mlxdnuJiEai2ro6hI4ZI14mGvWuu3oaFHIfTMmYJC5h8YI7kZ6Wilm33oNFDz6K+xbdhRlXXSHehssmT0TYmBDMuvUezJ23CNdfMwNtbTro9QYEBQbgD7//LZ5ctgLTZ96KtNRk+Hh7Qyr1woL5t+HNdz9AxvRZ+Orbw/jV7BvOOWqDiGi4lJaU4JVXXsHrr7+O4z//DBcXF7u62WxGYUEBMjMz8cMPP6CtrX/XzmlubsaRI0eQeegQfvzxR7S0tNjVLRYLioqKkJmZieLiYnR0dMBqteLo0aN45ZVX8Pd334VGo7F7TFhYGHx9fVF8+jQ6Ojrsas7KRafXd4oXiYiInMG1q77C0ZJG8XK/5bx2C1KUfsJ9VbMev373ML7OqRHqAJD6zC4cXD4T48J9hfrB5TPt5jJ/lVOD61ft7/E4AHjxjnQ8MTsF6/bk4vkdWcJjc1UtSH1mF+6dFof19/8Ccq8zc5m17WY88uGPwsUGaeSQSdzQ8M488TKR02ppaUFtbS3GjRsnLhE5NImHB9zd3cXLRKOe2WKBmaMEaAi2ffIJlixZgqioKPzj/fdx5ZVXCjWTyYRdu3bhr2+8gVOnTsHHxwf/95//4LLLLrM7hpjVasWOHTvw8EMPob29HXKFAn946ik88eST8PA48zNUa2srnn76aXy8dSsW3Xsv/vKXv8DX1xefffYZ/t+SJQgODsb69etx3fXXiw+PapUKbTodEhISegTjzoZBMxEROa2hBs1Ew41BM5G9woICBIeEwN/fX1wicmgMmslZMWimoejo6MDDDz+MzZs24dpf/hJbt2yBXKEAABTk5+P999/Hrl27UF1dDQCQSCTYs3cvrrii5zc6urNarfjnP/+Jxx97TFibMGEC3t+wARMmTAC6Op6fePxx7NixA7fddhvWrluH4OBg5ObmYsmDD+LkyZN48qmnsHTpUshkPccWVlVWwmg0Ii4+XlxyKhydQUREREREDqe1tRVWq7VHyGyxWPDfr7/GX1atwt69ey/p7EYA2LFjB1555RUc+vZbcYmIiIgGoLa2FjmnTsHFxQXp6elCyGwLiv/+97/D29sb8UMIc729veHr64v8/Hzs2rULBoNBvMVOdHQ0UsePR0dHB74/cgSNjb03KkVERsLd3R1lpaXiklNh0ExERERERA6nvr4eISEh4mWUlpbi5ZdfxmuvvYafjx3r8RVVs9mMosJCZGZm4siRI9CK5in2pbW1VZjdeKSXHyQ7OjpQXFyMzMxMFBYUCBf+yc7OxqpXXsG6devQ3Nxs9xgiIiLqv9zcXNTX1wMAkkVjs0JDQ/Hwww9j3bp1mDx5sl1tIGJjY/HLX/4SAPDZZ5+hoKBAvMWOt7c3kseNg0wmQ2FhIWpqzoxJ7E10TAw6rFZUVVWJS06DQTMRERERETmUNq0WZpMJAYGB4hKOHz+O//3vfwgPD8c1114rzFZEV8j8xRdf4L777sOc2bNx80034eSpU3aP70tmZiZuvukm3Hjjjbj5ppvw1ltv2X39W6/T4a0338Sc2bOxcuVKIVSeMWMGpFIpjh8/jszMzG5HJCIiooEoLCxEc3MzXFxcMKbbhYBdXV3x24cewqq//AWTJk+Ge7e/+wfKx8cHt8+bB6VSiZLiYuzevVu8pYfYsWPh7e0NvV5/3o7l2NhYtLW1ob6uTlxyCgyaiYiIiIjIoTQ0NCA4OFi8jI6ODnz11VewWCyIjonBhPHjhVphQQH+vHw5/rRsGbKysmC1WmEwGNDR1Xl8PprWVuHrswaDAbt27cLJkyeFeicAo8kEq9UKjVaL9vZ2AMDYsWORlpYGtVqNrw4e7HcHNREREZ3V3t6O8rIyGAwGBAcH9/iw2dvb2+7D5cEyGAyIjY3F9ddfD7PZjD1ffonc3FzxNjthYWGQyWTo6OgQ5kP3xdXVFbGxsairq0OLE37TiUEzERERERE5jPb2dmi1WgT1EjTX1dXhVFf42312IwD8a+NGrF+/HlKpFAkJCd0eNTBSqRT+/v4oKS7G9m3boNPpxFvshIWFYfLkybBarThy5AhUKpV4CxEREZ2HyWSCRqsFACgUCkgkEvGWYWFob0dHRwfuuOMOREVF4dSpU/hi1y4YjUbxVoG3tzfc3d3R0dGBBrVaXO7B09MTMTExKOsKzp2Ji06v7xQvkuM6UdEiXiJyGBOj/MRLRA7t2lVf4WhJ7xdzILoUZBI3NLwzT7xM5FSqqqrg6uKCcKVSXMLBgwfxu4cfhkqlwrvvvotfL14s1P62bh3Ky8tx0003YdPmzfh461YAwN69ezF9xoxuR+ndls2bsWTJEiQkJmLy5Mn4/LPPEBoain9++CGmTp0KjUaDpUuX4t8bN+KX112Hd955B5GRkQCADz/8EMuWLYPJaMQn27Zh5syZ4sOTk5F4eMDd3V28TDTqmS0Wu7FDRP2l0WjwzDPP4KN//xsJCQnYvGULUlNTxdvQ2tqKp59+Gls2b4ZEIsGevXtxxRVXiLfZsV1M8PHHHkNiUhLef/99jBs3Dq+++irefecdpKSkYPWrr+K9v/8dO3bswG233Ya169YJ3646deoUFtxzDyoqKvDIo4/ilVdeET9FrxoaGtCoViNp3Lge15QYrRg0jzA7j1Vh4btHxMtEl9z0pGDs/eO14mUih8agmRwNg2Zydp2dncg+cQLjkpPh6ekpLuOdd97B8889B4PBgJ27duGGG24QajqdDhKJBAaDQQiEMYigeeLEiXju+efx5z//GQX5+Xjsscfwl9Wrzxk0f/Pf/+Khhx5CZWUl3vjrX/HQQw+JD09OhkEzOSsGzTRYFztovuyyy3Dq1CksXrwYpSUleOaZZ5CXlzesQTMAVFZWoqOjAzExMeLSqMTRGURERERE5BAa1WrIFYpeQ+b29naUlZaend0YEGBXH67ZjUaTCUqlErNmzQIAHDhwAFlZWeJtdsLCwuDj4wMA553dSERERD25urjAzfVMTGk2m2G1WsVb+sVqtaKsrAyHDx9Gfl4eTCaTeIsgPj4ec+bMgdVqxd69e1Hf0CDeAgCwWCzo7OyEi4vLgEd6REZGwmQ0or6+XlwalRg0ExERERGRQ2hsbESQ6OI/NiaTCdq2NqBrdmNvYfRwMLa3Q6fT4fbbb0dsbCyKioqwY8eOc85YlHl7Cz94qvsxu5GIiIjseUml8O/6ELmhoeG810joi0ajweuvvYa5c+bgyaeeQm1trXiLwMvLC7fffjuSkpJw8uRJ/HzsmHgLAKC5qQlGoxFubm4ICQkRl88rKjoa1SoVdF3/jhnNGDQTEREREdEl19bWho6ODih8fcWlSyI1NRULFy6Ep6cndu/ejfy8PPEWIiIiGibu7u4YO3YsfORy6PV6u4C4s7MTn3z8MW6cNQt3zJuHrw4eBLo6n5968knMnj0bf//734GuoLm8ogIWiwVajea8o1xSUlJw1113wd3dHW1dQbCbm5vdTOXKykrodDq4ubsjKiqq26P7x8vLC5FRUaisrBSXRh0GzUREREREdMk1NTUhoI9u5ktBJpPh7nvuQWJiIgoLCnDwq6/EW4iIiGgYjRs3TvhmkziULS8vR2ZmJo4cOYK6ujqgK4A+ceIEDmdmovj0aaBrzIXJaAQApKSmCqO2bLPz5T4+UMjlwnE9PT1x191346qrrjqzTyJBdEwMpFIpAKCjowOni4uh0+ng7+eH6Oho4bEDERgYCKlMhqpRHjYzaCYiIiIiokuqs7MTTY2NCDxH0DycsxvLy8tx+PBh5OTkwNj1w2hvoqKicNNNN8Hd3R0H9u9HbU2NeAvQ9UOt7Xw8Bzi7kYiIiM5ISUmBUqkUAmTb360uLi64Z8EC7N27t9fbl3v24OHf/Q6dnZ3IyclBXl4eksaNw4J77oGvry9cXV1x4+zZ2P3ll1j/zjuIFl2YLywsDK+vWYO9e/fiP7t347e//a0QNDc0NCAvNxdmsxmTJk0a1OgMm8jISLS0tKC1tVVcGjUYNBMRERER0SXV1NgIhUJxzov5iWc32r7eOlBtbW1Yt3Yt5s6Zg0cfeQRVVVXiLQI3NzfcdPPNmDBhAgoKCnDk++/FWwAALS0taG9vBwDhCvVEREQ0MH5+frh8yhQAQEF+vtC5jK6QdvqMGb3fpk/H2LFjYbFYsGfPHmg0GixcsABXTZsG164PqUNCQjBt2jRMmDChx3UeXF1dERcXh+kzZuCqq66CUqkUHldcXIysrCxIJBJcOXVqj4sRD4SrqysiIiOhOse/PUY6F51e3yleJMe181gVFr57RLxMdMlNTwrG3j9eK14mcmhfZPXemUZ0Kd2cHiZeIhr1ioqKEBQUBH9/f3HJzocffohly5ahTavFR5s24fbbbxdq27dvxwcbNqCjowPFxcXCD6dpaWnw9fXF3F/9Cr///e+hUqnwyO9+hwMHDmBccjI2bdqE5ORkbNm8GUuWLEFsbCze37ABV155JdB1EcIPP/wQK194QehAuuGGG7D+nXegVCoBALt27cITjz+O+vp6vPfee1h0773CeZFzsn1Fm8jZmC2W887EJTqXgwcP4v777oObmxvWvPEGbr/9diH0PZ/6+nq89OKLkEqleOzxxxERESHeMiBmsxnvrF+PZ599FuPHj8d7//gH0tLSxNsGrLy8HO5ublAO8fwcEYPmEYZBMzkqBs00Enl5evb7Hy1EF4veYBAvEY1qRqMRBfn5SJs4UVzq4fvvv8eSBx9EaWkpVq1ahcefeEKo/fWNN/Dcc8/Z7e/ugQcewJtvvYXy8nI89NBDOPTtt5g3bx7+unYtgoKCsG3bNix58EEkJSXhXxs3IiUlRXhsc3MzHvv97/HZZ5/B3d0dv/nNb7DyxRehUCjQ0dGBv61bh5deegkST098+umnmDZtmt1zk/MZTNCcV1CE3z25DBptz279xx5+AIsX3CleRl5BEV55/W9Y9+qLCArsu8uu+7HXrl6JGVddId5CNCwYNNNQqdVq/OlPf8K2Tz7Bb37zG7z8yivw9vYWb7sodDod/t+SJdi9ezcee/xxPP/88wP+s703FosFuTk5iIuPv2Sv7UJh0DzCMGgmR8WgmUYiBs3kiBg0k7Opra2F2WRCZD+u4t7a2oo758/H4cOHcdfdd+P999+Hm5sbAKCqqgqlJSXihwjCwsMRHx+P/fv344Hf/AYBAQFY88YbuO666+Dq6gq1Wo38/HzI5XIkJSXBy8vL7vFlZWWorKiAi6srIiMjERkZCVdXVzQ2NuIPTz2F7du3Y/r06XjvH/8Y9IWCaPQYTNDc3cYt2/D90WP4619egKxrTmhv+hs0H/ruB3z17WGsXP60uEQ0rBg001BZrVZUVlaisrISoSEhiB07dkh/ng5FR0cHcnJyoNVqERcXhzFjxoi3DJq6oQHNzc1ISEwUl0Y0/nRNRERERESXTEtzM/zOMzLDxtfXt8/ZjRERET1nNna7xcfHAwD27tmDpqYmzL/zTlxzzTXCB45BQUGYNm0aJk6c2CNkBoCYmBhMnzED06ZNQ3R0tPC4qqoq/Pjjj3B3d8dV06YhLIzjb+jCWLFqDTKmz0LG9FnYuGWbuAx0Bcq2PQ89sRR6gwGHvvsBTy5bgf/sOWC3Jt6Hrud4+s8v4to583rU9AYDHnpiqfC4Q9/9IHp2IqKhc3V1RXR0NKZNm4aExMRLFjKj61oNaWlpuOqqq4Y1ZAaAoK5rOjSq1eLSiMagmYiIiIiILgmDwYCOjg7I5XJxqU/XXnMNAgICUFVVhcOHDwtXpO+P5uZmAMCSJUuwaNGic158sL+OHz+OqqoqxMbGYtasWZBIJOItREO2ccs21NU3IHP/Tmza8Db+temTHkFvXkER1rz5d2za8DYy9+8EALy6dj1mXHUF1q5eicsz0vHXv7yA8ooqrHjldaxdvdJun01RcSm2f/Q+Nm14GwWFp/G/n08Ie0JDgnEscx/Wrl6JFa+8jryCIuFxREQ0MGHh4aiuqUFn5+gZNsGgmYiIiIiILomW5mb4+fmJl89pYno6Zs+Zg5aWFnx3+DD0er14S5/8/f3x17Vrse5vf0NMTIy4PChHjx6F1WrFjBkzMGnSJHGZaMj0BgO+P3oMV07JgEwqRXJSAmZMuxKl5RV2+44eO47wsFBER0VAJpViwfzbUFff0GMkU4O6EUmJ8bhs8kRhX1Z2DtSNTQCA9LRUBAUGIDoqAkmJZ74JoG5sQlZ2Dq67+sz88csmT0RSYjwa1I12xyYiov7z8fGBQqFATc3ouUg9g2YiIiIiIrokWlpa4DvAoDkgIAB//vOfsfvLL/HII4/0OubiYnr00Uexd+9ePLN06bB0SBP15c13PxDGVvxnzwGUlNkHzQDw07EsTJ95KzKmz8KTy1agprYeer190CwOqIODAiH3OXsxqrExfc9Lf3LZCmRMn4XpM2/FT8eyehyLiIgGJiwsDLU1NTCZTOLSiMSgmYiIiIiILjrb2AwfHx9x6Zy6z25MTEq6pLMbASAlJQXTZ8xARESEuEQ0rNauXoljmfuEW28X9vvV7Bvs9uz6+MMeFwmMjbYPkhvUjdC26ezWeiP38camDW/bHX/xgjvF24iIaAAkEgnGdIXNowGDZidw77Q4aD5YgIPLZ4pLAIANS6ZC88EC3DstTlwS2I6xYclUcWlAhus4RERERDSytba2DribmcgZyaRSXDklA1u2fw69wQB1YxNuufv+HhcEnJIxCcdPnBLmJq9YtcbuYn42wUGBwuxlvcGALds/F8Zl9CUoMABxY2Pw8ae7gK550NfOmddjTjQREQ3cmDFj0NzcDIPoz+uRiEGzE/jocDGOFqsxLtwXv0y1vwr2L1PDcONEJSobdfjocLFdrbuPDhdD8cAWPPj+EXGJiIiIiGjANK2t8PX1FS8TUS8WL7gToSHBmD7zVsy69R6kp6X26CZOTkrA0489hEUPPoqM6bOQlZ2Dl59bCplU2mPfyj//EU8uW4HpM28FACx98hG7Pb1Z+uQjqKtvQMb0WVj04KO4b9FdmHHVFeJtREQ0QK6urggdMwZ1tbXi0ojjotPrR8+lDZ3AzmNVWPjuwMPeF+9Ix9KbJuCjw8V2YfGLd6TjidkpWLcnF8/vyMLB5TNxXVcYbbJY8er/ncTzO7Jw77Q4rL//F9j2Q5nw+JzXbkGK8kwXirbdjEc+/BEfHS5Gzmu3AABSnznzaXf35yiq1dod55epYfj3w9Og9JcBAHJVLcLjaGSZnhSMvX+8VrxM5NC8PD3h6srPXMmxiDvPiEYjs9mM3JwcTExPF5eIRgWJh8clH+tCdCmYLRaYzWbxMhGdR2dnJ06dPIm4+HjIZGcyspGIP107ied3ZOF0nQZXJgTbrU9NDIHGYMY3eXU4uHwmxoX74rpV++GycCM+OlyMJ2an9DpS4+DymfCVSYS9R4vV+Mvdk3t0TJ+LLWRu1ZvgsnAjrlu1H74yiRBUExENB41Gg4b6evEy0aB0dp65XWwN9fX8fUyjikajgUKhEC8TEREROSUXFxeEhISgvq5OXBpRGDQ7ke+LGhAZ6C0Ex/dOi8OUuCDsPaGC0l+GiVEB+Oc3Rfg658wA8gffP4LKRh0Wz7APmrs/zrb3+lX7EfHoduF+fyyYGguF1AOrvzgFAPg6pwb//KYIkYHeePEOdrcQ0fBpbW0VLxENSGdnJ9SNLTiVX4z806UoLK5AQ2OzeNsFYzKZYLVaxctEIxaDZiIiIiJ7IaGh0Gg0aB/B33Bk0OxEthwphcZgFoLjq5NDAQDf5tUhYYwcCqkHnrttIjo3LxZuttEY3SWMkQMAqpv14tKAxAT7QGMwQ9XtOEW1WhjN/EGaiBzf0WI1/JZshcvCjXBZuBExj++w+/Osv1TNesQ8vgML1h8CACxYf2jQxxqIc52/rfbyzmxo282Y/uIeTH9xD7TtQ/sa5EP//B5Hi9Xi5X6zvVe2c7bdXt6ZbVe3vZfo9lqG8p5aLB0oLqtCaYUKLa0aqBtbUNfQiPKqGpSUq8TbiagftBoN5AyaiYiIiAQuLi4IDg5GfUODuDRiMGh2Il/n1CC/ulW4KOCVCcE4WqwWLgJotHTgpc9P9PgB/vpV+8WHIiJyap/9VI5fPL8bT89NFT6Ym5oYgtRndg0pSAWALY/MQNnf7hBm118IAzl/uZcHMp+fjcznZ0Pu5WFXG4iXd2bj4+/LxMuDcs/UWOG875kaizW7c3qcN7pC5pmrDwAAtj12zaDfU3VzC5pbNGg3muzWDQYjNNo2FJdXoblV2+uNiHrS6XTwkEggkUjEJSIiIiKnFhwSAnVDw4iddc6g2clsPFQMT3c3PHFjMiIDvXGk8My8x6LaMz8Mh/fjh/CB7D2XsoY2KKQedj/4J4yRw9ODvy2JyHFp281YuycX05JC8PiNycL6lkdmoOX9ezAlLgjopfvW1nULUTfx3W99K6yjl47ml3dmC8dYsP4QXBZuxGc/ldvtt9X703Xc3/Pvvr97R7Ptvvh1dd839/Wv4NKtS/qzn8rx3PbjaNWb8Ivnd+Ozn8r7PM5APXFjCgBg/8lqu3VVsx53vvnNmdqyG3q8roFoazMIIbOPtxRjQgPh7S0FAGjb9GhoaEZBUVmPW2FxGVoYNhP1oNVqIZef+YYcEREREZ3l7u6O4OBgqNU9G2lGAiZ6Tuajw8Wo1xhw0+RIVDbq8PyOLGH9aLEad14RYzfDWfPBAmxYMrXHMY4Wq3HjRKVw8b8NS6ZC88EC3DstDjUtBrtZ0POmRMPT3c3uGOg2ymPZzeOBrosD/uaaBLvzIiK6UFQqFdrb28XL55WnasXJyhbMSlP22eGratbjqhe+xNTEEHRuXoxPn7gGz20/LgSsf9j8E/xkHqh6ez6enJ2CcrVOfAigK5BesztH6OAVW7D+EI4U1qPq7fmoens+Kht1+O0H34u32enP+Z/Lbz/4HpWNOlS9Pd/uddmcrGzBitsn4scX56JFb8aH357G7ZdH46X5k+Ark+DHF+fi9sujz3ucoWjVm3H3W9+iXK3DP//f1CGFzADQ3m4U/re3TIaE2CjIu4Jm2K6u3sutcxCToKxWK0pLSmAy2XdPE40mbQyaiYiIiPoUFBwM9Qgdn8Gg2Ql9erQcJosV3xfZ/6a9ftV+VDbq8O+Hp6Fz82L8++Fp2PZDGR58/4jdPtveVr0JXy2fic7Ni3HvtDis25OLjw4XY9Wuk9AYzMJxiuu00Bh6dth9nVODX797GL4yCTo3L8ZXy2eiVW9C6jO7xFuJRhSLxYL/fv01/rJqFfbu3XvJA6MdO3bglVdewaFv7TtnHZ3ZbIZOp0NzczPq6+uhUqlQXl6OkuJiFBYWIj8vDzk5OTh18iROZmcj+8QJFOTnI/vECbtbaUkJtFqt3dqJrCzU1dZesIur/Xi6AeVqHe6YEg0AuGFCOKYlhWDtnlwcK23EycoWPHhtIpT+MvwiPhjRQd7iQwBdXbqtepNwHNuv6AqzjxTWY2piCJT+Mij9ZXjw2kR8maXqdYzEcKgWPaft3HNVZy+26CfzgDJABmWADH4yD+SqWuyOgV7Ovbfj9Ne6vbkAgJkTwoW1L7OqcLjgzDd21u7JPW+X9/l4eZ39en9TcwvyCkvRqj0779lb5gVvmRek3fa5u7vDxdVFuD8Qzc3NyMvNtfs929DQgJqamh6/v7NPnMDJ7Gzk5eairLQUjWo1LBaL+JBEDkWr1cLHx0e8TEREREQApFIppFIpmpqaxCWHx6DZCT2/Iwueiz/qNUBOfWaX3Xxm256PDhdD8cAWu8d03+u5+COhC/nrnBpEPLpdqN38xtcIfuhjPL8jq8dxxHsZMtNoUFpaipdffhmvvfYafj52DC4u9mGT2WxGUWEhMjMzceTIEWg1Grt6X1pbW3HkyBFkHjqEI0eOoLGx0a7e0dGB4uJiZGZmorCgQAibsrOzseqVV7Bu3To0NzfbPcYRGI1GtLS0oKamBqWlpcjPy0PW8ePIy8tDVWUlmpubYTIa4ebmBh9vbwQEBiI8LAxR0dGIi4tDYlISxiUnIyU1FXHx8UhJTbW7RUVHw8fHx25tXHIy/Pz8evy3GS65qlb4yiSICOg9QB6Ivo6jatKjRW/u9aKtF0pNiwEtejO2HimFy8KNiHh0O8rVOrswOTLQGwrpuTulbed+ruOci+1xLgs3YuuR0l67lj994hq8NH8SDhfU42978+xqAxUSFACZ1AsAYLZ0QN3UAoPhTDe8r8IHUcoxSE2KQ0TYmYvsAoCHuxvGj4uHn+/AuzZ9fHx6/F4ODApCaGhoj9/ftt/P0TExkMvl0Gg0yD5xAhXl5YPq2Ce60Nra2iCTyeDm1vPbbkRERER0RmBQEBpH4PgMBs1ERMPs+PHj+N///ofw8HBcc+218PA4G7qZzWZ88cUXuO+++zBn9mzcfNNNOHnqlN3j+5KZmYmbb7oJN954I26+6Sa89dZbdhcI0Ot0eOvNNzFn9mysXLlSCJVnzJgBqVSK48ePIzMzs9sRL76Ojg60traiuroap4uKkH3iBIoKC9GoVqPTaoWvry+ioqMxIS0NaWlpSBo3DmPHjkVEZCTGjBmDwKAg+Pn5wUcuh0wmg5eXFyQSCTw8PODu7t7rzc3NDS4uLnZrnp6eGBsXBy+vM+HhQCQrfTEh0g/7slV9dsqmKH3Rqjehqqn3kRgA+h2q9nWcc3UMn0t/zr8vYX5S+Mk87C7G17l5MbY8MkO89Zxs5z7Y44gfd/vlZzu9bfXbL4/G/VfHIzrIu8+LBfaXQu6N4KAAyKSeduveMilCgwMRFOgPT08JPDzchVonOuEpOXfg3hsXFxckJCbCx8fH7vesq4sLXF1de/z+dnd3h4eHB2QyGQKDghA7diwmpqfDQyJBfl4eqlUq8VMQXVJtbW3wZjczERER0Tn5+/ujvb0dBoNBXHJoDJqJiIZRR0cHvvrqK1gsFkTHxGDC+DMzyAGgsKAAf16+HH9atgxZWVmwWq0wGAzo6OfX3DWtrcJfMgaDAbt27cLJkyeFeicAo8kEq9UKjVYrdDOOHTsWaWlpUKvV+OrgwX53UA+Hzs5OaDQaqKqqkJ+fj5PZ2aivPzPSIDgkBMkpKRg/YQLi4uMRrlQiICDgona6DaajWe7lgSdnp/TolF2w/hD8lmzF0WK1MApix9EzM4cPnKzG4YJ6PDk7BRmxgZgQ6YcjhfVQNeuFMRu9mTkhHL4yCXYcPTPbee2eM2MiAEDpL8PUxBDhOKpmPTb8txBz0pU9unu768/59yVc9Jyf/VQOF9HFCftDfO6DPc75KP1l+Ouiy9GqNwkjNgYrShmKsdERiAgPRVxsJOJiI5AwNgqhwQHCHi8vTwT6+yI0OAABfr52j+8vFxeXQf2+7M7NzQ1hYWFIHT8eJrMZ+Xl50Ol6/z1GdLHp2trg493zWxpEREREZC8gMHDEjc9g0ExENIzq6upwqiv8TU9Ph1yhEGr/2rgR69evh1QqRUJCQrdHDYxUKoW/vz9Kiouxfdu28wZIYWFhmDx5MqxWK44cOQLVBe5wNJlMaGhoQPHp08g6fhy1tbVwdXNDREQE0idNQkJCAsLDw+Hr62vX7T2S3H55NH58cS7W7M4RRjh8maXC/mU3YEpcEJT+Mnz3whwcKayHy8KNmLfuG3z6xDW4/fJoyL088PHvrwYARDy6HWv35PY5o3lKXBCenpuKrUdKoXhgCyID7fdteWQGpiaGIOLR7Yh4dDumJob0qyv4fOd/Lu89cCUiA70R8eh2zFv3DV6aP6lHR3FvbDOUf/H8bry8M3vQxxko23zsrUdKhxxk+/spEBsVjvDQIISHBkPuI7Ore8ukSEkai8S4aMTFRMC9lwvhXkweHh6IiYlBcHAwCvLz0SQat0N0Keh0OnY0ExEREfVDQEAAmkdY0Oyi0+s7xYvkuHYeq8LCd3vOVia61KYnBWPvH68VLzudgwcP4ncPPwyVSoV3330Xv168WKj9bd06lJeX46abbsKmzZvx8datAIC9e/di+ozzh4NbNm/GkiVLkJCYiMmTJ+Pzzz5DaGgo/vnhh5g6dSo0Gg2WLl2Kf2/ciF9edx3eeecdREZGAgA+/PBDLFu2DCajEZ9s24aZM2eKDz8ktjnLLS0tMLa3w9fXFwpfXygUiovWndwXjUaD+ro6xPcS7nt5esLV1XE/cz1arMbM1Qfw9NxUPHtrGl7emY01u3P6FQjTyKXv5etxqqoquLu7I3TMGHGpX3Q6HUpLShAcEoLQ0LOzpIkupvb2dhSfPo3Ubt/2IRqtJF1jvYicjdlisRvvR0RDU5Cfj7DwcCi6NbE5Msf96ZqIaAQqLCwUvtoSFn6mg9PmwSVL8OprryHjsssgkUjsagMhk0oxf/58xI4di8rKSvzfF1+It/QQGxMDfz8/mEwmlJSUiMuD0mGxoKGhAYWFhSjIz4fRaERYWBjSJk5EdEwM/P39L3nIbOPpaT9bd6SYEheEOelKPLf9OFwWbsRz24/j6bmp5w2ZF6w/JHQqi29D7eq9kLTtZkx/cU+Pc3ZZuPG8Yz3o3Ly9vZGYlISmxkbU1tSIy0QXhV6vh0xm/00AIiIiIuqbv7+/cP2lkYBBMxHRMGlvb0dZaSkMBgOCg4MREHB2diu6gp7hGBVhNJmgVCoxa9YsAMCBAweQlZUl3mYnLCwMPl1fVa6urhaXB0TT2oqy0lKcOHECurY2hIaEIG3iRERFRTnkp6wKhQKRUVHi5RFjyyMz7C589+ytaeItPYgfc64L5zkSuZcHMp+f3eOcOzcvRsv795w3YB/NlBERg+5mtpFIJIhPSEBzSwvqamvFZaILTq/TQcb5zERERET95ufvjxYGzUREzsdkMkHb1gZ0hZsXqovW2N4OnU6H22+/HbGxsSgqKsKOHTvOeTVambe30EWtVg+8K9RisaCutha5OTmoqamBt48PJqanIyY2Fr5+fuLtROSgPDw8EBcXB7VaDXVDg7hMdEGxo5mIiIhoYCQSCaRSKVpbW8Ulh8SgmYhohEpNTcXChQvh6emJ3bt3Iz8vT7xlyPR6PSrKy5F94gTajUZERUcjadw4BAcHO8xYDCIaGIlEgrFxcVCpVCPmH6w0OhgMBkilUvEyEYls3LINGdNnCbeNW7aJt/SQV1CERQ8+CnXjwC4atWLVmn4dn4iILh1fP78R8+92Bs1ERCOUTCbD3ffcg8TERBQWFODgV1+JtwyaRqNB8enTKD59GhKJ5Mzc5ehoYfwGEY1sUqkUMbGxKC8rQ3t7u7hMNOyMRiPc3Nx4cTSi89i4ZRs++2IP9u3cimOZ+7Bv51Z89sWeCxYGr1z+NBYvuFO8TEREDsTX1xcaBs1ERM7F1cUFbq5n/lg1m82wWq3iLf1itVpRXl6Ow4cPIycnB0ajUbxFEBUVhZtuugnu7u44sH9/nxf5slgswvl4nuNChC0tLSgsKICqqgq+fn6YkJaGMWFhDAaIRiFfX1+MCQtDebnjXiCSRg92MxP1T0lZBdLTUhEUeOZaH0GBAbj95tn4/ugx6A0G6A0GPPTEUqHb+aEnlkLfy/i07l3R186Zh7yCIqCrg3nhA48IndLdO5rzCopw7Zx5yJg+C7fcff+Au6OJiOjC8PLygqurK/R6vbjkcBg0ExENEy+pFP5dFwBsaGhAW9e85oFqa2vDurVrMXfOHDz6yCOoqqoSbxG4ubnhpptvxoQJE1BQUIAj338v3gJ0Bci2rsXg4GBxGS3NzSjIz0ddbS2CQ0KQnJKCoCDnvfAakbMICQmBl6cnKisqxCWiYdXOoJmoX667ehr+s+eAXYC8eMGd+Pu6VyGTSvHq2vUIDQkWup1rauvxv59P2B3j0Hc/2HVFz5h2JT7+dJdQl8t9kLl/p10ns7qxCctWrMJ9i+7Cscx9SE9LxbMvvdpriE1ERBefQqGARqMRLzscBs1ERMPE3d0dY8eOhY9cDoPBgNraWrv69u3bceOsWZh3++3Yt3evsP7MM8/gxlmz8NZbbwEAtFotSktLYbFYoNFqYTKZuh2lp/j4eNz7619DKpWiTasFALi5usK1q7saACoqKoSZTlFRUcJ6a2srCgsKUFdXh9DQUCSNGwd/f3+hTkSjX3RMDNra2tDU2CguEQ2b9vZ2eHl5iZeJSGTGVVcgc/9OAMD0mbf26FpeufxprFz+NABAJpMibEyI3ePRdYxdH38odEWPjTn7bz8ACA0Jhkz0wU+DuhFyH2/MnXU9AODuebeguqYO5RV9NzwQEdHFI1cooO36ed+RMWgmIhpG48aNQ3BXJ7C4Q7CyogKZmZk4cuQI6urqhPXs7GxkZmaiqLAQ6BpzYewKl1NTUoQOZHcPD7i7u0Mmk8HX11d4vEQiwZ133onrrrvuzD53d8TGxkIulwMAOjo6UHz6NFpaWuAjlyMmNhZtbW04ffo0qlUqBAUHI2ncOPgxYCZyWpFRUaisrDznqB6ioWDQTNR/MqkUf1/3Ko5l7sOxzH0IDQnGq2vXA6LxFtNn3oqfjmWJH95jvMab735gVxcHz+gKmrVtOuF+cFAgFHJem4OIyFHI5XK0abXo7OwUlxyKi06vd+wzJDvf5jdg4+FS8fJFxt8y1JO3pzveujdDvOx0Wltbcef8+Th8+DDuuvtuvP/++3BzcwMAVFVVobSkRPwQQVh4OOLj47F//3488JvfICAgAGveeAPXXXcdXF1doVarkZ+fD7lcjqSkpB4/sJeVlaGyogIurq6IjIxEZGQkXF1d0djYiD889RS2b9+Oq666Ci+88ALkCgXCxoxBUC9jNJyJl6enXec3kSO4VF9Trq2pgV6vx9i4OHGJaMiyjh/HhLQ04e9EotFO0tUgMBB6gwHPv/w6Hvj1PUhOShDWD333A7Zs/xyvPL8Mf35xNa6ckoHFC+6E3mDAU396AQvm34bgoEC88vrfsO7VF7F730F8f/QY/vqXFyCTSrFxyzaUlFVg5fKnsWLVGoyNiRLGZtjuT8mYJDw+KDAAeQVFWPr8K3j1xT/bnQvR+ZgtFpjNZvEyEQ2DgoIChIeHC01ljohB8wjj5uZ2zgt5EV0qHVYrO+G6PPvss1j7178iPT0d23fsQHh4uHjLOT315JN477338Kfly7F06VJ4eHiItwzIiRMncPddd0GlUuHee+/F0qVLERkVBRcXF/FWp8OgmRzRpQqaAaCwoAABAQFO/yEUDS+zyYT8/HxMSEsTl4hGrcEEzei6iF/3kNgWJoeGBGPpk4/gqT+9IATNh777AU8uW4G1q1f2GTTr9QY88MgfkJ6Wes6gee6s6/HAI3/A7TfPxuIFd2LFqjWoq28QzoOovxg0E104qqoquLm5YUxYmLjkMPjTNRHRMLv2mmsQEBCAqqoqHD58GFarVbylT83NzQCAJUuWYNGiRUMOmQHg8OHDqKqqQmRkJBYuXIio6GiGzETUq4iICKhUqvPOhicaCKPRCE9PT/EyEfVi8YI7ceWUDGE+8/SZtyI0JBgrlz8NmVSKBfNvw5vvfoCM6bPw1beH8avZN6C03H5c29xZ16Omth7TZ96KBx75A+69+w7U1Tec84PMoMAArF65HP/a9Akyps9CVnYOXn5uKUNmIiIH4u3jA53u7JgjR8SO5hGGHc3kqNjRfJZarcby5cvxyccf47777sMrq1bBx+fiz7gzGAyorq7G8889h507d+KBBx7AG3/967CE16MFO5rJEZ0rCLgYqqurYTIaERMbKy4RDUpjYyPatFpEx8SIS0Sj1mA7molGOnY0E104ZpMJeXl5SJs4UVxyGAyaRxgGzeSoGDSfZbVaUVlZicrKSoQEB2NsXNxF/0GjpqYGtTU1CFcq0djYiEa1GrFjxyIiIkK81akxaCZHdKmDZgDIzc1FeHg4/Pz8xCWiAauprga6rkVA5CwYNJOzYtBMdGGdOnkSCYmJDvttMQbNIwyDZnJUDJodg1arhaqqCp6enghXKh32Lx9HwaCZHJEjBM2tLS1QVVcjJSVFXCIasPKyMvj4+CAwKEhcIhq1GDSTs2LQTHRhFZ8+jcCgIIdtCOFP10REo4SqqgplpaUICQ1F7NixDJkvoBWr1uCWu++HurFJWMsrKMKiBx+1WyMaqXz9/CD18kJtba24RDRgJrMZHmyUICIiIhoyqUwGgwM0pvSFQTMR0Qin1WqRl5sLi8WC5JQUBAQEiLfQBVClqsbufQfFy0SjRlh4OGqqq2HmhQFpiMwmEyQMmomIiIiGTOrlhXYGzUREdCFUq1QoLSlB6JgxiI6J4Vc0L6JrZ1yFT3d9ibyCInEJ6OpwvnbOPGRMn2XX/bxi1Rq8vu4d3HL3/ciYPgsrVq3Bxi3bkDF9Fq6dM8/ueCtWrUHG9FnImD4LG7ds63Z0ogvPy8sLIaGhqGFXMw2R2WzmhWiJiIiIhoGXlxfa29vFyw6DQTMR0Qik1+tRWFAAo9GIlNRUdjFfAhNSx2HeLXPw8ae7xCWoG5uwbMUq3LfoLhzL3If0tFQ8+9Krwuzdwz/8hA/Wv4FNG97GocPfo6SsAscy92HGtCuF423csg119Q3I3L8Tmza8jX9t+gSHvvtB9ExEF1ZYWBhampuh1+vFJaJ+sVqt6OzshJubm7hERERERAPkyaCZiIiGU0N9PfLz8uAfEIDYsWPZxXwJzZ11PbKyc3oEwA3qRsh9vDF31vUAgLvn3YLqmjqUV1QBANLTUhEUGIDgoEAow8Nw97xbAABjY6KArovBfX/0GK6ckgGZVIrkpATMmHYlSssruj0L0YXn6uqKMWPGcFYzDZrFYuHfU0RERETDxNXVFR4eHjA56Hg7Bs0OSq/XO/RwbyK6+Do6OlBWWorm5mYkp6QgODhYvIUusqDAAPzh97/Flu2fQ68/+2d2g7oR2jadcD84KBAKuY9w3xYon8+b734gjM74z54DKClj0EwXX0hoKAx6PbRarbhEdF4Ws5lBMxEREdEwkkgkMBmN4mWHwKDZQZWXlYmXiAals7MTdQ1NKK+qQU5BCWrrG2EwOOYfSNQ3rVaL/Lw8eHh4IDEpCVKpVLyFLpHLJk8EAGzdsVNYCw4KhNzHW7jfoG6ERtsm3O+vtatX4ljmPuG2cvnT4i1EF0XomDGoq6sTLxOdFzuaiYiIiIaXRCJhRzMNTKd4YZgsWH8ILgs3CreXd2aLt/TLyzuz4bdkK44Wq3G0WA2/JVsHfazzUTXrEfP4Dkx/cQ+07WZh3fa8C9Yfstvf3Wc/lcNl4UZ89lO5uNRvw/X6xO+9y8KNdq9pwfpDiHl8B1TNZ+ZgatvNmP7iniGff1lFNSqqalBRVYum5lZU1zagqLQSzS0a8VZyUHV1dSgpLkZ4eDiUERHiMl1iMqkUjz/8II4dPyF0MQcHBULbpsPufQcBAB9/ugvhYaGIjurffz+ZVIorp2Sc6ZQ2GKBubMItd9/PCwLSJRMUFAST0QiNhn930MBYOjoYNBMRERENI4lEApP5bD7mSBg0OwlbaHmksB5Vb89H5+bF+PHFuVizO+ecQW1/TIkLQsv79+DZW9PEpWGh9JdhamIITla2IE/VKqzvP1mNVr0Jd0yJttvf3e2XR6Nz82Lcfnnfey6m6CBv4f3/9IlrcLigHn/bmyfeBm27GXNeO4jDBfV4af6kQZ+/urEFdQ2NaDee/aRLpzegVaNFaUU1WrVtaDeaer3RpWe1WlFWWorWlhaMGzcO/rzgn8NKTkrAfYvuEu4HBQZg9crl+NemT5AxfRaysnPw8nNLIRtAJ/riBXciNCQY02feilm33oP0tFQsXnCneBvRRRMaGop6djXTAFksFrgxaCYiIiIaNh4SCcwO2tHsotPrL1TzLA1Bbm4uYmNje3w93s3NDZ4Sid1af3z2UznmrfsGnz5xzTlDywXrD2HrkVIAwLSkEHz5zPWQe3nY1XxlElyVGILvCuuxf9kNAICZqw/g6bmpePbWNBwtVmPm6gNo1ZswLSkElY06TE0MwZZHZgBdHcK2OoDznhO6nf9L8ycJgfaC9YdwpLAe370wBz+ebsC8dd8AXWHudy/MgdJf1uN19/Xc4n0v78zGmt05vb4+23P39T71pfv5Kv1lQpgMAF8+cz1++8H3Qv2PW/6HrUdK7V7vQFksHTiVXyx0WHp5SiCReMBgaIfZ0gEA8PTs4/dSZyfSUhPh1Ve9Fx1WK4wOOiNoJGpra0NFeTkUCgUiIiPFZRomXp6ecHXlZ67kWPQOfI2G3JwcREZFQS6Xi0tEvaqpqQE6OxEWHi4uEY1qEg8PdvOTUzJbLDA7aKcl0WjR0tyMpqYmjI2LE5cuOf50PYIYjUY0NzWJl/tlx9FyRAd54xfxfV88zBaEVr09H1Vvz0dlow6//eB7oCvotQWflW/dAY2h909OtO1m/GHzT/CTeaDq7fl4cnYKytVnL4hlC3qfnpuKzs2L8dL8SfjNP47gaLHa7jhiv4gPRnSQN/Zlq6BtN0PVrMeRwnpMTQyBqkmP3/zjCF6aPwmaDxYgMtAbd7/1rd2YDXSN4LjzzW+E575naiye2vSTMKqiv871Pg2Hlz4/ga1HSnHP1NhBh8zo6oaFy9nPkYIDAzExNRGSbh9UGI2mXm9wcRH20MVXV1eH00VFGBMWxpCZiBxKcEgIGurrxctEfero6ICbm5t4mYiIiIgGyd3DAxaLRbzsEBg0X2QWiwUtzc2orq5GWWkpCvLzUVxc3ONmMplQWVlpt1ZUWIjW1rOjI4ZT9+BW6S+D0l+GB69NxJdZKhwtVgtB9f1Xx0Pu5YFZaUrxIQAAeapWnKxsEY5jC4ht9p+sBgDMnHCmq+X+q+PhJ/PAur25wp7eiMdn/Hi6AeVqHe6YEm13TNu5VTbqoDHYB80/nm5Ai94sPPeWR2ag7G93QOkvs9t3Lud7nwbiwMlqHC6ox6w0pdANXa7W4b2vCgFgUMfsrhOdcHM9+4Odpk2L/NPlZ4LkLh7u7sLNTie/6HApmM1mlBQXQ9PaiuTkZARwVAYROZjg4GDo9XrodGc/RCY6l46ODrgyaCYn1NnZCbPZzBtvTnfjz5JEF56Hu/uZ/785IAbNF0lzczOKT5/GqZMn0djYCBcXFygUCsjlcgQFBva4ubu5wd/Pz25NLpdfsH+oq5r0aNGbkaL0E5cGpa/j5Kpa4CfzgDKg/+GuzR1TotGqN6GqSWfXoZ2rakGr3oRfPL8bLgs34rntx9GiN0PVZN+pnNttvvNgDfV9KlfrEPHodrgs3Ih5677ptWv5nqmx+PHFuQCAP2z+qUdndn95SiRQyH3g4XEmRG7VtKFB3QRLx5mxGXIfb0RHhmFcQgwU8rMfBvh4y5AYFz2gsRk0dM3NzcjLzYVUKkVCYiI8vbzEW4iIHEJwcDDUDQ3iZaJeWdnRTE7KbLHwxpvT3ojownJzd0dHV7bjaBg0X2DNzc3Iz8tDQ0MD/AMCMDE9HXHx8QgLC0NAYCDClUr4+vn1uLm6ucFHLrdbi46JQWhoqPgp+uWOKdEoV+vw4+nefzBUBsjgJ/NArqpFXBL0Ft72pa/jpCj9BnSc7mzd0Wv35Np1Faco/eArk+DHF+eic/NidG5ejJb378GUuCC7x6cofYWgerD68z6dS/eLAXZuXizMre5ef33BZZgSF4Q56co+LxbYX2OCA+DjLRPCZhsvTwnCQgMRFhoEP185JJKz86Xd3d3g58vZmxeL1WpFRUUFaqqrERsbyxmWROTwgkNC0NzczLn81C9Wq5Wz8ImIiIiGkbu7O0dnOBuj0YiS4mLU1dYiLDwciYmJCAgIgEs/Z9/2tcvT01O81C83TAjHtKQQu5nER4vV8FuyFQvWHxJGUxwprIeqWQ9Vsx4b/luIOelKTIkLErqJ95+shrbdjH3ZKvFTAACSlb6YEOknHOfDb0/bzWi2ja2wjbv48NvTaNGb8cSNKcKevtjO8XBBvTA2A6JjatvNmP7iHkx/cU+PTmBbUL3jaDkA4OWd2fBbshVHi9WICPCGr0yCXFXrOV/f+d6n4fT6gssQHeSNDf8tHPAcaRtPTwliI8MRGhKE4EB/eMukCAsNQvzYSIQGBwr7PCQekHp5Qib1gkzKTtqLpbW1FXm5uXABkJySArlCId5CRORwXF1dz3Q1qwc/3omch9VqhRuDZiIiIqJh5ebm5pBdzfxX3wXQ1NSE/Lw8yGQyjEtOhq+vr3jLeQ33VCO5lwcyn5+NqYkhwuiGXzy/G3PSlUJX7ZZHZgj1iEe3Y2piiFC7/fJovDR/Ep7bfhyRv98BhbT3sQpyLw+8sfBytOjNiHh0O/Zlq+xmNE+JC8L+ZTdgze4cuCzciDW7c7B/2Q39Dmlt4XL3CxtOiQvCP//fVDy3/TgUD2xBZaMOH//+amHusY3SX4Ztj12DL7NUwoiNf/6/qZgSFyR0EJ/v9eE879Nwss1/Llfr8Mct/xOX+83bW4rYyDAkxkVhcto4xMdGwt/XPtCMVo7BZekpyJiYjLiYCLsaDT+r1YrKigpUVVYiIiICkVFR/f4QiojIEQR1jc/otFrFJSI7VqsVLgyaiYiIiIaVq6srrA4YNLvo9PrhzjSdWrVKhebmZkTHxMDHx0dc7rfc3FzExsZCKpXarbu5ucFT0ncIeqlp282Y89pBAMCXz1yPPFUrZq4+gKfnpvaYRUyjS4fVyq9R90NzczNUVVXw9fODUqnk14kvMS9PT/43IIejNxjESw6ptKQEPj4+CA4JEZeIBHm5uYjp5d+0RERERDR4uTk5GBsXBy8Hu74Tg+ZhVFZWBovFgtjY2CFf9CQ/Lw/RMTE9/lHu6EEzAHz2UznmrftGuD8tKQRfPnN9jw7j7o4WqzFz9QG06k3iUr8e7wjEr7u7e6bGXpCuZ0fCoPncTCYTVCoV2tvboVQqoeCYDIfAoJkc0UgJmrVaLaqqqpCcnCwuEQkc9YcgIiIiopEsLy8PMdHRkMpk4tIlxaB5GHR2dqKkpATubm6IjokRl4fVSAiayTkxaO5bXV0dqlUqjAkLQ1hYmLhMlxCDZnJEIyVoRtcH4+H88IzO4dSpU0hMSIBkkNcZISIiIqKeCvLzEREZCW/vs+NqHQF/uh6izs5OFBcXQ+LhccFDZiIaWVpbW5GflwddWxuSk5MZMhPRqBMYFIRGXhSQzqGzsxPgdQiIiIiIhpWLi8uZf2c5GAbNQ1RaUgJPiQSRUVHiEhE5qfb2dpSWlEBVVYXQMWPOfGWYsymJaBQKDAxEa2srTKaeo6+IAACdnbzgLREREdFwY9A8+pSXlcHNzY0hMxEBADosFqiqqpCflwepTIaU1FT4+/uLtxERjRqurq4IDAxEU2OjuEQEdHU0M2gmIiIiGl6O+q8rBs2DpFKpYLFYOC6DiAAAtbW1OHXqFKydnUgdPx5jxowRbyEiGpUCAgPR2NQkXiYiIiIiIifDoHkQGhoaoGltRezYseISETmZ+vp6nMzORrvBgMSkJERGRsLDw0O8jYho1PL29oa7mxs0Go24REREREREF4CjfmuMQfMAaTQaqKqqEBsbC1dXvn1Ezqq+vh6nTp5EW1sbxsbFISY2FlLOYSYiJxUQEMDxGdQ7FxfAAecHEhEREY1kDJpHAbPZjIrycsTExPDCXkROyGq1oq62Fiezs6Fra0NsbCzGjh0Lb29v8VYaxfQGAx56YimunTMPeQVFdrWNW7YhY/osbNyyzW59uNie+0Idn2iwAgID0dTUhI6ODnGJnJwLAMbMRERERMOLQfMoUFFRgcDAQPjx4l5ETsVoNEKlUiH7xAm0t7cjLj4esWPHwtvHR7yVnEh42BgcPXZcuK83GHAyJx/K8DC7fUTOwM3NDf4BAWjirGYScXHQK6ITERERjWRWq9UhJy043hk5qNqaGqCzE2Hh4eISEY1SWq0WZaWlyMvNBTo7kZySguiYGMhkMvFWckJXXXE5TubkQ28wAADKK6oAAInxZ+f32zqQM6bPQsb0WTj03Q8AgLyCItx81324+a77cMvd90Pd2IRD3/0g7Ou+FwBWrFqDjOmz8P9+/0e0temEdXVjE265+37hMStWrRFqRBdbQEAAmpubxcvk5Bg0ExEREQ0/Bs0jmFarRV1dHSKjosQlIhplOjo60FBfj/y8PFRVVkLm7Y20iROhjIiAp6eneDs5sZDgYNTW1QsB89FjxzEhdRy8vc9+EPHq2vUAgMz9O7F29UqseOV1YdyGVqvF0489hF0ff4gGdSPWvPl3bNrwNo5l7sNjDz+ALds/h95gwMYt25CVnYN9O7fiz398HKrqGqArxH72pVdx+82zcSxzHzZteBvHT5zqMc6D6GLx9fWFsb0d7e3t4hI5MQbNRERERMOvo6MDbm5u4uVLjkFzP1RVViIyKgoSiURcIqIuZpNpRH9lWqPRoKysDNknTkCn0yFcqURySgpCQkIc8lNCuvRCggMRNzYGR48dF8ZmTMmYJNT1BgPq6huwYP5tkEmluGzyRCQlxgvjNuRyOYKDAgEAyUkJ+OKTfyE5KQEAEBt99oPNkrIK3H7zbAQFBiA5KQEzpl0JAJBJpfj7ulexeMGdAIDgoEAo5BznQpeWv78/u5rJjourKzqtVvEyEREREQ0Bg+YRqqqqCjJvbwQEBIhLRNSNyWRCTXU1DF1jBEYCXVsbVFVVOHXyJGqqqyGTyTAhLQ0xsbFQKBTi7UQ9XHf1NJSUVaC8ogq1dfVCcAwAer0BNbX1wn2ZVIrQkGDhvkLuY7ffNh4jY/osPLlsBQDAYGhHXX2DsEes+7iNWbfeI3Q7E10q/hyfQSKuLi6wsqOZiIiIaNh0WCwOGTKDQfO5aTQaNDc3IyIiQlwiol6YzWa0abXiZYei1WpRVVWFnFOnUFFRAVdXV8TFxyNp3DiEhITA3d1d/BCiPqWMS0RdfQP+s+cA4sbGICjw7IeSMpkUYWNChPu2DufeHPruB2E8xrHMfVi7eiUAQCr1sgunu1M3NuGNt97D2tUrcSxzH/bt3MoLEdIl5+3tDXR2Qqc7O0ucnJurqyus7GgmIiIiGjaWjg6HzS4YNJ+DSqVCRESEw35KMBjdO+Yyps/Cxi3bxFv6ZeOWbbh2zjzkFRQhr6AI186ZN+hjDURf52+74NZDTyyF3mAQuvy6X0xrMPIKivD6unfEywMiPueM6bOEi3/19t7Zzt32WkYKqVSKuPh41NfXo6bGcboqTSYTGhsbUVZaiuwTJ1CtUsHNzQ1jx45FckoKwsLDIZVKxQ8j6heZ7MzvnY8/3YXrrp5mX+vqYLbNWv7fzydQUHjabrxGb/QGA7Zs/1y4f93V0/DZF3uEPzMOHf7ebr/N7n0H2dFMDsHf3x8t7GqmLq5ubrB2dIiXiYiIiGiQzGYz3D08xMsOgUFzH2qqq+Hl5QV/f39xaUSyBbHdO+Y2bXgb/9r0CVasWiPePiDJSQn475efCnNCL4SBnv+Mq67Ascx9mHHVFeJSv6kbm7BsxSq06fXi0oBFKMOF8z6WuQ+7Pv7QrvPR5tB3P+DJZSsQoQzHy88thWwEBaCubm6Qy+VITEpCm1aLivJy8ZaLwmg0oqmpCRUVFcjNzUV+Xh40Gg3kcjnGJScjadw4hIWFQSo7e8E2osGSSaW4ckoGIpThSBmXKC5j6ZOPAACmz7wVTy5bgZV//qMwh7m7yyZPRNiYEMy69R7MnbcI118zA21tOuj1Bsy46gqkp6Vi1q33YNmKVZgz8zoAQFBgAG6/eTaeXLYCGdNnQafTIykxHg3qRvHhiS4qP39/tLS0iJfJSbm5uqKDHc1EREREw8ZiNsPDQTuaXXR6PYemiRgMBuTn5SF1/HiHuwCgm5sbPAdxTrYAc+3qlecMX1esWoP/7DkAALg8Ix1//csLQthpqynkPsiYNBHHjp/AO2tXAwB+9+Qy3LfoLixecCfyCorwuyeXQaNtw+UZ6aiprUd6WipWLn8a6OoSttUBnPec0I/z1xsMeOpPLwAA/vqXF/C/n0/Y7bc9Hl2h7wfr30BQYICw/sCv78H2z/8PGm0bHnv4Acy/7SY89acX8NOxLKDbe2E7rvg457Ji1RpkZef0utf2Xty36C5MyZiE3z25DAqFote9jq7DaoXRaBTul5WVocNiQUxs7AX7VoDRaITBYIBBr4feYIBep4OLiwu8vb3h7eMDHx8fyBgo0zl4eXryYo/kcEbSt1n6kpeXh8jISPj48AKVzq6yogJeUimCg3sfA0REREREA9NQX492oxGRkZHi0iXHn657UVNdjXCl0uFC5qH46tvDfXbc2dgC0X07t2Lfzq2oqa3Hq2vXA11B73/2HMBjDz+A3Z9uQlsfsxf1BgP+9u4GKBQK7Nu5FQvm34YqVbVQ7x6sHsvch8cefgArXnkdeQVFdscR68/59yWvoAgrXnkdjz38ADL370TYmBA8+9Krdj/I1zWo8d8vP8WvZt+Az77YA73egJefW4oIZTh+NfsG/H3dqyivqDrvcQarvl6NZStWAQBWr1w+4kJmADCbTGhqahLux8TEQCqVorCgAO2DfI8sFgsMBgM0ra1QNzSgWqVCaUkJ8vPykHX8OIoKC9GoVqMTQGBAAJLGjcP4CRMQO3YsQkJCGDITEV0ifn5+7GomoOsbTx0cnUFEREQ0bExmMyQcnTEytDQ3w2QyITQ0VFwa1dSNTcjKzkF6WiqCAgOEr2QfOvw98gqKhKB37qzrha+K96a8ogoFhaeF46SMS0SEMlyoHz12HACEGaVzZ10PhUKBjz/dJewZbt2f03buNbX10OvPhp9jY6KEXzUaTa9fPe/PcfpSparGrFvv6TFb2ubjT3ehSlUNjbbtgr4XF5LJZEJlRQWKCgtRXFyM4uJiGNrbga7OtqKiImHd7nb6NIqKilBYUID8vDzknDqF7BMn8POxY8jNyUFZaSnq6+uh1+vh6uoKPz8/REVHY0JaGsZPmIC4+HiEh4fDz99/VH04REQ0kvn5+aGVQTMBcGfQTERERDSsTCaTw+YfDJpFampqEBZ+Nhh1Fg3qRmg0GiFwHaq+jlNSVgGFQoHgoEBx6YIpKauARtuGRQ8+iozps/Dmux/0CJNjo3s/3+76c5y+iGc0i+dZK+Q+2LThbfxq9g34z54DQ76I4aXg4uICDw8PBAUHIygwEEGBgQjw94eLiwukUilCuq3b3YKDERoainClElHR0YhPSEBKaiomZ2QgbeJEJKekID4hAVHR0RgTFgb/gADIZLILNo6DiIiGTiqVwtXVFW1tZ8ZkkfNyc3dHh8UiXiYiIiKiQTIZjZB4eoqXHQKD5m7q6+rg6ekJX19fcWnEu+7qaahSVSM3v1BcAgAEBwVCoVCgpKxCXBL0N1RFVyjbm3N1DJ/L+c7/XMbGRAlBri3o/e+Xn/Z6Qa5zGa7j9Oa+RXchOSkBd8+7BQq5D9546z2oG8+OoRgJvLy8kJCYCH9/f/j6+cHT0xO1tbVQKBQYl5wMXz+/3m++vlAoFMI8ZU9PT7g76FB7IiLqP18/P7S2toqXycm4u7vDwqCZiIiIaNgYjUZ2NDu6jo4O1NbWYkxYmLg0Klw2eSIuz0i3CzDzCopw7Zx5WLFqDYICA5Celoqs7ByoG5ugbmzCZ1/swYxpVyI5KQHXXT0NGm0bjh47Dr3BgO+PHhM/BQAgOioCSYnxwnF27ztoN6PZNjLDNoZi976D0Gg0uHveLcKe3pzv/M+l+3PqDQY89MRSPPTE0gHPVh6u45xLclIC7lt0F6pU1di976C47NBc3dzg0TUjSKPRoLCwEEFBQQhXKsVbiYjICfj5+nJ8BjFoJiIiIhpGFosFnZ2dQv7iaBg0d6mrrYWfv/+ovXiYTCrF39e9ivS0VGFW8KIHH8WMaVdi5fKnAQArlz8t1Gfdeg/S01KF2oyrrsBjDz+AN9/9AHPnLYKPt7foGc6QSaV4/OEHodFoMOvWe/D90WN2M5qTkxLwztrV+NemT5AxfRb+tekTvLN29Xm7gvtz/n1JTkrAyj//EW+++wGmz7wVNbX1ePm5pZBJpeKtdmzh+3/2HMAtd9+P4KDAQR1noObOuh4RynD8a9Mn571IoiNqVKtRUlyMqOhoBIeEiMtEROQkZN7e6OzshGEYP5ClkYdBMxEREdHwMba3w8vLS7zsMFx0en2neNHZmE0mnDp1Cqnjxzts67mNm5sbPB34HPUGA5760wsAgL/+5QWUV1Thd08uw32L7uoxl5hGl/b2dpwuLoZBr0fs2LGj9kMbGl28PD3h6srPXMmxDOc3ZS61qspKuHt4YMyYMeISOYkOiwWnTp3CxPR0cYmIiIiIBqhRrUZbWxuiY2LEJYfAoLnrhyAXFxcoIyLEJYfj6EEzABz67gc8uWyFcP/yjHT89S8vnLPzN6+gCL97chk02p4XDerP4y8l8evt7lezbzhvx/VoodFocOrUKcTFx0Mul4vLRA6JQTM5otEUNGs0GtTU1CApKUlcIieSdfw40iZO5J+3RERERENUVVUFDw8PhIaGiksOwemDZqPRiNycHExISxsRFyAbCUEzOSetVovTp08jITGRP0jSiMGgmRzRaAqaAeBEVhZSUlMddo4cXXg5p04hPiEBng56dXQiIiKikaKoqAihoaFQKBTikkNw+p+u6+vrERIaOiJCZiJH5uXlhbFxcQztiIjIjsLXF5rWVvEyOREPDw+YzWbxMhERERENkEGvh9RBv/EPZw+aTSYT1A0NDttuTjSSuLq5sVuNiIh6UCgU0Gg04mVyIh4SCUwmk3iZiIiIiAbAaDTC1dXVobMXpw6a6+vrERISwm5mIiIioguEQTNJJBKYGTQTERERDYler4dMJhMvOxSnDZotFgsa6usRHBIiLhERERHRMPHw8ICXlxe0Wq24RE5Cwo5mIiIioiHT63SQeXuLlx2K0wbNDQ0NCAwKgoQX1iMiIiK6oOQKBbTsanZaEokERqNRvExEREREA6DT6eDNoNnxdHZ2nulmDg4Wl4iIiIhomCnkcnY0OzFPT092NBMRERENQWdnJ4NmR6VWq+Ejlzv0VRqJiMgxHfruB2RMn9Xr7dB3P4i3AwDyCoqw6MFHoW5sEpfs2I597Zx5yCsoEpeJRiwfuRzt7e2wWCziEjkBT09PdjQTEf1/9u49vqn6/h/4q01vSXpv09L7jd65aZWpUNSpVPAC6vCCOubEnzfmV6YOhpsMLwwUB/My3MRtTIZOdKIbIihuUkCGVi5Ser/fm6RtkubSJk1+f9Ack9MW2tJCk7yej0ceM5/355ycBOjS93l/3h8ionOg1+shk8ng7T2xU7kT++rGiUqpZDUzERGNypxZl6GocA+KCvfgxnnX4cZ51wnP58y6TDx9RGrq6vHYw/fjP598gOzMdHGYyKUFBQWxfYaH8vLygq+vL5PNRERERKPU3d0NeWCgeHjC8bhEs6arC97e3ggKChKHiIiIzonBaMRDj684a4Xz6rUbhDlbt78HANi6/T28svktvLL5Laxeu2HIefbXcIzZ56O/evrq+bchL78AC+6876xV1ETnSyDbZ3i0gIAAJpqJiIiIRqlbp0MQE80Tj0qlQiSrmYmIaBys3/g6oqMUKCrcg43r1mD1Cy8NaIGxdft7aGtXonDvTmzb8hr+uu0f2H/wMJYsvh2PPXw/bpx3HdasehJbt7+HYyeKsWfnO07z7Ozn2LhuDfYf+AolZRVQqTuwcvVarHn6KRQV7sGMabn41XPrYTAana6B6EIIYqLZo/kHBMBkMomHiYiIiGgYuru7EegCRbMelWg2Go0wGAyIiIgQh4iIiM6JSt2BYyeKcc2VswEAl1w8HZkZk6FUqYU5RpMJXx0pwuUz8yCTSpGdmY45sy9HTV29w5lOq66tx603z0NkRLgwb9+XB4S4/Rw5WRmIi40BAJwqLQcA5GRlAADuvG0Burv1MBiYaKYLTyqVwmq1sqrVQwUw0UxEREQ0KjqdDlKpFBKJRByacDwq0axWqxERGSkeJiIiGjPLV65GXn4B8ucuxNdFxwZNIr+y+S2h7cW/d3+G6lrnOQajEW3tSqex1OREp+cpSc7P7RqbmlGw8C7k5RfgnqXL0NTc4pTsJrqQAoOC0N3dLR4mDxAQEAATV1cQERERjZhOp0NQcLB4eELymESzzWaDWqViNTMREY2boEA5tm15TdgcsKhwD5Ysvl08DRvXrXGas2bVk05xmVSK6CjnNk/iZPRQLs2bgcK9O4Vzc2NBmkiCAgPRzfYZHokVzURERESjo9NqXWavOY9JNHeo1QgKCoK/v7845BH2Hzw8YMMo9C/1XnDnfSPeMMp+3FAbXdntP3gYDz2+gv1BicjtRUaEIy01Ge9+8BHgsCmf489JaUAALp+Zh+07PoTBaBR+lto3+nOUmpyIf368Gyp1B0rKKrD/wFdCW46h5GRloKW1Hd98exzo7wc90p/vROMpMDCQFc0eytfXF/DygtlsFoeIiIiIaAhmsxkmk8llEs1eeoPBJh50R+VlZYiKjkZoaKg45FIkEgn8/fzEw2e1/+BhbHjlDQQHBWLT+mcRGRF+xvGzUak7cP+jT+CJnz2IObMuE4cF+w8exvYdH+J3v/0NZFKpOExupI99N8kFBfj7w9t79Pdc7Tfv7BXJBqMRP//lb/B10TEAwGMP348li29HSVkFXnjp98LP2dVrN+Dfuz8DAGHzP/Qnhqtr64XnjvPs57K/xuJFt2DOrMugUnfg8RXP4Omn/g/ZmekoKavAI8tXQqvrRnBQIP6wcR0rml2Mu9+c/e7ECWRmZcFvFN9nyLVVlJcjetIkBLvI0s9ztbOoEc98cEJ4bgPg5RB3fG7/hWyo52dypvOO9Ln4dS/0c7uhxmn87PnF1YgJ5e9vREQXmlqlglanQ0pKijg0IXlEotlgMKC6qgpTpk4Vh1zOuSSat+/4EIFyOW6eP1dIDq9euwHRikgc+t83QgJk/8HDWL5yNdC/BNueJHZMoFyaNwMtre1CotkxsREfF4u3Xn9ZOJc90QzAKQGzcd2aMyapybUw0Uyu6FwTzUTjwd0TzTXV1QgJDUV4+PBubpP7aGxshK+vL6Kjo8Uht7SzqBF3bz4kHiZyCZUbbmKimYhoAqiurkZISIjLtAL2iERzY2MjvL29ERsbKw65nHNNNE/LzUabUoU1q56ESt2BXz23HosX3YI//WUbNq1/FkqVGo8sX4k1Tz+FSy6ejp//8jeIjlJgzaonsXrtBrS1K/G73/4G33x7HMtXrsbGdWuQk5XhVN0snmdPNK/f+LrT+OoXXmKlnRthoplcERPNNBG5e6K5vb0dPSYTEhIH39CS3JdarYZOq0Wyi1TknCsmmsmVMdHsXp754ATePlgrHiZySQG+3ihZf6N42C3ZbDYcP3YMU6ZOhY+Pjzg8IXnEb9cdajUiWDUDAPjBJRejqroWKnUHTpWWIzpKAUXk93dFlCo1MjMm45KLp0MmlWLxoltw7EQxGpqa0dauxOJFt0AmleKSi6fj0rwZAIBTpeVAf29QALjztgXo7tbDYPj+F2Wj0TTg+MyMyThSdFSYQ0RERO5PLpejW68XD5MHkEqlMLr5jRQioomqXWvigw+3eHgSjUaDwMBAl0kywxMSzZ2dnZDKZPAPCBCHPFJSYjwmRUdBqVJj35cHkJrsXE1UU1fv9FwRGYGgQDmMRhNaWtudYo4am5pRsPAu5OUX4J6ly9DU3AKlSi3EDUaj0/EyqRTRUQrhOREREXkGuVyOHpMJfX194hC5OZlMBpPJBKvVKg4RERERkYimqwshLrbXnPsnmjs62APQgUwmxdTcLPx792eoqq7FzLyLnOIpSc6JZ6VKDV23HlJpAGImRTnFHF2aNwOFe3eiqHAPigr34D+ffODUEkMmlTodbzAa0dauFJ4TERGR55DL5dCzqtkjSWUyGA0G8TARERERiXR1dSGUieaJw2KxQKPRICwsTBzyaClJiXj3g48QGChHUmK8U0wRGYGy8kp88+1xGIxGbN/xIWZMy0VCXCwun5mH7Ts+hMFoxDffHhc29cvJykBLazu++fY4AGDr9vew4M77oFJ3COeVSgMQHaVwOr6svHJAopuIiIjcHxPNnksmk8HARDMRERHRGXV1dkIul8PX11ccmtDcOtHc2dGBsPBwbvQkkpOVgfj+xLFM6rzBQ3ZmOtY8/RSWr1yN/LkLAQArlj8KAFh0y00AgPy5C7F9x4e4es4sAEBkRDjWrVmF1S+8hLz8Avx12z+wbs0qREY4V5Lbz5M/dyGWr1yNNU8/xY0AiYiIPJCMiWaPJZPJoGeimYiIiOiMOjs7EeqChbNeeoPBJh50F+VlZYieNAkhISHikMuSSCTw9/MTDxNdcH1WK3p6esTDRBNagL8/b0bShGPwgM3SzGYzSk6dwrTp08UhcnNGoxE11dXIyc0Vh9zOzqJG3L35kHiYyCVUbrgJMaHORUnkup754ARe3l0qHiZySYkRMpSsv1E87Fb6+vpw/NgxTJ8xAxKJRBye0Nz2t+uenh6YTCa3SjITERERuQNfX19IJBKYTJ61czgBUqkUvWYzLBaLOEREREREDh0aXC3JDHdONHd1drI3MxEREdEExV69nos9uomIiIiG1tHRgfBw53a0rsJ9E80uuDMjERERkaeQyWQwMNnokZhoJiIiIhqcwWBAr9nssh0a3DLR3GMyobe3F0HBweIQEREREU0AMrmcFc0eKlAuh767WzxMRERE5PE61GpEuGg1M9w10dyl0SCE1cxEREREExZbZ3gueWAguploJiIiInJis9mgVqsREREhDrkMt0w0a7q6EOqiJeZERHT+WK1WWCwWPviYUA9PIZFI4OfnB5PRKA6Rm5NIJJBKpUw2ExERETlQqVQIDg6Gn7+/OOQyvPQGg0086MrMvb04deoUps+YIQ65BYlEAn8/P/Ew0QXXZ7Wip6dHPExERDSkmupqhISGuuxmJzR6jY2N8PHxwaRJk8Qht7GzqBF3bz4kHj6re2en4fX7foCgAF9xCKeaupD7i4/Ewx7th7kx+NvDsxEXJhOHoDOZ8ehf/oe3D1SJQ2PC/mf13uFaLH1z5H/W56r4xQUAMC5/Jyo33ISYUKl4mFzUMx+cwMu7S8XDRC4pMUKGkvU3iofdQmlJCWLj4hDswq2A3a6iWaPRuGzDbCIiIiJPIpXJYGT7DI8UGBiIbp1OPEz9esxWPPfhcXjdvVV4/HjzASREyPH5qrni6QTgrf9WOH1eXndvRfD928ctyQwAbx+oQvD92y9Ikhn9CebxSDITEdH5p9FoAC8vl04ywx0rmquqqhAeFoYwN62MYUUzTVSsaCYiopHSajRoa29Henq6OERurq+vD9+dOIEZF10kDrmNc6lo/t09l2Lz56V45v1jTrHPV81FVmwIfrz5AL4obhlQ/exY8fz5qrlCRWpO3On9a976b4WQFB2sEnhfcQuuXbsX6K+W7dL34pLUSADA+n99h9gwGe6/6vt/r+KK4c9XzcU1uTEAgF6LFev/9Z3wHopfXCBcBwapznY8VnzeM7G/j0+PNw2Z8B3qc7NXIhe/uAAmcx/SJwULn6XjZzXU5yw+j/21Bnsf9j/X8hYNrsiIGhAHgC0PXDHk5/v5qrkIk/sJ1/jWfytweboCcKhoHuq1R4MVze7lXCuaz/R3czjsP48u1I2R8az+p/PPXSuaqyorERoaiojI0/+/66rcqqLZZrNBq9EgmBXNRERERBMeK5o9l71Ps45VzaPmmOT0unsrrlm7FyEyP6eK55y4ULR0GeF191Y89+Fx3Ds7DVseuEJIzmoMvUL1777iFuRnRuPZH33fgnBqYhiWvnkI/kveRmyYDPfOThMqrX+8+QAAYOXNU4D+RNTMtEj8ePMBeN29FW8fqMLj83Jw7+w0FL+4ACEyP1yzdi+87t6Kt/5bgZy4UGx54AqgPwnleOyRKhVev+8HuHd2mnAt421KfBg27T4lfBa3X5aMe2en4Ye5MfjtnRfjSJVqyM/Z7mzvw9/XG0mKQFyzdi+uWbsXWqPZ6fM70+cL0TWKk+pne22i0Sp+cQFuvyxZ+Ltl//u15YErnH5eTGSs/qeJTq/Xw2g0unySGe6WaNZqNAgMDIREIhGHiIiIiGiC8fX1hZeXF3p7e8Uh8gBBwcFMNI/AvbPTMDMtEqXNGnxR3IIlc9LQoNYLCccvilvw5/9WYHpiuJBcbOo0YO1H3wEAnnn/GCrbtLg8XYEvilsQv2yHU+LlUHk7eix9wnMAaFDrhYpFe8LZXqH89oEqNKj1QH9V8fXT43CkSuU03966IvcXHyF+2Q58UdwCAPiypA06kxlweF/vHa4Vjl370XfQGs1YMmf4SdL7r0qH7e9LhEfP1ntHlASrbNMK7+1QeTsAIH1SEBZfkYJgqS+27j99bfbPzl75bTfc9/Hp8SZ8UdyCL4pbUNqsQYjMDz/MjTnj52un1Jnw35I2pzGM4LWJRmrLA1cgIUI+oHr52rV7UdmmxW0zk4Sx4hcXOP0btFcR2yvtc+JC0fjaIvywv+r+81Vzh/z3+uyPZqBn672w/X0JtG8tRtELNzode+/sNGjfWiwc73jj5/NVc1H0wo1CfMsDV6D4xQXC9eAM10p0oSjb26GIOr3axdW5V6JZq2U1MxEREZELkUqlMBmN4mHyAEFBQdBpteJh6q98/fUt050SIX97eDaOVKmEBGdMqBQ5caFOc359y3T4+37/K57G0CskdwGgpcsoJDbt7AmXX98yHf4+Zy/YcUwA2VthxIXJECz1Ra2yWzzdiT2x9LeHZwttKNInBQEAmju/X93wRXELNIaR3YAS92h2TNqei2RFILRGM5ocrm8wY/U+Bvt8z2asXptI7PJ0hdMNJ0eOVcJnWrVw7dq92FfcglNNXcINJ3s7G/t8xxUQ985Ow+PzclBY1gavu7di0+5TmBIfJrzuvf2rOeyrDH68+QBmpkU6JZvPVP1/pmsluhCMRiO0Wi2imGieeLRarcs3zSYiIiLyJAFSKYxMNHukoKAgmEwmmM2nK1vpe+LNAE81dUFnMgtVtXanmrqckqteI9gAz55gtidcnvvw+ICKZkf2BOivb5mOtw9UCdc1HPYEs721w483HxAqmum0c/l8icbDD3NjECLzQ0vX2f8/+kyrFsTunZ2G6Ynh+PN/K4T5S988hAa1HkvmpOHK7GhojeYBqzHslsxJc4q/faAK7x2uxcy0SGE1x1DV/xjhtRKdD+1tbYiKjoaXl5c45JLcJtFsMplgs9kglXLDAiIiIiJXIQ0IgNFkEg+ThwgKDmZV8zD8bOsRaI1m/PbOi4Vq5MGqk8XE8ZhQKTSGXsSFyRAVLMVzHx53SricyRUZUahs0w5aIdjUaYDWaEayItBpHP3JqqzYELz134pBk+AVrafbp8Q6bEpoT3BNBLXKbgRLfZ02TRzMub6PM32+Z3Our000VgZbtSCWPikIwVLfAas27BX8yYrAQVdj2Nl/jjnGmzsN6DFbhefDMZxrJRpvBoMBGo0G0dHR4pDLcptEs06rRRCrmYmIiIhcSgBbZ3i04OBgaJloPqsv+vsvK4IC8OqSmQCArfurECz1xaoFU4V5n6+a69THNC5MhsVXpAD9FbMJEXJ8cKQO6G/PYU9M2peqn611hmPi+vNVc4XE0BfFLfj0eJNTReGzP5oB7VuL8ZP+HsH2JLR9cz17YuftA1U4UqUSNt8DgFULpjr1RT5XtcpuKIICcFX26V/kl8xJG3ZiafuhmgG9jsX9XjFG72Ooz/dsxuK1icTs7VdiQs9ezDfSVQs9lj6nVRv2h7j3+XgY6bUSjae2tjZEu1E1M9wq0azTITjodG8qGmj/wcPIyy/A6rUbnMZV6g4suPM+LLjzPqjUHU4xIiIiovEmlUphYkWzxwoODoZGoxEP0yCeef8Y3j5QhZy4UHy+ai7ePlCFTbtPIT8zWqgIzIoNwY83HxAq/VS6HizISxR6ML93uFY4z3uHa4UN9LY8cAXeO1yLHksfrsgYvEekfZn6vv4kTUyoFPuKW5AQIce9s9Ow9M1DOFKlwt8enu30ej/efAB//m+FcJ37Vs1FYWkbmjoNuDxdAfRvLOZ47My0yAGbj52LpW8eQmWbVqiglPpKztpz2e6L4hb88t1vMTMtUvicQ2R++NnWI+Kp5/Q+zvb5ns25vDbRUL6qUA75d9B+Y+uJG3LPuGpBbLAKfEe1yu5BV2PYDbaaIzZM5tSffihnW2FBdD51d3dD392N6EmTxCGX5qU3GGziQVd0/Ngx5Obmwsd3eHemXZVEIoG/38iXQO0/eBgbXnkDwUGB2LT+WURGhJ9xnGik+qxW9PT0iIeJiIjOqvjkSUxOT4e/v784RB6grLQUsbGxbrc6cWdRI+7ePLIWCGPJvtmWY+KZaLgqN9w0rEpWcg3PfHACL+8uFQ8PS/GLC5AQIXe6cfH5qrm4JjcGb/23AtsP1eBvD89GabMG167dix/mxuBvD89GXJgMb/23AkvfPITPV81FTKhU2Dzw81VznW6G2Df4e+9wLb4saRM2+7t27V48+6MZWHHTVCh1Jvx48wHEhcmc4o6bA167du+gP/vsKxB+tvXIWa+VJr7ECBlK1t8oHnY5lRUVCA0NRaTi9E1Xd3H2Wz4uQN/dDX9/f7dPMp+r2JhoTIqOwqnScmFs35cHcP21VznN27r9PeTlFyAvvwBXz78NJWUVMBiNeOjxFbj7/keRl1+A/QcPAwBWr90gzLWP2auk7ePiKmoiIiIiRwEBAWyf4cFCQkJY1UxENEHl/uIjp2p5x7YTS988JLT2OdOqhUPl7ZgcHQztW4tx7+w0XLt2LxrUeuGcf3t4Nt47XIulbx4asFrj8Xk5ONnYKfRlfvtAFR79y/+EVQZ/e3i2kGQ+m+FcK9H50NXZCYvF4nZJZrhLRXNrayssFgvi4+PFIbdzLhXN23d8iGm52WhTqrBm1ZNQqTvwq+fWY/GiW/Cnv2zDpvXP4lRpOV5+9Y946/WXERkRLiSJVyx/FD//5W8QHaXAmlVPAv0J6eraeqxZ9SRKyirwwku/x2/XrMILL/0el8/Mw5LFt6OkrAIrnnkB6599GtmZ6aKrInfCimYiIhqtpsZG+Pj4uN3SQRoeo9GI6qoq5E6ZIg65NFY0nzvHasOhsApxfLCi2b2cS0XzRCCuiCbP5g4VzSWnTiE2NhYhocPrxe9K3KKiuVunQ2DgwB2OaaAfXHIxqqproVJ34FRpOaKjFFBERgjxObMuw0fv/kVooZGanOhw9PfPDUYjvjpShGuunA0AyM5Mx7YtryEhLhZvbFqPJYtvBwAoIiMQHMQ/GyIiIhqaf0AA+zR7MKlUCm9vb+j1enGIzsG1a/ciftkOl00yo7/6MH7ZjgEbhjk+mGQmci9bHrhCqHxG/2alM9Mi8VWFUjyVyCW1tbXB39/fLZPMcJtEc3c3grgR4LAkJcZjUnQUlCo19n15YEAi2d4iw9724pXNbznFU5L6E80GI1pa251idvaNB/PyC1Cw8C40Nbvul1siIiIafwEBATBxVYxHCwkNRVdXl3iYiIg8zNI3Dw3ZVoPI1ZnNZrQ0NyMmNlYcchsun2jWd3cjICAAEolEHKJByGRSTM3Nwr93f4aq6lrMzLvIKb7jw38BAAr37kRR4R489vD9TnE7mUyKmEkDd6RWqTvw8qt/xMZ1a1BUuAd7dr6DuNjvd4MlIiIiEgsICEAPK5o9WmhoKLo6O8XDRETkgXJ/8RFXLpBbam5qQlR0NKRS921N5PKJ5m69HnK2zRiRlKREvPvBRwgMlCMpcei+1ip1B/758W7xMABAJpUiOkqBfV8eAACUlFXg5jt+goqqGqd5u/Z8zopmIiIiOiMfHx8AgMViEYfIQ8hkMnh7e6O7u1scIiIiInJ5Go0Ger0esW5czQx3SDTru7vZn3mEcrIyEB8Xi8tn5kEmuotyQ8G1aGltR/7chbj/0Sdw750/Qlu7EkbjwCqjFcsfRVu7Enn5Bbhn6TI8+dhDuHxmHm69eR6Wr1yNvPwC6PUGZGZMhlKlFh9OREREJPD392efZg8XGhbGqmYiIiJyS02NjYiNixMPux0vvcFgEw+6ku9OnEBmVhb8/PzEIbckkUjg7yHvlVxLn9WKHvbXJCKiUaqtqUFQcDAiIr7fpJg8i8lkQkV5OaZOmyYOuaSdRY24ezOXe5NrqtxwE2JC3Xdpt6d55oMTeHl3qXiYyCUlRshQsv5G8fCE1tTYCIvFgqTkZHHI7bh0RbPJZIK3t7fHJJmJiIiI3JV/QABvWHq4gIAA+Pv7Q6PRiENERERELkmn06GjowNx8UO3rnUnLp1o1uv1kMnl4mEiIiIicjH+/v5MNBPCwsPR0dEhHiYiIiJySY0NDYiLjxf2JHF3Lp1oNuj1kDPRTEREROTymGgmAAgPD0dnRwc3hiQiIiKX19DQALlcjvDwcHHIbbl0ollvMEAuk4mHiYiIiMjF+Pv7o5eJZo8nkUgQHhHBqmYiIiJyaZ0dHdBptYhPSBCH3JrLJpptNhsMbJ1BRERE5BZ8fHxgs9nQ19cnDpGHCQ8PR4daLR4mIiIicgk9PT2or69HQmIivL1dNvU6Ki77bg0GA2QyGby8vMQhIiIiInJBfn5+bJ9BCA4OhtVmQ3d3tzhERERENOHV19VhUkwMgoKCxCG356U3GGziQVegVCphNBiQmJQkDrk1iUQCfz8/8TDRBddntTI5QERE56S6qgrhEREIDQ0Vh8jDtLW1wWQ0Iik5WRxyGapuMyaFcfUluaaWDh0UQf7iYXJRz3xwAi/vLhUPE7mkxAgZStbfKB6eMBoaGtBnsSA5JUUc8ggum2iuq6uDXCZDpEIhDrk1JpppomKimYiIzlVjQwP8/PwQFR0tDpGHsVgsOHH8OKZNn+6yu7Tzezu5MqPJBJvNJVMFNAgmmsmdTOREs7K9HWq1GplZWR7bgcFlE82lJSVISEyE3MN6NPMLK01UTDQTEdG5am9rQ29vr8dtmkKDq6+rg5+/PyZNmiQOuQR+bydXxkSzezFbvRAo5c8jcg82G9DbO/FyDxqNBrU1NcjIzIRUKhWHPYZLJpptNhuOfvstLrr4Yo+7Q8AvrDRRMdFMRETnqqurCx1qNVLT0sQh8kB6vR61NTXInTJFHHIJ/N5OroyJZvfi6+sLXxddHUIkZrPZYDSZxMMXlMFgQEV5OZJTUhASEiIOexSX3AzQaDRCKpV6XJKZiIiIyJ35+fqit7dXPEweSi6Xw8/fHx0dHeIQERER0YTQ29uLmupqxMXHe3ySGa6eaCYiIiIi9+Hr58dEMzlRREZCpVSKh4mIiIguOIvFguqqKkRGRiIyMlIc9khMNBMRERHRhODr64u+vj4u1yZBaFgY+vr6oNPpxCEiIiKiC6avrw/VVVUIDglBtIvuJzEeXDLRbGKimYiIiMgt+bJ9BokoFAoo29vFw0REREQXRF9fH6oqKyEPDERsbKw47NFcMtFsNBoRwEQzERERkdvx9fOD2WwWD5MHi1QoYDAYYNDrxSEiIiKi88psNqOyogKBgYGIi4sThz2eyyWaLRYLrFYr/LiD86gYjEY89PgKrF67QRwiIiIiuuB8fX2ZaKYBFFFRaHexqmaTySQeIiIiIhdmMplQUV6OkJAQxDLJPCiXSzSbTCZWM5+Db749DgBoa1dCpeYO3kRERDSx+Pr6wsJEM4lERUVBq9XCaDCIQxNSS3Mz2tvaxMNERETkonRaLcrLyqBQKDApJkYcpn6umWgOCBAP0zDt+/IAFi+6BdFRCuza87kwvv/gYdyzdBnuWboMefkFuHr+bSgpqwAcqqDz8guQl1+A/QcPO5yRiIiIaOz4+viwopkG8PLyQnR0NNpcJHmr0WrFQ0REROSiVEolqqqqkJiYCEVUlDhMDpho9iAqdQfa2pXIycrAnbctwHfFpTAYjUK8pKwC/+++e1C4dycyMybj3Q8+AgCs3/g6AKBw705sXLcGq194SUhCExEREY0lH19fmC0W8TARoqKjodPpYJjgVc11tbXwAhAcHCwOjcjqtRuEQo+8/AJs3f6eeMqwbN3+nlBEUlJWgavn3zbqcw2H/TUcrz0vvwAPPb7C6XcPTzHU57F1+3tQqTuw4M77nNoa2ucvuPM+rkAlIpoAGurroVKpkJGZidCwMHGYRJho9iCnSssRHaVAZEQ4khLjAQB19Y1CPD4uFjlZGZBJpbh8Zh7QX83c1q7E4kW3QCaV4pKLpyMzYzKOFB0VjiMiIiIaK2ydQUOxVzW3traKQxOCxWJBZcXpYozMrKxR/zJqX0147EQx9ux8B0WFe7Bty2v467Z/nPM+K9mZ6fjPJx9gyeLbxaEx99jD96OocI9w/WXlldjx4b/E0zyG4+dRVLhn0D+DkrIKPLJ8JQBg3ZpViIwIF08hIprQenvNaG5Voa6xBRpdN6xWm3jKuKmrrYVarRYPj5q+uxulJSWw2mzIzMqCTCYTT6FBuFyiucdkQoC/v3iYhmHflwfw792fIS+/APlzF+I/+w86JYxjJkVBJnPuf20wGNHS+v3GKzKpFNFRCqc5RERERGPFx8cHFlY00xCioqNhNBig0+nEoQvKaDSivKwMMrkcScnJ4vCIfPPtcXxddAxP/OxBIdFoTxCvWfWkMM+x4llcLWyPXT3/NnxXXCqMiyuaHattH3p8xZDVtfbXGW0LPUVkBIKDg1FdWw/0r7RccOd9A85rf70nn37W6brs7018PeL3YT/OfozjZ+RYISxuDej4nrduf08Yd2wnONjrj/bzGIxK3YGVq9cCAP6wcR2yM9PFU4guiKZOA5L/73143b0VXndvRegD7+BIlUo87ax0JjPyn92N/Gd3Q2cy459f18Hr7q3459d14qlj6lyu/59f1+H5nSfEw+NqLD6X53eeEN6v/ZH8f++jqfP0iqDnd54Y8Dksfn0/vO7eek7vV92pQVlVHeoam1Hf2IryqnqUVNRA1z2xVyINprmpCZWVlVBERSEpKQleXl7iKTQEl0o022w29Pb2wp8VzSNWUlaBo8dPYtuW15wqCz77Yv8Zl2TJZFLETPq+/4y9wpmIiIhoPDDRTGczKSYGrS0t4uELRqPRoLysDFFRUYiNjRXGTSaT07zh2vflAWGl4VBWr90gVDzv2fkOWlrbhXZ3+w8exr93f4bHHr4fuz7Yhm69Xnw40P+9/vebtyA4OBh7dr6DxYtuQWNTsxC3V9f+5J47UFS4B489fP+oW+gpVWpotVqkJifCYDTiV8+tR8ykKBTu3Tnoebv1euz6YBs2rluDr4uOYceH/xKud83TT6GocA9unHcd/rrtH4Me98am9fjm2+Noa1eicO9ObNvyGrRaLV7945+BQVoD/nv3Z9h/8DBKyirw2Rf7hc81ODgYv9+8BQajcUw/DzG93oBfPbcejU3NWPP0U0wy04RxpEqF3F98hCsyomD7+xLY/r4ET96Qix88s+ucEqEAcOulSbD9fQluvTRJHBoz53L9R6pU+OmfDomHx91YfS4hMj/879kbYPv7Evzv2RvQZTDjqe3fiKcB/Unmdw7V4K4rUvCrhdPE4WHp7NKisbkNXRodLJY+AIDJ1IOOTg1qG5rR09MrPmRCUqvVKD55EmazGTm5uYiIiBBPobNwqURzT08P/FnNPCpHio4iNiZaaJmB/soCXbcep0rLneY6slcwb9/xIQxGI7759jjKyisxM+8i8VQiIiKic8ZEM51NREQEbDYbOjqGLpYYLpvNBovFgp6eHhiNRuj1euh0Omg1GnR1daGzsxOdHR3o6OhAY0MDOvr/2/6oq6tDTXU1IiMj4S2RCOPVVVVoH6eNC1XqDhw7UYwZ03IRGRGOyIhw3HrzPOw/8BVKyiqERPUNBdc6tcQTq6tvRFl5pXCenKwMxMd9nyi3r3y0f++/oeBaBAcHC/u4nM0rm98SKn/vWboMP7nnDixZfLvwupfPzINMKhXOr1R9v9zZHrvk4um4NG8GvjpSBAB4Y9N6KCIjcPX82/Dv3Z8J88XHAcCcWZfhjU3rsX7j67hn6TJodd2Aw+dnnztn1mUoKtyDObMuQ3ZmOrZteQ279nyOgoV3OSXex/LzEPdf/s/+g/i66BgACL93EU0Emz49hVCZL15afIkw9quF0wYkQu3VsF53bxUqliGqJp71m93QGL5vjSWu3D1SpULoA+8I50j+v/ex+PX9wnzHKl3H6twzGc71O76uvaK3qdOA21/5LzSGXvx6x1HhOhyvYaj3OW3lx5i28mOnuPg17O/ZXuVtPyb0gXew/l8nh/xc7Nc3UjPTIjF/RhwOlbcP+Nye33lCSDJvf3SOU2wkOjU6aHXf39j09/eHr68v0L9Svry6Ht+dqhzkUTEhKp5VKhVKTp1Ch1qNxMREJCUnC9dPI8NEswcwGI346kiR0xcvAIiMCMeMabnYvuND9PQOfXdpxfJHAQD5cxdi+crVvMtORERE40YikcBqtcJmO389/cj1TIqJQUvz90lAR319fTAZjdBqtVCr1WhtaUFDQwNqqqtRUV6OklOn8N2JEzh29CiOHT2KU8XFqKyoQG1NDRobGtDa0oJ2pRIdajW6OjvRpdFAq9HAYDBA2//f9odOq4W3tzd6enqcxg0GA6xWq/jSxoRjdfBYGOo81bX1CA4OhiJydNVcjz18Pwr37sSleTMAAClJp19HqVJDq+sWEq/2JHBN3em2GkNRd3RiwZ334ZHlK/GHjevw2MP3i6c4sbfAAIA9O98Rkuj2z28w+w8eRl5+Ab46UoQ9O98Rrh1j9HnYV5Z+9O5fBvRf3rhuDR57+H6hgpvoQmvqNOBQeTuuyIhCXNjQvWkXv74fh8rb0fjaIjS+tggNaj0efOsrAMBT279Bl8GM/z17A7Y8cAXq1YOvsNCZzHji718jVOaLxtcWYfm8HNSpvp/7/M4T2LCrGP979gZo31qMhAg57nz1SyGRO5jhXL/9df/8/66A7e9LcNcVKdiwqxhNHQa899hVCJH54blFF2H7o3Pwz6/r8OsdR/HB41eN6H0eqVJh7rrP8OQNubD9fQmeW3QRfvqnQ05tK+rVemx54Ap0vXkX0icFCeNDXd9wW3+czftHTr+n2ZlR+OP9l4vDI2K/mQcA4eEhuHhqBuSy0/m7XrMFXRodurQDH92Gkd9Ys1qtY7IxsFarRUN9PU4cPw6NRoO4uDikZ2Qg6Bw38/V0Lpdo9mOiecRkUine2LR+0A0n1qx6Em9sWo/rrp6DNzatFxLRSxbfLvSAsx9v/2I0Z9ZlorMQERERjR0Jq5rpLKRSKfz9/VFVWYmmpiZUV1ejtKQEJ44fx3cnTqC6uhrtbW3o1ulgtVrh7++P0LAwTIqJQXJKCrKyszFt+nRcdPHFmDZ9OnKnTEF2Tg4ys7KQnpGByZMnIzUtDSmpqUhJSUFySgoyMjOR3P/f9seUqVOhUChgMpkQFR0tjKdnZCBslJsBXnPlbDQ2NQ+56lDc73gwWq3WqUL4TIY6T2py4ojOMxiZVIr/e3gpgoMC8fKrf4RK3XH6+oMCh7U5nqPS8spht5awF9pcmjdDKJqxO9PnZ68Gf/7XKwbsXTMWn8dQbpx3HebMugw3FFyL+LjYAS1BiCYqcTI3LkyGpVdn4JNjTdh1tBGHytsxf0YcZqZFIjsuBFMTQsWnAACUNGnwXUOXcJ4fTFYgKVIO9Cdb95xowtSEUGTHhSAowBfL5+XgQFk7Pvtu8BuOwxUU4IvCZ+YhPlyO0AfewTuHasRTBO8fqUNSpBw/mKxAXJgMV2REoUGtR1mLBofK24XrE7/Pvf3XOHfq6Ztd9105GaEyX2z69JQwx36s2Eiu70yOVKnwybEmp6S7xtCLl/59EgDG5LP08fH5/onVBo1OB4v5dAuNMxlNXYHFYkFVZSWam5uhVCqFh8lkgk6ncxpzfLS2tKC+vh7lZWU4+u23aG1pga+fHzKzspCWlobgkIF/BjRyLpVo7u3pgb+fn3iYiIiIiNyIj0SCvr6z/3JC7s9isUCn06G9vR31dXUoLyvDiePHUXLqFCwWCzQaDWw2G8LCwpCYmIic3FzMuOgi5OTmYnJ6OpKSkxEbF4eoqCiEhYUhKCgIUqkUvr6+8PYem1+FYmJjERUdjfLycmg0GqB/yXBI6OAJlbOxt4uwJ2bhsAnd6rUbhFWJx04UQ6XugErdgX9+vBtzZl+O7Mx0XHPlbGh13ThSdFRIuA4mKTEemRmThfPs2vO5U6sIe4sIe8uIXXs+h1arxZ23LRDmDEd2ZjrmzL4cjU3N2LXnc+F1vzpSBIPRiK3b3xuw6d4/P94NlbpD2Bjx8pl5iI+NQXBQIGrq6oX3PBR7+7+W1nYYDEan9yb+/Oyf7dbt7zklk+2vbTdWn8eZREaE44mfPQitrnvYLTmILqSmDgO6DGbkxI3u553YYOfRGs1oUOuRECFHUMDYtjKwt7yYu+4z7F15HZ5bNHiLUJ3p9DXUqfSIX7YDXndvxTuHatCg1qPbdPrG+FDXd6qpC6EyX8SFD15VfSbDvb7BaAy9+MEzu+B191b84JldmJoQOqBqeXZmFEpeWoikSDl+vu3rAW01RiLA3w++PhIAQEeXFhVVjUK1sq+PD8JCghATHYmgwNM3EOzHRISFwNfXIUk9TFarFSajEUaHR19fH3p7e53G7A+T0Qir1QqpVIqY2FhMmz4dGZmZmDRpEjsnjLGx+XZ1nvT09rKimYiIiMjNSSQS9LGi2eNYLBZotVq0traiuqoKxSdPovjkSbQ0N6PHZIJUJkNsbCxycnMxbfp0ZGVnIy4+Hj09PQgLC4NMLneuqDqPIiMjkZKSgtqaGqiU57Zxtn014YxpuShYeJfQXmLO7MuFFYdrVj0pxAsW3oUZ03KF2JxZl+Gxh+/HK5vfwg233YNA+fe/1DuyVxtrtVoULLwLXx0pcurRnJ2Zjj9sXIe/bvsH8vIL8Ndt/8AfNq47azXxYH724E+FSt26+kY8/+sVaGltR/7chXhl81sDqpRnX3Yp7n/0CSxfuRo3zrsOSxbfLiSsX9n8FgoW3oVAuQxaXfeQFcZ33rZAeG9/3fYPxMXGoK1dCYPRiBXLH0XMpCgULLxL+GyXLL5d6Lt8z9JlWP3CS4iLjRGS1WP5eZyJ/UaDfYNCogvFXrU7WF9fu7hwGUJlvjjV1CUOCRrU+jO2uHA02HmCpb5IiJCP6DwY5vX/r1KJOpUef/5/V2BmWqQ4LAgKOH0NSZFyNL62SNhYsPb3P8Kk0NOrH4a6vpy4UHQZzGjqGPwazmS41zcYx80AbX9fgsJn5jklwkNkfnj57kuRFRuCpVdnoE6lH3KzwOFQhIciICAAfv1JY7PD97iQ4EBkZ6ZickoCIiO+v5kgkUiQkZaIAP+RFZRKJBIkJScjNS0NiYmJwkMulyMiIsJpzP5ISExEbFwcFAoFgoKCIJGcTorT2PPSGwyjKFS/MEpKSpCUlASZbOR3gtyFRCJhVTdNSH1WK3p6esTDREREI1ZZWYkohYJLGN2cffM9fXc39Ho9es1myGUyyGQyyORySKVSBAQEiA8boKysDJEREYiIHNkv4ePBaDSiproaoWFhUCgUCJnAfR4NRiN+/svfAAB+99vfoK6+EY8sXyls2nchlJRVXPBroNOMJhN75bsRX19f+I7iRpy9v/D8GXHCRnHP7zwh9Cq+9dIkoUfzwd/MBwDM+s0nuCIjCtsfnYPFr+/HJ8easHfldQCAues+w9SEUHzyi2vx2XfNuG3Tf/HB41fhuqmxmP/i52hQ63HwN/Pxly8r8esdR4UN6uw9mveuvA7ZcSGY/+LnAIBPfnHtoFXEdme7/vhwudA/+b4rJ2PWbz5Bl8HsdL1P3pCLXy2chn9+XSdc7w8mK4Z8n40dety26b+YnRmFT35xLUqaNE7nOdt7cXydM13fmRLPjq8x2DxxXGcyY/6Ln+O7hq4hjxkOo9GEhpZ2dHWd3r/A398PgXIp4iZFwc/v9J9TfXMbWlqU8JZ4wUfigxlTMuDl5SU+1RnZbDYYTSbxMOpqaxEYFISIiNH10qex4VIVzebeXvgxyUpERETk1iRsneGWDAYD2tvbUV1VhRPHj6O6qgr67m7I5XKkpKZixowZSM/IQFx8PMLCwoaVZAaAuLg4NDY2wmweWEl2vkmlUmRkZqKzowNtra3i8IQik0qxeNEt+LroGPLnLsQ9S5chM2MyFt1yk3iqE3uribz8ggGPhx5fAYNx5Bs7uTJ+HuTOZqZFovjFBThU3g6vu7fC6+6tTklmANj+6BxckRGF+GU7EL9sh5B8BYA/3n85piaE4gfP7MLSNw8hMWLwFRZBAb54+e5L0WUwI37ZDuw50ST0aAaAXy2chidvyMUPntmF4Pu3A8NIMmMY1z8zLRLzZ8Th1zuOIn7ZDgRJfaEx9KKxQy/0Wv71jqPIf3Y3rpsai+cWXYTbNv0X8ct2ICFCLrSieGnxJQiV+eIHz+zCbz44jqkJ3/fon5kWib0rr8OGXcXwunvrGRPAYme6vrFk73utMfTiib9/PWhl9nBIpQHISE1EeloSUhLjkNH/v/YkMwDERSswJSsNOempyEhNHHGSmSY+l6lo7uvrw3cnTmDGRcPvSeOOWNFMExUrmomIaKzU19dDJpUiUqEQh8iF9Pb2QqvVolung06ng0QiQWBQEAIDAxEYGDimBSTN/e01UlJTxaELoqa6Gr6+vsjIyBCHiFwCK5rdy2grms8Xe0Ut+hPI4irgie5MVd009ljRPLG5TKLZZDKhuqoKObm54pBHYaKZJiommomIaKw0NTbCx9cX0dHR4hBNcDqdDlqNBlqtFmaLBcFBQQgKCkJQcPCYJpYHU1ZaioiIiAlxg6KnpwdmsxlRE+BaiEaDiWb3MtETzQCElhF29tYTZ6paFh/jyN5243ywt+jQGHoBAEmRchz8zXzEhY1P29eJ8r4vFCaaJzaXSTTrdDq0trQg3cOrAphopomKiWYiIhorLS0tgM2GmNjvNyajiamvrw8ajQZajQYajQYBAQEIDglBcHAw5ENsQjdeDAYDykpLkZWdDan09OZMFxK/t5MrY6LZvbhCoplouIZKNNtbaPn6Dn1zgsafy/RoNpvN/MtCRERE5AEk3t7os1rFwzRBWMxmqFQqVFVW4sTx4+jq7ERgUBBycnORmZWFmJiY855kBgCZTIb4+HjU19eLQ0REROTmfH19mTecAJhoJiIiIqIJxVsigZWbAU4oFosFKpUKlRUVOHnyJLp1OoRHRGD6jBlITUtDZGTkhPiuroiKQoC/PxoaGsQhIiIiIhpnLpNotpjN8JkAX16JiIiIaHx5e3vDyormC85ms6GjowPVVVX47sQJ6HQ6RERGYvqMGUhOSUFYWBi8vSferxOJSUnQd3dDqVSKQ0REREQ0jibeN8MhmC0W9hQiIiIi8gBMNF9YOp0OdXV1OH7sGDo7OhASGorpM2YgpT+57OXlJT5kQvHy8kJScjKaGhuh1WrFYSIiIiIaJy6TaLaYzfBhopmIiIjI7Xl7eTHRfJ719vSgtaUFp4qL0dTYiICAAOROmYK0yZMRERExISuXz0QqlSI5JQW1NTUwDbJhEBERERGNPZf5xmixWJhoJiIiIvIAXt7esNls4mEaB12dnaiqqkJJSQnMFguSkpORlZ2N6OjoCdFz+VyEhoZiUkwMaqqrYbFYxGEiIiIiGmMuk2ju6+uDhIlmIiIiIrfH1hnjq7e3Fy0tLTj53XdQKpUI7W+NkZCQALlcLp7u0qKiohAaGorqqirevCAiIiIaZy6TaGZFMxEREZFn8PLyYlJwHOh0OtTU1OBUcTEsFgtS09KQnpGBiIgI8VS3EhMbC5lcjsrKSv69IiIiIhpHLpNo7uvrg0QiEQ/TMJWUVeDq+bchL79AeFw9/zaUlFWIpw6gUnfgnqXLhjX3bAxGIx56fAVWr90gDo1YSVkF7lm6DCp1hzgk2H/wMB56fAUMRqM4RERERBMUE81jS61Soay0FI0NDQiUyzFt+nQkJCRAJpOJp7qt+Ph4SKVSVFZUoK+vTxweF+wNTURERJ7GJRLNfRYLk8xjICgoCNu2vIaiwj0oKtyDNU8/hUeWrxyTBPJwffPtcQBAW7vyjAni4cjOTMe2La8hMiJcHBLMmXUZ3ti0HjKpVBwiIiKiCYqJ5nNnsVjQ0tKC706cQJdGg0kxMcjOyYEiKsrlNvYbK/Hx8ZDL5agoL0dPT484PKZampvR3tYmHiYiIiJyay7xLbPPamWieRzMmXUZ5sy+HO9+8BHQX7m84M77hIrn1Ws3wGA04lfPrUdJWYWQlB5s3nDt+/IAFi+6BdFRCuza87lTbOv294RK6z+8+Vc89PgKqDs68dDjK7D/4GFAVF3tWNFsr5S2X9PW7e8Bg1Q021/DcY74WMf5jpXgC+6875yT40RERHR2TDSPnslkQkNDA04cPw6z2YzJkycjLS0NISEh4qkeKTYuDuHh4SgrLYVWqxWHx4xmHM9NRERENFG5RqKZbTPGzTVXzkZbuxLqjk786rn1uPXmeSgq3INtW17D0eMnUVffiOd/vQLZmen4w8Z1SEqMH3TecKqiVeoOtLUrkZOVgTtvW4DvikudEroffPQJtm15Dbs+2IYTxSXiw89ox4f/QnSUAkWFe7Bn5zv46kjRgKTw/oOH8dWRIhTu3Yk9O9/BZ1/sR0lZBdZvfN3p2JbWdnzz7XGo1B1YuXotfnLPHSgq3IMZ03Lxq+fWsw0HERHROGOieeT0ej1qa2pQVloKiUSCqdOmITExEVIPao8xXFHR0UhMSkJtTQ1aW1vF4XNWV1sLLwDBwcHi0IisXrvBqe2dvUhipLZuf09omWcvohjtuYZjsJZ953L9Z2MvGjnf7fL2HzyMvPwCoSBmNMQFPPaHvZBn9doNTsUujgUy5/K6RERE48UlEs3Wvj54M9E8rqTSALyxaT2WLL4dAKCIjEBwUKB4GmRS6bDmDeZUaTmioxSIjAhHUmI8AKCuvhEAcKToKGJjopGUGA+ZVIrFi24RHT18kRHheGPT+gEtNfZ9eQCXz8yDTCpFZEQ4tm15DdmZ6Viz6kmsWfUkAEAmkyJmUhQAQKlSIyhQjhsKrgUA3HnbAjS3tAnXTEREROODiebh0+l0qK6qQk11NaQyGaZOm4bY2Fj4+vqKp5KD0NBQZGZlQd/djYrychgMBvGUEbNYLKisOF18kZmVhdCwMPGUYbEnE4+dKMaene8IxR1/3faPEa0kHEx2Zjr+88kHwnf58fTYw/cLLfuKCveM22vafz853+3y5sy6DEWFezBn1mXi0IjdOO86p8/K/ruJI4PRiJ//8jf4uugYHnv4/jF5XSKi8WSxWNDcpkR5VT2qahvRpdWJp5AbcolEc5/VComH9pIbbzV19cJ/2+/K5+UXoGDhXWhqbnGaazfceWL7vjyAf+/+DHn5BcifuxD/2X8QR4qOCvHoKMWovxzav7jar0t8h99oNKGtXek0ZudYdZE/dyG+LjoG9Ceadd16Yd5IkupERERE40mn1aKqshL19fUICg7GlKlTER0d7bH9l0fD398faZMnIzQ0FBXl5WhoaEBvb6942rAYjUaUl5VBJpcjKTlZHB6Rb749jq+LjuGJnz0oFE7YE8SOCUjHimdxNa89dvX82/BdcakwLq5odvwe/NDjK7Dgzvucktni6mTxd+yREr++Y1WwY2Xyk08/i7xBWtc5/h5ir9IerKJ5qOu2j7+06Q9CJfGZ3q/4c3ry6Wdx9fzb8NDjK/DZf/Y7nVtcnTzWFdzrN74uJJnHK2lPJOa4IsLOsZ0l0VD6+vrQ0NyOqppGtCnVaG5VoqyiFq3tKvFUcjMu8U3UarXyS/M4qa6tR3SUAgaDES+/+kdsXLdGaCERFxsjng6VumNY88RKyipw9PhJp80It215DZ99sV/48tjWrjzrcjelSg2trls8DABYs+pJ4Zr+9JdtTv/HJ5UGIDpK4TQf/ZUBv9+8RWiPUbh3Jy7NmwH0J5aDAuXC3DO9NhEREdH5oNNqUVlZiYaGBoSEhiI3NxcKxcDvODR8iqgo5E6ZAm9vbxSfPIm62toR9W/WaDQoLytDVFQUYmNjhXGTyeQ0b7j2fXkA8XGxyMnKEIcEq9duECqe7a3f1m98HehPxv5792d47OH7seuDbejWf1844cj+PTg4OBh7dr6DxYtuQWNTsxAv6d+jxf49+bGH78fqF14a9+RSWXkl7v/xXdi25TVotVphX5eSsgqsfuElbFy3BoV7dyIzYzJ+v3kLjEbnz3k4111VW4d3/vIHPPbw/dh/4CshYf37zVuw5umnUFS4BzfOuw5/3fYPp+O69Xrs+mAb3ti0Hv5+fsK4St2B+x99AjOm5aKocA82rluDVza/dc6Jebu/vP0u/r37M9w47zommem80+q6hX2diIZLbzChTamGNMAfSYmTIJP6o9dsQWu7Gqae0d3UJdfgEtlbm9UKLyaax9z+g4ex/8BXuPO2BeIQdu35fFiVysOd59gaw04RGQFdtx6nSssxM+8ilJVX4ptvj8NgNGL7jg+djt/35QGg/zw63cDlFqvXbnCqGggMlEMRGeE0JzU5EV8dKYLBaBQqDg4e/tppjr2CBA7XZ/9y++4HHw14D0RERDT2vACwcYaz7u5uVPUnmENDQ5GTm4vIyEjxNBolHx8fxMXFYdr06ZBKpWhpbsbxY8dQVVmJ5qYmqJRKNDY0oKOjw+lRV1eHmupqREZGwlsiEcarq6rQNg79n9Gf1Dx2ohgzpuUiMiIckRHhuPXmeULC1J6ovqHgWsikUlw+M098CqC/hV1ZeaVwnpysDMTHfZ8ot688nJl3EQDghoJrERwcPOyE0yub3xKqe8WVyWcSHBwMRWTE6dWEwcGorj29AvNI0VEEBwcjJyvDqV2GVBrgdPxwrtu+kjIlKRFaXTeUKrVwTkVkBK6efxv+vfszYb6dvQ2f2KnScjQ2NeOaK2cDAC65eDouzZuB7Ts+PGshDQBh1adjpbZdY1OzcO32P2Oi8+nSvBk4dqJ4yBsnjr3DHav89x88PGCFwv6Dh4VVA46/vzuuVhCv0CDX1Ntrhtlsga+PD2T+AfDy8gIAmEw9sPRZxNPJjbhE9tZqs8G7/y8ljZ5Op8M9S5cJP8BXv/AS/rBxHbIz04UvqMtXrkZefgH0egMyMyaf/tIlkyIwUI5Hlq+EUqUect5QDEYjvjpSNOCLWWREOGZMy8X2HR8iKTEea55+CstXrkb+3IVC9bFUGoD/e3gp9h/4Cnn5BWhvVw1aQf2zB3+Kf368G3n97TwWL7plQI/mJYtvR3SUAvlzF6Jg4V249eZ5uO7qOVi86Bbhi/C+Lw/gxnnXoaauHpER4Vi3ZhX+uu0fyMsvwLETxXj+1ysG/XJJRERENB4MBgOqq6tRV1uLkJAQJpjHmUQiQVR0NDKzspCTm4uIiAh4e3vDYDTCYDBAq9E4PXRaLby9vdHT0+M0PhY9n4eiVKmh1WqRmpwoDo3KUOeprq0Xkr6j4dij+aN3/zLgu/lQYiZFQSYb+H3bnnA+m+Fc92Dv2V6I8sjylfjDxnV47OH7xVOGVFNXj+CgwDO+5pk49mj+zycfIDszfUB825bXAAC/37yFSTg6r6KjFHjiZw8OeePEvpqicO9ObFy3xmkFwddFx3Dz/Lko3LsTMZOi8PKrf8SOt9/ExnVr8M+Pd0Ol7kBJWQU2vPIGtm15DYV7dzqdk1yXj+/pfda03XqUVNRCbzi9+sTLyws9PWbRbHInLpFoZkXzubP3dbN/gRnsS8ySxbcLsUce+Ane2LQec2ZdJtzdt88fat5QxBsIOlqz6klh4w77hhpFhXuEagCIrv2pxx8RNvHLzkzHti2vCZUcH737F+F4+/XMmXWZ08Yg9vYaRQ4bkji+rn1jQHvM8bVH8gWZiIiIRs/WX9XsyXp6elBXW4vKykoEyuXInTIFkWyRcV75+voiNCwMk2JikJiYiIzMTCSnpDg9pkydCoVCAZPJhKjoaGE8PSMDoaGh4lMOyzVXzkZjUzNOlZaLQ4B93xCHSt/BaLXaMxaCOBrqPKnJiSM6z3gb7vUMd56YvSp5zdNPDUj0no1jZfRYi4+Lxc8e/CmyM9MxZ/bl+LroGHZ8+C/xNKJxdcnF0wFgwN89g9GItnYlFi+6BTKpFJdcPB2ZGZOFlQX2NkAyqRTRUQrcevM8REaEO7WpdFz9LJNKsXjRLcNqq0kTm0wqRVTkwPxJr9mCiqp6aLRsS+quXCJ7y4rmia9EtHGG44NLX4iIiIiGx2KxoLGxEaeKi+Hn54epU6ciKjpaPI0mkJjYWERFR6O8vBwajQbo32gwZJSJZnvbhZdf/aPQbsL+XXv12g3CqsBjJ4qhUndApe7APz/ejTmzL0d2ZjquuXI2tLpuHCk6KqwsHExSYjwyMyYL59m153OnHs321hP2hNGuPZ9Dq9UO2nZvuMRJcnt7vOEQX8/qtRuw4M77oO7oPOO84V63fePvmrp64TMdLnvbEfv7sbfjsyffxsrPHvwp4uNihUpQovNFJpXi/x5e6rTHEgAYDEa0tLY7zXPcG2moFQpiXxcdQ/7chcjLL8DylavR0toOg4E5BFfm5+uDxIRJSE2KR1hoMMJCgoSY2WJBSXkNk81uyiUSzTabTejnQhPTYBXT9odjRfFwiSuRiYiIiNxdW2srik+ehM1mw5SpUxETG8vvwC4iMjISKSkpqK2pgUqpFIdHxL4acMa0XBQsvAt5+QW4Z+kyzJl9OdasehLoX6VnjxcsvAszpuUKsTmzLsNjD9+PVza/hRtuuweB8u83t3ZkTxxptVoULLwLXx0pcurRnJ2Zjj9sXCe0kfvrtn8IbfdGy96uz96TeCSyM9Ox5umnhJZ3+w98hXVrViEiPGzAvNFct71i+JXNb6Fg4V0IlMuGXaUcGRGOt15/GcdOFAuJso3r1pxx1edo2D+/xqZmvPrHP4vDROMqOzMdaanJ2PSHN4UxmUyKmElRwnN7hfNIObaP4Wpi9yH190dcjALZGSnITE9GYvwkyGUB8PX1YbLZjXnpDYYJv9dKW2srLH19iIuLE4c8jkQicdrhmGii6LNa0dPTIx4mIiIasd7eXpSXlWHK1KnikFvq6OhAa0sLpFIpJsXEQMob7S7LaDSiproaoWFhUCgUCAkOFk+ZMAxGI37+y98AAH7329+grr4RjyxfiZ/cc8egLe/IsxhNJthsEz5VQMPk6+sLXx8f8fBZbd3+Hqpr64UbWSp1B+5/9AlotVrhBs7qtRvQ1q7E7377G3zz7XFhLyilSo3tOz7E7377G8ikUqxeuwGpyYlYsvh2lJRV4IWXfo9N65+FUqXGimdewPpnnx5wPhaeuZdeswU22HCypBKG/p7NPj4S5GSkIiQ4UDx9SDabDUbT6eNp4nGNimb26SMiIiLyHDYb4AGVvN3d3aioqIBSqUR8QgJSUlOZZHZxUqkUGZmZ6OzoQFtrqzg8odh7odqXrN+zdBkyMyZj0S03iac6Ycu84TMYjXjo8RUDPqe8/AJcPf82YcM0IlcRGRGOJ372oNPYiuWPAgDy5y7E8pWrR9znPDszHU8+9hDuWboMefkFOHaiGM//egWTzG7Iz9cHPt4SxEQrEDvpdIsVby8vSCSnNw4k9+ASFc2tLS2w2myIjf1+KZenYkUzTVSsaCYiorHS09ODyooK5E6ZIg65BbPZjJbmZmg0GsTExiIyMlI8hVxcTXU1fH19kZGRIQ4RuQRWNLuX0VY0E42X5lYlWtpU8Pb2QnpqEgLlw7+xwIrmiY0VzUREREQ0odisVrftTdzW1obikych8fFB7pQpTDK7qdi4OISOcjNAIiIidxetiMCMKZmYlpMxoiQzTXwukWgmIiIiIs9hs9ng5e1eX1O1Wi1KS0qg7+5GZlYW4uLi4O1m75G+5+/vjxAmmomIiAYlkXgLD3IvLvEn6tVf1UxERERE7s9qs8HbTSqazWYz6mpr0VBfj+joaKSmpbEPMxERERG5JZdINMPL6/SmMERERETk9mw2m1u0zlC2t6P45En4+void8oUhIWHi6cQEREREbkNl0g0s6KZiIiIyHNYrVaXbiuh1+tRUV4OjUaDjMxMxMbFiacQEREREbkdl/gG7+XlxR1viYiIiDyEzWp12R7NzU1NqKyoQFhYGCanp0Mmk4mnEBERERG5JZf4Bs9EMxEREZHncMWKZo1Gg1PFxTCbzcjJzUWkQiGeQkRERETk1rz0BsOEz+CqlEoYjEYkJiaKQx5HIpHA18dHPEx0wdkA9PT0iIeJiIhGTK1Sobu7G0nJyeLQhGO1WtHU2AitVou4uDiEhoWJp5CHkkgk8PfzEw8TuQSjycRiLzfi6+vLPAK5DZvNBqPJJB6mCcIlEs1qtRrdOp1L/LJBREREROdG2d4OU08PEhISxKEJpauzE42NjQgJDUV8fLxbbGBIY4eJZnJlTDS7FyaayZ0w0TyxucSaRG8vL1itVvEwEREREbmhvgneOqOvrw/1dXVobm5GYmIiEhISmGQmIiIiIo83cb/BO/D29oaVd1OJiIiIPILVaoVkgiaau7q6UHLqFLy9vZGTm4vgkBDxFCIiIiIijzQxv8GLeHt7s6KZiIiIyENY+/rgLZGIhy8om82Ghvp6NDU1ISExEfETvK0HEREREdH55hqJZokE1r4+8TARERERuaG+vj5IJlCiWavVouTUKQBATk4OQljFTEREREQ0gGskmlnRTEREROQx+vr6JkzrjOamJtTV1iImNhYJiYnsxUzjymA04qHHVyAvv2DA46HHV8BgNIoPuWDs13r1/NtQUlbhFNu6/T3k5Rdg6/b3nMbHW0lZBe5ZugwqdYc4REREROfBxPgGfxYSiQR9rGgmIiIi8gh9VusFr2g2GAwoKytDT28vsnNyEBYWJp5CNOZkUine2LQeRYV7sG3La4iLjcG2La+hqHAP3ti0HjKpVHzIBRcbMwlHio4Kzw1GI74rLkVcbIzTPCIiInJ/TDQTERER0YTSZ7FA4uMjHj5vlO3tKC0pQXh4OFJSUuBzAa+FyNH+g4cHVDjbK4v/8OZfcfX824RK4tVrNyAvvwAL7rwPKnXHkPPsSsoqhHH7McMx67JL8V1xqVBtXVffCADImJwqzFGpO7DgzvuEa1+9dgPgUIHsWMW9/+BhoP+9OlZx298TBqn8nmjV3kTuxL5Cwf4YzkoF+79R+7/n4Vq9dsOwzj8U8bU6/rwZjdG+DyJPxkQzEREREU0oF6pHs8ViQU1NDTo7O5GdkwOFQiGeQnTBlJRVYMMrb2DbltdQuHcnAGD9xteF+IniEuz6YBs2rluDVza/hdTkRBTu3YmYSVHYtedzYd6efV9ix9tvYtuW1/DBR5+gpKwCKnUHVq5ei5/ccweKCvdgxrRc/Oq59cNK3kYpFGhtaxcSzEeKjmJqbhbkchnQn6j51XPrcevN84RK7aPHTwrtNpqaW3D5zDwUFe7BjfOuw/YdH571dddvfB3RUQoUFe7Bnp3voKW1Hd98e1w8jYjO0dbt7+GfH+/Gnp3vCP/e/vnx7nNKBp/JmlVPYsni28XDI3Jp3gwU7t0pXO+xE8WjThTbV5nMmXWZOEREQ3CJRDOYbCYiIiLyGBci0azRaFBaUgI/Pz9kZGZCOgFbFJBnO1J0FLEx0UhKjIdMKsXiRbegrV0Jo9EEALh8Zh5kUikUkRHIzkzHDQXXQiaVIjrK+YbJrTfPQ2REOLIz03HR9Ck4UnQUSpUaQYFy3FBwLQDgztsWoLmlTUgen0mUIgJpqck4UnRUaJsxM+8iIW5P1NiTR4rICAQHBQrxoKAgYf41V84Wxs9kzaonsWbVkwAAmUyKmElR4ilENAaqa+sxY1ouIiPCAQCREeG49eZ5+OpIkdOKirOtLnCsNHbs67567Qbcff+jQqW0Y0Wz+NyjSRZHRoRjxrRc1NTVA4Oc0/F6HVeMiFeC2F/bceXHUMcO9RkQeQrXSjRbLOJhIiIiInIzFovlvLaraGluRn1dHeITEhAXFycOE00YXxcdQ/7chcjLL8DylavR0touJDRSkhLF0wc12DylSg1dt154Lk4Gn801V85GdW096uob0drWDkVkhFPcMQlTsPAuNDW3CLHgoMAB88/GMdmTP3chvi46Jp5CRGPgmitn49+7P3NKni5ZfLvQM344qwv2HzzsVBU9Z/blePeDj4R4UFAgCvfuHFDJbF+xUbh3JzauW4PVL7w0YOPRs1GpO1BVXSvczBrqelXqDvzpL9uEnvi33jzPaSWI/VwvvPR7/GHjOhQV7kF0lAI7PvwXSsoqsPqFl7Bx3ZpBV5sQeRqXSTT7+PjAwopmIiIiIrd2PpPMvb29qKyogNFoRFZ2NkJDQ8VTiCaUG+ddh6LCPcLjo3f/gojwkW1U6VjZ19auBPoTy0GBcmGOUqWGVtctPD+bnKwMtLUr8e/dnyEtNVmofkR/cublV/+IjevWCMmd0WwUWF37/XX/fvMWoc1H4d6duDRvhng6EY2BObMuE5Kn9ptcjknn4awumDPrMnz07l+Enwupyc43u6KjFAM2OrX/fFq86BbIpFJccvF0ZGZMdtp4dCiON+QKFt6F6344B9mZ6cAwrxf9yXRx4vtUaTkCA+VISowHHNp8KFVqZGZMxiUXTxdWmxw7UTzsPvdE7sa1Es2saCYiIiJya+erbUZXVxdKS0oQGBiI1LQ0+Pr6iqcQTSgz8y5y6m28eu0GPPT4CqF1xnDZl7zX1TeiuaUNM/MugiIyArpuvVDB9+4HHwltOoZDJjudJHr3g4/O2v5i157PnSqaz6SsvBJ19Y1QqTtw7ESxOAwA+Obb46xoJhpH9vY39htc0VEKoWJ3OKsLxO0qXtn8llNcnHgGAIPBiJbWduH5YG2AhuLYo7mocA+qa+udNiAd7HojI8Lx9FP/h0eWrxyQTLez36QTE4+Lb9wReRommomIiIhowjgfFc3Nzc1obGhAckoKJsWMvLKS6ELIzkzHk489hHuWLkNefgGOnSjG879eAak0QDz1jKKjFMifuxD3LF2GJx97CNmZ6YiMCMe6Navw123/cDq3uMpwKDKpFJfPzEN8XCxysjKcYvaerstXrkZefgH0egMyMyZDqVI7zRObM+syzJl9Oe5Zugz3P/oEZl92KdD/WosX3YJXNr+FvPwC7PvyAG6cd92AZA8RnRuD0Ygnn352QLuKa66cjbZ2JdQdncNaXbDjw38B/S0wigr34LGH7xdPGUBcbey4AmOkhnu92Znp+M8nH6CocA8un5k3oP3FYG2HMMi4uBURkadhopmIiIiIJgyL2TxuiWaz2YyqykqY+ltlBAcHi6cQTRjZmen4+B9/FZZ8oz/56tg2IzIiXKg2nDPrMuG4bVteE5ap25d3211z5WzhHPZj7MfZkyyOy9yHIn7dJYtvdzrO8XWXLL5deM1HHviJcJz4WufMukzo/Wo/h/16nnr8EWHJu+PnYF8Kv2Tx7QPOR0SjJ5NKMTU3C7/fvEWo7jUYjdi+40NERykG3OQazuoClboD//x4t3h4AHsF8/YdH8JgNOKbb4+jrLzSaaPR4dr35YGzXm9JWQXuWbrMqd2FuNJaERnhtEnq6rUbsHrtBigiI1BWXolvvj0ufD6OGygSeRrXSTT7+sJiNouHiYiIiMiNmC0W+IxDGwutVovSkhLI5HKkpqWNWzKbyJ04buInftiXohOR+1qy+HZcPjNP6HmcP3choqMUWLPqyWGvLrih4Fq0tLYjf+5C3P/oE7j3zh+hrV05oDWF2IrljwL9vaGXr1yNNU8/5XTjbSiOPZrz8gvQ1q7EiuWPnvF6szPTcd0P56Bg4V3Iyy/AV0eKsOiWm5zOK15VYj9vdmY61jz9FJavXI38uQsBh2sn8kReeoPBJh6ciFQqFfR6PZKSksQhIiIiInITrS0tsFqtiI2LE4dGra2tDW2trUhMSuKGf3TeSCQS+Pv5iYeJXILRZILN5hKpAhoGX19f+PIGK7kJm80Go2lk+xPQ+eMyiWaNRgOlUonJkyeLQ0RERETkJhoaGuDv74+oqMF3gh8Jm82G+ro69PT2IikpCf7+/uIpROOGiWZyZUw0uxd3STTvP3gYy1euFg8DAG6cd53QXofcGxPNE5vLJJoNBgPq6+qQlZ0tDhERERGRm6iprkZoWBjCwsLEoRExGo2oq62FXC5HQuLgG/gQjScmmsmVMdHsXtwl0UwEJponPJfp0ezr64ve3l7xMBERERG5kV6zGb7n2KO5s7MTZaWliIiMZJKZiIiIiOg8calEc19fH2xWqzhERERERG7C3Nt7Tonm1pYWNDU2Im3yZCgUCnGYiIiIiIjGicskmgHAz88PvWazeJiIiIiI3ITZbIbfKNsN1NbWQtfdjcysLAQFBYnDREREREQ0jlwv0dzTIx4mIiIiIjdgNpvh4+MDLy8vceiMekwmlJWWQuLtjfT09HOqiCYiIiIiotFxrUSzvz962KeZiIiIyC319vbCd4TVzFqNBmVlZQgLC2M/ZiIiIiKiC8ilEs3+rGgmIiIiclu9vb0japuhVCpRU1ODpKQkREVHi8NERERERHQeuVai2d8fPUw0ExEREbml3t5e+A8z0dzU2AiVUomMzEyEhIaKw0REREREdJ65VqI5IICJZiIiIiI31dvTc9aKZpvNhprqavT09CAzKwtSqVQ8hYiIiIiILgDXSjT7+8NkMomHiYiIiMgN9PT0wM/fXzws6OnpQXlZGXx8fZGalgZvb5f6KktERERE5NZc6tu5RCKBRCJBLzcEJCIiInI7PT098B8i0dyt06G8rAyhYWFISEgQh4mIiIiI6AJzqUQzAARIpaxqJiIiInJDvb29gyaaOzo6UF5ejvj4eERz0z8iIiIiognJ9RLNAQEwGY3iYSIiIiJyYT39/Zm9vLycxtva2tDU2IiMzEyEhYc7xYjc2dbt7yEvv0B47D94WDxl2FTqDtyzdBlKyirEoWHbf/Aw8vILsHrtBqdxlboDC+68DwvuvA8qdYdTbLytXrsBW7e/Jx4mIiKiC8TlEs3SgAAYWdFMRERE5FZMJtOAauamxkZ0dnQgIzMTgYGBTjEid7Z1+3v458e7sWfnOygq3IM9O9/By6/+8ZySzWMhLjYGVdW1TgnlU6XlsNlsCAqUO80lIiIiz+N6iWaplBXNRERERG6mx2RCQECA8Ly2pgYmkwkZmZkDEtBE7kyl7sA/P96NJ372ICIjTlfxR0aE44mfPYjtOz6EuqMTDz2+Qkg6i6uVV6/dIFRBr167AQajEb96bj1KyirwyPKVKCmrgMFoxEOPrxhxtXRsTDQmRUfhVGm5MLbvywO4/tqrnOY5VmNfPf82p9cUXx8AlJRV4J6ly4QE9v6Dh/HQ4ytg6P+9b7DzEdH4E6+syMsvcPq3OZ7EPweIyDW4ZKLZyB80RERERG7F1NMD/4AA9PX1obKiAl7e3kibPBne3i73dZXonNiTuDlZGU7jc2Zdhjc2rYdU+v0NGbH9Bw+jrV2Jwr07Ubh3J/R6A+rqG/H8r1cgOzMdf9i4DtmZ6Vi/8XUAQOHendi4bg1Wv/DSsJO3qcmJ2PflAaA/yd3WrsSUnCwhvv/gYadq7DmzL8e7H3wkxO3Xt3HdGuw/8NVZX/ds5yOi8XVp3gwU7t2JosI9KCrcg+goBX7+y9+MewLY/jNPJpWKQ0Q0gbncN3dviQR+fn5MNhMRERG5EZPRCIlEgorycshkMiQlJYmnEHmMmElRkMnOLbkik0qx4YVnkJ2Z7jRuMBrR1q7E4kW3QCaV4pKLpyMzYzKOFB11mjeUH1xysdA+41RpOaKjFFBERgjxObMuw0fv/kWoxk5NTnQ4Grh8Zh5kUilysjIQFxvjFBvM2c5HROfXzx78KVpa2/HNt8eB/p8pg62QEI879lMvKavA1fNvc6qQ3n/wMG6+4ye4ev5teOjxFfjsP/uHXNlgP5f4NRzni2PDXblBROfG5RLNACCVyWA0GMTDREREROSijEYjmhobER4ejti4OHGYyKO0tLbDYBh5Yc2cWZfh8pl5yJ+7cEBix85gMKKltV14LpNKER2lcJpzJkmJ8ZgUHQWlSo19Xx4YkPgVJ3de2fyWUzwlaWSJ4rOdj4jOr8iIcMyYlouaunoAwPqNryM6SoGiwj1OKyR2fPgvYXzPznfw1ZEiqNQdUKk78MJLv8cfNq4TKqR3fPgvAIBOp8MfNq7DG5vWw9/PT3jN/QcP46sjRSjcuxN7dr6Dz77Yj5KyCqfX3rPzHacE+Lms3CCi0XPJRLNMJoOBiWYiIiIit9DR0YG+vj7ExcUhKjpaHCbyKPaWGY59kNFfAfjk08/CaHTeGF2pUkOr6xaeL1l8O4oK96Bw7058daRoQBWfTCZFzKQo4bm9wnm4ZDIppuZm4d+7P0NVdS1m5l3kFLcnjOxL7R97+H6n+HDYE1gYo/MR0fhQqTtw7EQxrrlyNgAIKySUKrXTvMiIcLyxaT0iI8JxqrQcgYFyJCXGAwDWrHoSSxbfDgAIDg52WiFht+/LA8JqiMiIcGzb8hqyM9OxZtWTWLPqSUD0s+1cV24Q0egx0UxEREREF0xHRwfqamshlUoRHjHwl0siTxMZEY5bb56Hl1/9o7A5nkrdgZWr12JqbpbQo9neJ/lI0VHodDqgf2m5fYM9AAiUywckbewVzNt3fAiD0Yhvvj2OsvLKAQnjM0lJSsS7H3zklCwajH1jw+Foam7BqdJyGIxGfHWkSBwGRng+Ihofg92cWr5yNfLyC5A/dyG+LjqGmrp6IXksbl3heCNJbLC2QUajacDr2Tm24LC/NsZg5QYRjZ7LJpr1er14mIiIiIhciFKpRFNjIxQKBQKDgsRhIo+1ZPHtuPXmeShYeBfy8gtQsPAu3HrzPCxZfDtkUin+7+Gl2H/gK+TlF6C9XSX0Ol50y01oa1cKSZepuVnIzkyHTCZFYKAcjyxfiZKyCqxY/igAIH/uQixfuRprnn5qQC/nM8nJykB8XKxQYejohoJr0dLajvy5C3H/o0/g3jt/hLZ25YBKbEfZmen4yT13YPnK1bjhtnswLTdbiA11vvHeiIyIBmdP4trb4AQFyrFty2vCZoFFhXuEJPOaVU8KbS3+9JdtKCmrGHH7HKk0YNAkscFoxO83b8FP7rlDWMVxad4MYAxWbhDR6HnpDQabeNAVlJw6haSkJMjkcnGIiIiIiCa41tZWdKjVSE1LQ1trK+SBgYiMjBRPI3JZEonEqccokSsxmkyw2VwyVUCD8PX1ha+Pj3j4rLZufw9fHSnC7377G+Gm0uq1G9DWrhTG7Kso1qx6EiVlFXhk+UqsefopoYf7ksW3Q6XuwK+eW4/nf70CSpUaK555AeuffRrZmenC8ddcORvbd3wonHf/wcPC8x0f/ku4DoPBiPsffQLLHrwPH3y0C5fPzMOSxbdj/8HDWL5yNTauW4M5sy5zus5vvj2O1S+8hD9sXDeim2o0MdlsNhhNQ9+8pAvLJSuaAUAul7OqmYiIiMgFNTU1QdPVhfSMDAQEBMBoNEIqqookovPLcQm6+PHQ4ytYQUzkob4uOiZsMJqXX+CUZAaAFcsfFVZS3LN0GX5yzx2YM+sy/OzBn+KfH+8WVmUsXnQLIiPCkZ2Zjicfewj3LF0mnM++ymIoSxbfjugoBfLnLhRWeFx39RwsXnQLXtn8FvLyC7DvywO4cd51QmuOc125QUSj47IVzWq1GjqtFskpKeIQEREREU1QDfX1MPX0IDU1FRKJBADwbVERLrr4Ynh5eYmnE7ksVjSTK2NFs3sZbUUz0UTEiuaJzWUrmgPlcnR3f7+7MhERERFNbLW1tTCbzUhPTxeSzAaDAVKplElmIiIiIiIX57KJZv+A07st9/T0iENERERENMFUV1cDNhtS09Kcxg0GA2QymdMYERERERG5HpdNNANAYGAgq5qJiIiIJjCbzYbKykr4SCSDtjxjopmIiIiIyD24fqJZpxMPExEREdEE0NfXh8qKCgT4+yMxKUkcBphoJiIiIiJyG66daA4Kgo6JZiIiIqIJx2KxoLKiAjK5HPEJCeIw0F/tbNDrIZPLxSEiIiIiInIxLp1oDggIgJeXF0xGozhERERERBeI2WxGZUUFgoODERcXJw4L9P1JZm4ESERERETk+lw60QwAQaxqJiIiIpowent7UVlRgdDQUMTExorDTgx6PeRsm0FERERE5BZcP9EcHAwtE81EREREF1xPTw8qKyoQHh6OSTEx4vAAer0e8sBA8TAREREREbkg1080BwVBp9WKh4mIiIjoPDKZTKisqEBkZCSiJ00Shwel1+shZ39mIiIiIiK34PKJZh8fH8hkMmiZbCYiIiK6IEwmE6oqK6GIikJUdLQ4PKienh7YbDb4+/uLQ0RERERE5IJcPtEMAMEhIdBqNOJhIiIiIhpnJqMRlZWViIqKQlRUlDg8JH13NwLZNoOIiIiIyG146Q0Gm3jQ1RgNBlRXVyN3yhRxiIiIiIjGiT3JHD1pEhQKhTh8RvX19QgICBhRcprIlXh5eYmHiFyKzebyqQLq5+vrC18fH/EwkUuy2WwwmkziYZog3CLRDADFJ08iJTUVMu5cTkRERDTu7D2ZR5NkBoBTxcVITknhdzciIqJxxkQzuRMmmic2t0k0NzY2QiKRIGYYO5wTERER0ejZezJHRUePKslsNptRcuoUpk2fLg4RERHRGOMKC3I3XHExcblNolmn06GpsRFZ2dniEBERERGNESHJHBUFxSjbXnR0dKCrsxOpaWniEBERERERuSi32AwQAIKCgmA2m2Fi+TwRERHRuLAnmRXnkGQGgG6dDoFBQeJhIiIiIiJyYW6TaAaA0NBQaLq6xMNEREREdI4ck8znuoGfTqdDEBPNRERERERuxb0SzWFh6GKimYiIiGhMObbLONckc09PD6w2G6RSqThEREREREQuzK0SzUL7DKNRHCIiIiKiUTAajaisqDinnsyOdFotq5mJiIiIiNyQWyWa0V/V3MmqZiIiIhojFosF//niC/x27Vp8+umn6O3tFU85r95//3288MIL2P/ll+LQmDMYDKisrET0pEljkmQGAK1Oh2AmmomIiIiI3I7bJZrDwsLQ2dEhHiYiIiIalZqaGjz//PN48cUX8W1REby8vJziZrMZFeXlKCwsxKFDh6DTap3iQ9FoNDh06BAK9+/HoUOHoFarneJ9fX2oqqpCYWEhysvKYLFYAAAnTpzA2hdewKZNm9DZ2el0zFjS6/WoqqxETEwMFAqFODxqOq0WQcHB4mEiIiIiInJxbpdolsvl8PLyQnd3tzhERERENGJHjx7FN998g9jYWFx19dXw9fUVYmazGR9//DF+8pOfYP68ebj5ppvw3cmTTscPpbCwEDffdBOuv/563HzTTXj11VdhNpuFuEGvx6uvvIL58+ZhzZo1QlJ5zpw5kEqlOHr0KAoLCx3OOHa6u7tRVVmJ2Lg4REZGisOj1q3TISAgwOkzJCIiIiIi9+B2iWawqpmIiIjGSF9fH/bt2weLxYKk5GRMnTJFiJWXleHpVavwy5UrcezYMVitVhiNRvT1Vx6fjVajgbF/Xwmj0YiPPvoI3333nRC3Aejp7YXVaoVWp4PJZAIApKamYtq0aVCpVNj3+efDrqAeLp1Oh8qKCsQnJCAiIkIcPidaVjMTEREREbkt90w0h4ejg4lmIiIiOkdtbW042Z/8nTFjhlOS9K9bt+L111+HVCpFenq6w1EjI5VKERYWhuqqKux47z3o9XrxFCcxMTG4+OKLYbVacejQITQ1NYmnjJpGo0FlRQWSk5MRHh4uDp8zrVaLYCaaiYiIiIjcklsmmv39/SEPDGSymYiIiM7JqVOnoFQqAQBZmZlOseioKDz44IPYtGkT8i65xCk2EvEJCZhbUABvb298+OGHOH78uHiKE6lUitwpUxAYFITKykrUNzSIp4xKV2cnqquqkJqWhtCwMHH4nPX09KDXbEZgYKA4REREREREbsAtE80AEB4ejg7RpjpEREREI1FeXi7cuI6JjXWKLX3gAax/8UXkXXIJ/Pz8nGIjIZNKsWjRIqSkpqKhoQH/+vhj8ZQBUpKTERYait7eXlRXV4vDI9ahVqOurg6T09MREhIiDo8JrVaLEFYzExERERG5LbdONBsMBqGfIREREdFImEwm1NbUwGg0QqFQDGglIZfLx2RTu57eXsTFxaGgoAAA8Nlnn+HYsWPiaU5iYmKEyuDm5mZxeESUSiWampowOT0dQUFB4vCY0Wg0CB6nJDYREREREV14bptoBoCIiAhWNRMREdGo9Pb2QtfdDQAIDg6Gv7+/eMqY6DGZoNfrceuttyIlJQUVFRV4//33hY0CByOTy4UqapVKJQ4PW1tbG9rb2jA5PR1yuVwcHjN9fX3QajTjVi1NREREREQXnlsnmsMjIqBmopmIiIhcQG5uLu6++274+/tj165dKC0pEU8ZUy3Nzejs6MDk9HRIpVJxeExpNBqEhIbC29utv3oSEREREXk0t/62L5VKIZVKR7UpoMViwX+++AK/XbsWn376KXp7e8VTzqv3338fL7zwAvZ/+aU4RERERG5AJpPhzrvuQkZGBsrLyvD5vn3iKWOmsaEBOp0Ok9PTx61S25GmqwuhrGYmIiIiInJrbp1oBoCIyEioR7GktKamBs8//zxefPFFfFtUBC8vL6e42WxGRXk5CgsLcejQIei0Wqf4UDQaDQ4dOoTC/ftx6NChARXXfX19qKqqQmFhIcrLymCxWAAAJ06cwNoXXsCmTZvQ2dnpdAwRERGNPW8vL0j6K3DNZjOsVqt4yrBYrVbU1dXhwIEDKC4uRk9Pj3iKIDExETfddBN8fHzw2d69aG1pEU8B+m+I26/Hf4QbEdbV1qKnpwfpGRnw8fERh8eczWYTKpqJiIiIiMh9uX2iOSwsDL29vdDr9eLQGR09ehTffPMNYmNjcdXVVztt9mM2m/Hxxx/jJz/5CebPm4ebb7oJ35086XT8UAoLC3HzTTfh+uuvx8033YRXX30VZrNZiBv0erz6yiuYP28e1qxZIySV58yZA6lUiqNHj6KwsNDhjERERDQeAqRShPVvAKhUKtHd3695pLq7u7Fp40bcMH8+lj36KBobG8VTBBKJBDfdfDOmTp2KsrIyHPrqK/EUAEBXV5ew4bFCoRCHB2Wz2VBdVQWbzYa0yZMH3EQfL5quLgQGBp6XpDYREREREV04bp9oBoDIyMgRbZTT19eHffv2wWKxICk5GVOnTBFi5WVleHrVKvxy5UocO3YMVqsVRqMRff2Vx2ej1WiEzX2MRiM++ugjfPfdd0Lc1r/7vNVqhVanE36JTE1NxbRp06BSqbDv88+HXUFNREREo+Pj44PU1FQEBgXBaDSitbXVKb5jxw5cX1CA2269FXs+/VQY/8UvfoHrCwrw6quvAgB0Oh1qampgsVig1enO2o5r8uTJuPfHP4ZUKkW3TgcAkHh7O/U3rq+vh0ajAfqroM/GYrGgorwcvn5+SE5JEYfHVVdXF0JZzUxERERE5PY8I9GsUKBDrXaqHD6TtrY2nOxP/s6YMQNBwcFC7K9bt+L111+HVCpFenq6w1EjI5VKERYWhuqqKux4772zVlzHxMTg4osvhtVqxaFDh9DU1CSeQkRERGMsKysLishIAEBDfb1TrKG+Xmih1dbWJoyfOHEChYWFqCgvB/qTvD39yeXcnByhAtnH1xc+Pj6QyWQIcehf7Ofnh9tvvx3XXHPN6Xk+PkhJSUFQUBBgb7NVWYmuri4EBgWdNXFsMplQXl6OoKAgJCQkiMPjymazoauri20ziIiIiIg8gEckmiUSCSIVCiiVSnFoUKdOnRLmZmVmOsWio6Lw4IMPYtOmTci75BKn2EjEJyRgbkEBvL298eGHH+L48ePiKU6kUilyp0xBYFAQKisrUd/QIJ5CREREYywnJwdxcXEAgOMnTqCvr0+I3X7HHfj000+HfDz2f/8HACgrK8PJ774TKpXD+9tx/PCHP8SuTz7Bm1u2IDU1VTgv+lt/Pff88/j000+x65NP8Pjy5QgMDAT6K4RPnDiB3t5eXDRjxhmTx93d3agoL4ciMhIxsbHi8LizJ8MdW5AREREREZF78ohEM/r7Fyrb22Gz2cShAcrLy9HR0QEAA34pW/rAA1j/4ovIu+QS+I1w8x1HMqkUixYtQkpqKhoaGvCvjz8WTxkgJTkZYaGh6O3tRXV1tThMREREYywkJASXzpwJACgrLXWqXI6Pj0f+nDlDPiZPngwA+HT3bnR0dGDR7bfjqquuElpgREZGYvbs2Zg+fToCAgKE89olJycjf84czJ49G0lJScJxjY2N+N///gcfHx/Mmj0bMTEx4kMBAF2dnagoL0d8fDwUUVHi8HnR1dmJMFYzExERERF5BI9JNAcEBCAkJATK9nZxyInJZEJtTQ2MRiMUCoVQdWQnl8vHpCqnp7cXcXFxKCgoAAB89tlnOHbsmHiak5iYGKGaqbm5WRwmIiKicXD1VVchPDwcjY2NOHDgAKxWq3jKkOyb+j7wwAO45557xuQ7xNGjR9HY2IiUlBQUFBQMeuNbqVSivr4ek9PThQ0Nz7e+vj50dnYiNCxMHCIiIiIiIjfkMYlmAFBERaH9LInm3t5e6Pp3lQ8ODoa/v794ypjoMZmg1+tx6623IiUlBRUVFXj//feFjQIHI5PLhV8mR7K5IREREY3e9BkzMG/+fHR1deHggQMwGAziKUMKCwvD7zZuxKbf/x7Jycni8KgcOXIEVqsVc+bMwUUXXSQOo6W5GUqlEukZGUJf5wuhs7MTYWFhkEgk4hAREREREbkhj0o0y+VyyGSyYfdqPh9yc3Nx9913w9/fH7t27UJpSYl4ChEREV1A4eHhePrpp7Hrk0/w6KOPDtrm4nxatmwZPv30U/xixYoBFdL1dXXo7u5GRkYGpFKpU+x862I1MxERERGRR/GoRDMAREVFod2hv+KFJpPJcOdddyEjIwPlZWX4fN8+8RQiIiK6gLy9vZGUlITZs2cjIzMTPj4+4innVU5ODvLnzEF8fLww1tfXh6rKSlitVqRnZFzwa+zp6YHBYEAYE81ERERERB7D4xLNgUFBCJBKh6xq9vbygqR/sx2z2TyiPoyOrFYr6urqcODAARQXF6Onp0c8RZCYmIibbroJPj4++GzvXrS2tIinAAAsFotwPf6D9GMkIiIiz2MyGlFeVoYAqRTJKSni8AVhb5tBRERERESew+MSzQAQHR2NttZW8TAAIEAqFTbNUSqV6O7v1zxS3d3d2LRxI26YPx/LHn0UjY2N4ikCiUSCm26+GVOnTkVZWRkOffWVeAoAoKurCyaTCQCgUCjEYSIiIvIwWq0W5eXliIyMRFxcnDh8wXR0dFywTQiJiIiIiOjC8MhEc2BgIORyOdoGaaHh4+OD1NRUBAYFwWg0olWUkN6xYweuLyjAbbfeij2ffiqM/+IXv8D1BQV49dVXAQA6nQ41NTWwWCzQ6nTo7e11OMtAkydPxr0//jGkUim6dToAgMTbG9791dUAUF9fD41GA/RXQRMREZHnUqlUqK6qQmJSEhRRUeLwBaPT6eDl5YXAwEBxiIiIiIiI3JhHJpoBYNKkSWhrbUVfX584hKysLCgiIwEADfX1TrGG+noUFhbi0KFDTonqEydOoLCwEBXl5UB/m4ue/uRybk6OUIHs4+sLHx8fyGQyhISECMf7+fnh9ttvxzXXXHN6no8PUlJShN3i7b0Xu7q6EBgUNGGWxhIREdH519zUhPa2NmRkZiI0NFQcvqA61GqEs5qZiIiIiMjjeOkNBpt40FPU19dDIpEMWGqq0Whw+6JFOHDgAO648068+eabkEgkAIDGxkbUVFc7zXcUExuLyZMnY+/evbj/pz9FeHg4Nrz8Mq655hp4e3tDpVKhtLQUQUFByMzMHLBzfW1tLRrq6+Hl7Y2EhAQkJCTA29sbarUaT/z859ixYwfy8/Pxxz/9CUlJSU7HEhERkXuz2Wyora2Fta8PycnJkFzgTf/E+vr6cOL4cUydNu2Cb0hIRERERETnl0cnms29vTh58iRycnPh7+/vFPvVr36Fjb/7HWbMmIEd77+P2NhYp/jZ/Hz5cvzxj3/EL1etwooVK+Dr6yueMiLHjx/HnXfcgebmZjz51FNYsWIF/LghIBERkcfoMZlQW1sLmVyOhIQEcXhCaG9vh0Gv58orIiIiIiIP5LGtMwDA188Pk2Ji0NLcLA7h6quuQnh4OBobG3HgwAFYrVbxlCF1dnYCAB544AHcc88955xkBoCjR4+isbERKSkpKCgoYJKZiIjIg2g0GpSVlSEsLGzCJpnR3zYjor/9GBEREREReRaPTjQDQExMDPR6PbRardP49BkzMG/+fHR1deHggQMwGAxO8TMJCwvD7zZuxKbf/x7Jycni8KgcOXIEVqsVc+bMwUUXXSQOExERkZtqb29HbU0NkpKTERUdLQ5PGPbvUvb9JYiIiIiIyLN4dOsMu46ODijb25GZlSWMWa1WNDQ0oKGhAVEKBVLT0i5or8FTp05BrVIhJTUV8fHx4jARERG5oYb6ehgMBiQlJw/Y12GiqamuRmBQkLABMhEREREReRYmmvtVVVYiKChoQlcKERERkWfo7e1FXW0tfP38xmx11Hjq6elBaUkJpk2fDi8vL3GYiIiIiIg8gMe3zrCLjYtDc3Mzent7xSEiIiKi80ar1aKstBRBwcEukWQGAJVSicjISCaZiYiIiIg8GBPN/aRSKaKio9Hc1CQOEREREZ0XbW1tqKmuRkJiIiZNmiQOT0hWqxUqlQqRbJlBREREROTR2DpDpOTUKUyKiUFYWJg4REQArn/pvwBsAOxVa/YfIWPx3PG89thon5/pdc72/EznPdvzM513OM8diV/HPoZhHC8eP1/P7YYadx3LrsvAjTPixMNE48Jms6G+rg49PT1ISk6Gv7+/eMqE1d7WBoPBgOSUFHGIiIiIiIg8CBPNIlqNBvUNDcjJyYG3Nwu+icSuXrsPR6rV4mEit/OPZbOYaKbzwmAwoL6uDnK5HAmJieLwhFd88iSSU1Igl8vFISIiIiIi8iDMpIoEh4QgJDgYTY2N4hARERHRmFKrVCgrLUWkQuGSSWa1SoWAgAAmmYmIiIiIiInmwcTHx0Or1aKrq0scIiIiIhoTDQ0NaG9vR0ZmJiIjI8Vhl9CuVEIRFSUeHjWLxYIv9u3Db9euxZ49ey7oJs09PT34+7ZtWL9uHf73v/+Jw0REREREJMJE8yC8vL0Rn5CAxoYGWK1WcZiIiIho1IxGI8rKymDt60NWdrbLVgN3dnRAIpEgODhYHBq1mupqvPDCC3jppZdw9Ntv4eXl3H/ebDajvKwMhYWFOHz4MLq7u53iQ+ns7MShQ4dQuH8//ve//w0oJrBYLKioqEBhYSGqqqrQ19cHq9WKI0eO4IUXXsAbmzdDq9U6HUNERERERM6YaB5CSEgIQkND0dDQIA4RERERjYparUZpSQnCw8KQlJw8IJHqStrb2xE1htXMAHD06FF88803iIuLw5VXXQVfX18h1tvbi507d2LJkiWYP28eblm4EKWlpU7HD8ZqteKzzz7DTTfeiOuvvx4LFizAm3/6E8xmszBHr9fjxRdfxPx587BhwwbodDoEBARgzpVXwtfXF1999RW+PnLE6bxEREREROSMieYziE9IgNFggFrNjc+IiIjo3NTX1wutMsay3cSF0NnZCS8vL4SGhopDo9bX14fP9+2DxWJBUnIypuTmCrGy0lKs+uUvseqXv8SJEydgtVphMplgsViczjEUrVYLk8kEANBptfjggw+cktRWqxW9PT2wWq3QabUwm83w8vJCdnY2srKy0NzcjP2FhTAYDA5nJSIiIiIiR0w0n0VCQgIa6uvR0//LCREREdFI6PV6lJaUADYbsrKyXLZVhqO2tjZERUeLh89Ja2srik+ehJeXF2bMmIGg/pYcVqsVf/7zn/HGG29ALpdj8uTJ4kOHTS6XIyQkBKWlpfjoo49gNBrFU5wkJSUhd8oU9PX14atDh1h8QERERER0Bkw0n4U8MBAxsbGor68Xh4iIiIjOqL2tDRXl5VBERSExKcmlW2XYdXR0wHuMq5kB4NSpU2hvbwcAZGdlOcWio6Px8MMPY9OmTbj44oudYiORkpKCH/7whwCAf/7znygrKxNPcSKXy5GdlQWZTIby8nK0tLSIpxARERERUT8mmochOjoaPj4+aGpqEoeIiIiIBjCbzaiuqoJGo0FWdjYiIiLEU1xWW2sroidNEg+fs/LycqElxySH83t7e+PBhx7C2t/+FhddfDF8HPo2j1RgYCBuve02xMXFobqqCrt27RJPGSAlNRVyuRwGgwG1NTXiMBERERER9WOieZgSExPR1dmJzs5OcYiIiIhI0NnZiZJTpyCVSpGekYGAgADxFJelUirh6+eHkJAQceicmEwm1NXWwmg0QqFQIFyUmJfL5U4bA46W0WhESkoKrr32WpjNZuz+5BOcOnVKPM1JTEwMZDIZ+vr60NzcLA4TEREREVE/JpqHSeLjg8SkJNTX1QmbyRARERHZ2Ww2NNTXo6W5GSkpKYiJjRVPcXmtra1O1cZjpbe3F1qdDgAQHBwMPz8/8ZQxYTSZ0NfXhx/96EdITEzEyZMn8fFHH6Gnp0c8VSCXy+Hj44O+vj4oVSpxmIiIiIiI+jHRPAJBQUGIiYlBfV2dOEREREQeTKvVouTUKdgAZOfkCBvZuZPW1lYEBgYiMDBQHHI5F118MX60aBF8fHzwySefoLq6WjyFiIiIiIhGiInmEYqKjkZAQACTzURERAQAaGpqQl1tLWJiY5GYmOgWG/6JWcxmtLa0YFJMjDjkkgIDA3HHHXcgKTkZJ0+exP4vvxRPISIiIiKiEWKieRQSk5JgMpnQ1toqDhEREZGH6O7uRmlJCcy9vcjOyUFYWJh4ittoaWlBpEIxbv2mvb28IPE+/bXUbDbDarWKpwyL1WpFbW0tDhw4gNKSEvT29oqnCCZPnoz58+fDarXi008/RbtSKZ4CALBYLLDZbPDy8hq3lh5ERERERO6AieZRSkpORnt7O7q6usQhIhrE56vmwvb3JQMePVvvxbM/miGeTkQ0oTU3N6O6qgqKqCgkp6TAx8dHPMVtGPR6dHZ2ImYcq5kDpFKEhYcDAJRKJfR6vXjKsGi1Wrz04ou4Yf58LP/5z9F6hqKAgIAA3HrrrcjMzMR3332Hb4uKxFMAAJ0dHejp6YFEIkFUVJQ4TERERERE/ZhoHiV/f38kJyejtqYGBoNBHCaiQZxq6oLX3VudHoVlbXh8Xg7unZ0mnk5ENOHodLrTlbI9PcjOyUFERIR4ittpaWlBTEwMJBKJODRmfHx8kJqaisCgIBgMBqcEsc1mwz/efRfXFxTgR7fdhn2ffw70Vz7/fPlyzJs3D2+88QbQn2iuq6+HxWKBTquF2WwWzjOYnJwc3HHHHfDx8UF3dzcAQCKROLU/aWhogF6vP70xdGKiw9FEREREROSIieZzEBQcjPiEBNTW1MByll9kiGhwW/dXAQCuzI4Wxhyrnx0rnu+dnQblG3fi4yd+iJ6t98L29yVofG0Rfpj7fZXdsz+aIcTExz/7oxmo2ngrqjbeCtvfl6D4xQX4YW4MGl9b5FRl/fmqucL5AKD4xQVCTPvWYiEpfrZjxfHiFxc4nJWIXE1TYyNqa2oQ1V/F7OvrK57idjo6OmCxWKA4D5W8WVlZiOxP3Dc0NDjF6urqUFhYiEOHDqGtrQ3oT0AfP34cBwoLUVVZCfS3uejt6QEA5OTmIry/StrP1xc+Pj4ICgxEcFCQcF5/f3/cceedmDVr1ul5fn5ISk6GVCoFAPT19aGyqgp6vR5hoaFISkoSjiUiIiIiImdMNJ+jyMhIhIWFoaamRhwiolH4fNVcZMWG4Jq1e+F191a8faDKqeLZ39cbV+VMwtI3D8Hr7q3QGHrxt4dn44e5MXj2RzOw4qapePtAFbzu3opr1u6FUmfCT69KF5LR8eFy1Ci74XX3Vvxs6xH87eHZ0Bh6hQrrfcUtyM+MFpLTn6+aixCZn3A9R6pU+O2dF+OJG3LPeOwPc2Oc4tes3YsQmR+TzUQuSKPR4FRxMSx9fcjOyUG4B1Qxoz+R29LcjJjYWHFoXOTk5CAuLk5IINv7NHt5eeGuxYvx6aefDvr4ZPduPPzII7DZbCguLkZJSQkys7Kw+K67EBISAm9vb1w/bx52ffIJXv/DH5CUnOz0ujExMXhpwys6uicAALcfSURBVAZ8+umn+PeuXXjwwQeFRLNSqUTJqVMwm8246KKL2DqDiIiIiOgMmGgeAzGxsfD390ctk81EI7ZkzukE8pclbbh3dhqmJ4bjz/+twBfFLQCApW8eQoNaL8wDgPcO1+LtA6croT84UodgqS+uyo7GM+8fg/+St7H0zUMAgC+KW1DarBGOA4AeSx8OlbcL8fhlO5D7i4+E+KHydvRY+oD+CuqZaZH49HiTcD3Xrt2L+GU78PKu4jMeu/iKFARLfbHu45NA/2v9+b8VSIiQsyc1kYuwWCyoq6tDY0MDYuPikJSU5Na9mMWam5sRGBSE4OBgcWhchIaG4tKZMwEAZaWlQuUyACQkJCB/zpzBH/n5SE1NhcViwe7du6HVanH34sWYNXs2vPs3GIyKisLs2bMxdepU+Pv7C+cFAG9vb6SlpSF/zhzMmjULcXFxwnFVVVU4duwY/Pz8cPkVVwgV0kRERERENBATzWMkMSkJVqt1wFJPIvpeTlyoU5sJ29+XYGZaJB79y//w9oEqpE8KQrDUF7++ZbrTnJy4UOEcPWYrmju/74te0aoDAMSGyYSxe2enQfvWYtj+vgTXOLTVOBN7e4xf3zId/j6n+5CmTzq9vNrx9QYz2LHJikBojWY0ia61x3y6Qo+IJjaVSoVTxcXwkUiQk5uL0NDvfw55AoPBAJVSidjzVM1sd/XVVyM8PBwNDQ04ePCgUNU8HJ2dnZB4e+PBBx/EHXfeec6tTcxmM775+mu0trYiKysLV111lUfdaCAiIiIiGikmmsdQSmoqjAYDWpqbxSEiEm0G+NyHx9FrseJIlUqoTkZ/xfFzHx4fsGngtWv3Op1rMPYE898eno0jVSqhncWZ2JPE9vYYz314XKhKPptzOZaIJiaDwYDKigp0dHQgLS0NcfHxThvDeYqmpibExsWdc7J2pGbMmIHr581DZ2cnDh44AKPRKJ4ypKioKLz62mt48aWXEB8fLw6PWG9vL44cOQKJRILr5s5FTk6OeAoRERERETlgonkMeXl5ITUtDV1dXWh3WO5JRAM98/4xvH2gCtfkxmDLA1cAQ1Qni/n7ejvFHauOr8yOhtZoxjVr9w47MR0VLMVzHx5H/LIdQnsMuzNdz9mOrVV2I1jqizjRtfr78scu0URks9nQ1NSEivJyhISEICMjA/LAQPE0j6BsP91eSKFQiEPjLjw8HL/61a+w65NP8Mgjjwxoc3E+BQQEYMXKlcK1sJqZiIiIiOjMmPEYYz4+PkhNS4NSqYRKqRSHicjB0jcP4VRTF+6dnYZnfzQDbx+owpEqFW6/LFnY/M9epWxPRgPA9dPjhM39bpuZhAa1Hs+8fwwAnJK7Wx644qytMxwT1/fOTsPj83KE9hf263F8vS0PXAHtW4sxKyPqjMduP1QDrdGMlTdPAQD8MDcGP70q3elaiWhi6OjoQHFxMSwWC3Jyc6Hw4A3fent70dTUhLi4OHHovPD29kZSUhJmz56N9IyMC5rclUgkmDZtGmbNmoVJkyaJw0REREREJMJE8zjw9/dHaloaWlpaoFarxWEicvCzrUeg1Jnw+Lwc3Ds7Ddeu3YsGtR5/e3g2bH9fgr89PBvvHa4VNvgDAI2hF/tWzRXaVvxs6xHAYeNA+7HXT4/Du1/VQBEUgKuyox1e9bS3D1ThvcO1uP+qdNj+vgRbHrgC7x2uRY+lD1dknE40Xbt2r9Pr3Ts7DZt2n8JDf/7qjMd+UdyCH28+gBCZH2x/X4J9q+ZCY+h12jyQiC4sg8GAyspKKNvbkZiYiKSkpPPeKmKiaWpsRPSkSZDJBq7kICIiIiIiOhMvvcFgEw/S2NDr9aisqEBCYiJ3KSe3cfXafThSfWFuoNw7Ow2v3/eDAYlnovHwj2WzcOOMC1PVSeOrr68PLc3NUKvViI2N9egKZkdqlQoqlQqZWVniEBERERER0VmxonkcyeVypE2ejIb6enR2dIjDREREdJ61t7fj5HffAQByp0xhkrlfb28vGhsbx2QTPSIiIiIi8kxMNI+zwMBApE2ejHomm4mIiC6Yrs5OlJw6BZ1Oh/SMDMQnJFzQ/r8TTWNDA6Kioz12A0QiIiIiIjp3TDSfB47J5g72bCYatbcPVCH4/u1sm0FEw9bd3Y3Kykq0trYiJjYWaWlp7D8somxvh8ViQUzMmTdPJSIiIiIiOhMmms+TwMBATE5PR2NjI9QqlThMREREY8hkMqG2tha1NTUICQlBVnY2QkNDxdM8ntFoRENDAxISE8UhIiIiIiKiEWGi+TySy+WYnJ6OlpYWKNvbxWEiIiI6R2azGY0NDSgtKUGAv//pPswKhXga9Wuor0dCQgKkUqk4RERERERENCJMNJ9nMpkMk9PToVQq0draKg4TERHRKPT19aG5qQknv/sOXl5emDJ1KibFxMDLy0s8lfo1NzXB19eXGyISEREREdGYYKL5AggICMDk9HRourrQ1NQkDhMREdEwWa1WtLS04LsTJ9DX14fcKVMQFx/Pjf7Ooqvr/7N373FR1fn/wF/cmYEZLsNF7ve7Ikq63mBrS1mtLc211GyttK1Wu/jNVte2iC6ubrZ2M+u3WrEZllZamxla2wZaroUCishNrsN1hssAM9z5/SFzmjmAIqByeT0fj/MQPp/PnDlzLJAX73l/6lFbW8uWGURERERENGwYNF8nlpaWCAwKgk6rRXFxsXiaiIiILsEwYG5ra0NoWBi8vL1haWkpXkoi7e3tKC0pgbe3NwN5IiIiIiIaNgyaryMzMzMEBgWhu6sLBfn56OrqEi8hIiIiA52dnagoLxcC5pCQEPj4+MDa2lq8lPpRUlwMJ2dnyO3sxFNERERERESDxqB5BPD184O1tTVyc3LQ0tIiniYiIhr32tvboVQqcSYzE+0dHQgJDb0YMHMTuytSXl4OExMTuLm5iaeIiIiIiIiGhEHzCOHh6QmFQoHcnBxoGhrE00RERONSS0sLSktKcPbMGXR3dSEsPBze3t6sYB6Euro61KrV8PbxEU8RERERERENGYPmEcTZxQU+vr4oLCxETXW1eJqIiGjcaGpqQmFhIXJzcmBubo5JkZHw9PKClZWVeCkNgE6nQ3FREXx8fdmXmYiIiIiIrgoGzSOMnZ0dQkJDoa6tRWlJiXiaiIhoTKurq0Nebi5KiothY2ODSZGRcHN3Zzg6BN3d3SguLoaHhwdkMpl4moiIiIiIaFgwaB6BrK2tERISgq6uLuTm5qK1tVW8hIiIaMzo7OxEVWUlss6ehaqmBk7OzgiPiICLiwtMTEzEy+kKFRcVwUYqhbOLi3iKiIiIiIho2Jg0a7Xd4kEaOaqqqlBZUQFvHx84ODiIp4muuZZOhj40PhTXNCJkgq14mIZRc3Mz1CoVVGo1FI6OcHJygo0t7/lwqqioQHNTEwKDgsRTREREREREw4pB8yjQqNGgpKQE9g4O8PDwEE8TXVPWVlYwNeWbIWjsa21rQ2dnp3iYhqi7uxu1ajXUajXa29uhcHKCQqGAhYWFeCkNUa1ajYqKCgSHhPD+EhERERHRVcegeZTo7OxESXEx2js64O3lBWuJRLyE6Jpg0EzjBYPm4dXc3Iza2lrUqtWQyWRwVChgb28vXkbDpKmxEXl5eQgODmaVOBERERERXRMMmkeZ6upqKMvK4OXlBSdnZ/E00VXHoJnGCwbNQ9fR0XExXK6tRWdHBxQKBRwVClhaWoqX0jBqbW1Fbk4OPD094eDoKJ4mIiIiIiK6Khg0j0JarRalpaWwtLCAp5cX3w5L1xSDZhovGDQPXl1dHepqa9HQ0ABHR0c4ODpCLpeLl9FVoN9I2MHBAa6uruJpIiIiIiKiq4ZB8yhWXl4OVU0NPD094ahQiKeJrgoGzTReMGi+MpqGBtTV16O+rg42NjZwcHSEg4MDv15cYwUFBbCysoKnp6d4iq7Qpz+VioeIRqzF07zEQ0RERETXHIPmUa6xsRHKsjJYW1vDw9OT1c101TFopvGCQfPlaTQa1NfXo76+HtZWVrC3t4e9gwNbY1wnJcXF6Orqgq+fn3iKBmFN4s94P/WCeJhoxJni44Bjz8wVDxMRERFdc0yLRjmZTIbQsDBYWlnhXFYWVCqVeAkREdGw6O7uRn19PYqLi5GZkYGKigpYWVkhJCQEwSEhcHF1Zch8nSiVSrS1tTFkJiIiIiKi64ZB8xjh7u6OwKAg1NbWIj8vDzqtVryEiIjoirW1tUFVU4MLBQVIP30aqpoaSCUShIaFISQkBK6urrCyshI/jK6hyspKNDY2ws/fXzxFRERERER0zTBoHkNsbGwQHBwMuZ0dcnJyUK5UipcQERFdVqNGA6VSifPZ2TifnY2mpibYOzggcvJkBAYFwdnFhZXLI0RNdTVq1Wr4+/vDzMxMPE1ERERERHTNMGgeg1xcXBAxcSLa29uRdfYsamtrxUuIiIgEzc3NqKqsRH5eHk6fOoWKigqYmpjA08sLkZMnw9fPD46OjgwyRxi1SoXKqir4BwQw+CciIiIiouuOQfMYZWFhAR9fX3h5e6Omuhr5eXlobm4WLyMiGpXa2zvQrNWhqVmLrq4u8fRVU1tbi4z0dPHwqNLd3Y2mxkZUVlaiID8fGenpKCkpQXt7O5ycnRE5eTKCQ0Lg5u4OW1tb8cNphKhVq6FUKhEQEABra2vxNBERERER0TVn0qzVdosHaeypqalBZUUF7OzsMMHNjZVPNGjWVlYwNR3c76hOFqgwb8tRNGjbAAA+TjY4/twCeDhIxUsvSVmnxeznvsKsYBckrYnF8h0p+CG3elDnGqjlO1Kw94dC8TA+feJG3DnNRzw85vV1P+aEuOCrP98CmbVFr7+TxpZ2LPj7NziWUz3ke3ahWAlNUzPa2ztgbmYKU1NTeLq7QuFgJ146JK1tbejs7DQaq62tRUlxMaKmTDEaH8laWlqg1WqhbW5Gc89hY2MDG1tb2PYc5ubm4ofRCFZbW4vSkhIEBgXBxsZGPE3DZE3iz3g/9YJ4mGjEmeLjgGPPzBUPExEREV1zg0uLaNRxdnZGxMSJMDc3x9mzZ1FRXn5NqwCJPvupGL969hDW3xqB7g9XovvDlZgV7IKIP3+OkwUq8fIrkrQmFkWv/f6qhcx6Pk42KHtziXD9y2b54f/2/ARl3fjcfNPwfnz6xI04llON177OFi8zCplfWDJlSCFzUWk5lBXVaGxsRktLK5qaddA0NqO4tAK19Rrx8nGlu7sbWq0WarUaZaWlyMvNRUZ6Ogry89FQXw8LS0t4eHpiytSpCAkNhaenJ+zt7RkyjzL6kDkgMJAhMxERERERjSgMmscRU1NTuHt4ICIiAm3t7Th75gyqq6rEy4iGXWNLO7YfPoc5IS54/LdhwnjSmljU/3MZpgc4AT2Vyr6PfwKTexJhck8iXjyYKaw9WaCC/YN7YXJPIpa+8b0wjp7qWt/HPxEC3xcPZgrnWL4jBSb3JOKzn4qN1uvnY54/jMaWdoOzDVy4hz3qte1Q1l583s9+KhbOa3g9+uuLef6wMG94PYbXa//gXiF4Fz/us5+Kje7Dpe6R4XOI7+vyHSnCYzBM92PuJHfMCXFBcqay1+Mf2v2jEDL/dWGk0dyVqG9oRG1dg/C5hfkv/YKbtToUFJUhr6Ck15GdW4jKarWwdrTraG9Hc1MT1Go1ypVKXCgowLmsLKSfPo3ioiI0ajSwsLTEhAkTEDFxIiImToSfvz9cXV1ha2sLExMT8SlplND/EiEwMJBtTYiIiIiIaMRh0DwOWVlZwcfHB4FBQWhubkbW2bOoqakRLyMaNtnKBpwprUdcpAdk1hbiaUDUDkNfIfvM/tP47KdiNLa048kPf4K91AJlby7BuvnhKFb13XP8ZIEK2w5lYdksP3R/uFI8LbR0KHtzCcreXIJSdTMe2v2jeNmAnFPWw15qAQ9HKU4WqPDA//sBLyyZAs3u5fBS2GDpG98LoWuxqhnr5odDs3s55oS4CJXQJwtU2HeiSLgee6kFnvzwp16P6/5wJeZOcseTH/6Ed/84S6io3nYoCycLVFDWaXHX6/8VKsYNq62fSvoZq28KRveHK/HCkinY+0OhEEIP5/3oywsHMrD3h0Ism+U3pJAZADo6O9HW3gEAsLa2QoCvNzzcJgjzLS2tqKxR9zpUtfWDqnbWaq99pXpXVxdaW1vR1NSEuro6VFVVoay0FBcKCpCdnY2M9HScO3cOZWVlaGxshKmpKRwdHeHv748pU6ciLDwcvn5+cHV1hUwuZ7XyGFJTU4NypRKBgYGwYchMREREREQjEIPmcUwqlcLP3x8+vr7QNDTgXFYWVAyc6Tr5X34NilXN+P30i20V9BWy2w+fQ1qhGmdK67H6pmB4OEjxq0Bn+Dj1/ZbxI2fK0aBtE86j/xM9YfYPudWYFewCDwcpPBykWH1TML5KVw6ofUexqhmea/cL1b+GPYiPnCkHAMyb5A6ZtQXiIj1Qqm6GRncxMPZxssGvAp0hs7YQgvL/5ddgeoATMrfcjve+z4fn2v29AnT94wBAZm2B1Gfnw9PRBvYP7jXqkfy//BrUa9sxb5I7IGonkrQmFvf/OhC+j3+CZ/afFh4z1Pth6OiZchzLqTb6ZUKxqhnvfJsLAIM6p5hJzyaAepaW5rC2HNi3MdNBVPFWVVbifHY2qqurhUOj0aC7u9toTH9cuHDhl8+rqlDVc1RWVqKyogIV5eVQKpUoKy1FSXExigoLkZ+fj5zz55F19iwy0tORmZGB/Lw8KJVK1NfVob29HZaWlnBUKODj44OJkyYhcvJkhISGwtfXFxPc3GDv4ABriUR8+TSGVFVVobqqCoFBQZCyXQYREREREY1QA/sJncY0W1tbBAQGwsvbGw0NDaxwpuvinLIBdlJLeDoOPUTp7zzKWi3qte0I97AXTw2Ivifxp0/cCADwUthALrkYqp5T1qNB24ZfPXsIJvck4pn9p43aavRH324jOVOJsjeXYE6Ii3iJQN8CY96WoziycS5eWPLLhnTnlL+0lDDU2NKOmOcPw3PtfvxjxTTh2jEM98MweF/86n/7rFpeNssP/3v+VgAwqtQeDDNzM1j1bGTa0tKK7NwLKCi+GPADgLWVJRzs5bCzk8HS8pfKeanEGo72V75RYHd3N3Q6HSrKy4Wjvq4O3d3dRmP6o6G+/pfPKypQ2XNUVVZeDAqrq6GqqYFKpYJarUZtbS2aGhvR0tqK7u5uWFpaQmpjA2uJBFZWVrCwsICZmRlMTEzQ3dWFjo4OtLW2or29Hd3d3Md3vCgvL0ddbS2CgoIg4S8UiIiIiIhoBGPQTAKZTIaAwED4+PqiUaPBmTNnUFVZyU0DacjCPOwwycu+z/69euEedmjQtqGstu+WGOgJcweiv/N4OEphL7UY8Hn6c+c0Hyyb5We0+V24hz3spJb43/O3CpsFGvaf7s8nJ4vh42SDjx79tRBa90df9f3uH2f1Om9/90/ftqSvTfiGej/EmyMmrYntNf/y8hswPcAJC6I8+t0scKDs5TIoHH8JjNs7OoWPra0t4efjgYmhAQgN9IW52S/9m/283eHi7CB8PlCWlpbw8/fH5Kgo4fD28YGpqanRmP6YMnVqr7G+jqgpUzBl6lRMjY5G5OTJCA8PR1BwMHx8feHu5gYnhQIymQyWVlZAdzdaWlpQ39CAqqoqFBUV4Xx2NtJPn0ZmRgayz51Dfl4eiouKUF5eDlVNDRoaGqDT6dDZ+cv9odGptKQEzU1NCAwKuvjfAxERERER0QjGoJl6sbW1hX9AAAL8/dHS0oIzmZkoVyrR1tYmXko0IPp2EeKgcfmOFGHzO307jE9OXuwdrG/FsG5+OKL9FJjkZY8fcquhrNMKgWtf5k1yh53UEp+cvNjbefvhc8Kch4MUs4JdhPMo67TY9V0uFkR59ApuL+eJ34bDTmqJXd/lQlmnFVpWHDlTLlQRG26sV6xqxnvf5wvXpG+JYbihoP4198fT0QZ2UkucUzYI164nvn8vHsyE/YN7UaNpEcLkq3k/Lufl5TfAx8lGuF+D5e05Ae4TnGEjsYaFuTkszM1hayOBj6cbnBx/qczuGIaQ1dPLC/b2g6v2HihTU1NYWFjAysoKUqkUtjIZ7OztoVAo4OLiAjd3d3h5e8PPzw9BQUEICw/HpMhITJk6FeEREfD184NLzyZ/piYm0Gq1qKmpQVFhIc6eOYOM9HScz87GhYICKMvKUFNTA41Gg9bWVvGl0AjS3d2NCxcuoKOjA0HBwey1TUREREREowKDZuqX1MYGPr6+CA0LQ1d3N7LOnkVxURGam/sO+Igu5c5pPvjf87di26EsocfxV+lKHNk4F9MDnODhIMXx5xbgh9xqoRXDp0/ciDun+UBmbYGPHv01AMBz7X4hqO3L9AAnrL81Ant/KIR8VRK8FMbrktbEYlawCzzX7ofn2v2YFezSqxJ3IPTPU6xqxlNJP2N6gBPe/eMsPLP/NOSrklCqbsZHj/5a6Ffs42SDstpmyFcl4UxpPfY9diM8HKS4/9eBsJda4FfPHsID/+8HeCtsjHo7i59zQZQHntl/Gp5r90MmsRCqmD0cpNj32I34Kl0ptO5494+zcOsUT6y+KVi4HyWqZiGsxjDej8vR93/W36/BsjA3R4CvJ0KD/RAe4o/QYF9EhATAxclRWGNpYY4gf29EhAYgIjQAjg5X3jZjNDA3N4dEIoFcLofCyQkT3Nzg7eODwMBAhIWHY3JUFCImToS3jw8cHR1hbm4OnU6Hqqoq5OXm4vSpUzh37hwuFBSgXKmEWq2GtrmZ72K5ztra2pCbmwsLCwv4+fuLp4mIiIiIiEYsk2atlo0eaUA6OzuF/qKWlpZwcnKCg+Mv4Q6ND9ZWVjA1Hbm/ozpZoMK8LUex/tYI/HVhJF48mIlth7KEQPt6WL4jxWjjQBodWtvaerWfqK2tRUlxMaKm/NIfe7Tq6upCa2srWlpa0NrSghaDw8LCAtYSCSTW1pBIJJBIpbC2thafgoZZU1MTigoL4ezsDNcJE8TTdI2tSfwZ76deEA9f1q4HZ2HVjUHiYQDA7v/mYfU/fxAPj2v3zgnAjvt/Jfxi1hDv18BM8XHAsWfmioeJiIiIrjkGzTQodbW1UKnVaG1pgcLJCQqFApY9m3TR2DbSg2b0BLt7fygUPn9hyZRem9SJiR9jSF9ZPVijMWi+mvdjtBjrQfOltLa0QNfSAp1Od/HQatHe3i6EzlKDg4aHWq1GSXExfH19+UvcEWIoQfNvJ3vgDzuP4T9ZFUbj984JwNZ/n8Gzn6QbPWY8u3dOAP6xYhp2fnPe6L48//sobPjdJHxwrIBh82UwaCYiIqKRgkEzDYlWq4VapYJarYadnR0cFQrY2Y3Nt6nTRaMhaCYaDv0FzR0dHXBxcTEaHw86OzuF0Fnbc7S0tFwMnG1sYNPzJyufr1x5eTnqamvh6+cHG5u+2wLRtTfcQfNvItzwr0fm4Hx5A27ZfERYa1j9bFjBm/X3O1Df3AYfZ1t4OEjR1tFlFFLrg1hL84vfkw3nn/99FO6ZfbH1ir+LDOeU9Yj48+fI+vsdCPf4pfe8flzPcL6xpR1r3vsfPjhWIFy74S9Lv82qEF6HeF583kvpL2hGz/VU1Otwy+YjvZ5DWac1usfi+2F4feL7bPjaxgIGzURERDRSMC2iIZFKpfDy9kbk5MmQyWSorKhA1tmzqKio4GZTRDTmODo6jsuQGQDMzMxga2sLZxcX+Pj6Cn2gPTw9YWVpiQaNBgX5+cjMyEBBfj4qKyrQ2NjIns+X0NnZiQsFBdBptQgJDWXIPM7senAW7prhiz/sPAaTexLxwoEM3DXDF8//PkpYMyvYBV9nXOy9/8GxAmz43SQ8//soo2pfk3sScfPmI6hpbMEDNwbhNxFuQM8GsoU1TTC5J1EIme2klrh58xGY3JOI3f/NQ7iHPXY9OAsA8M2meUbzJwtU+NvSqXjy1gj865E5aNC2CXssfJtVgZgQVzz/+yghANbP37z5COyklsj6+x3C6xgqw5Befw0N2ja8sXI60BNWPzE/XLgff9h5DNMDnLDrwVlCJfkLBzKEOQDYePtE0bMQERER0VAxaKZhYWpqCidnZ4SEhsLXzw8dHR3IOX8e+Xl5qFWr0d3NwnkiorHG1NQUtra2cHF1hZ+fHyImTkRYeDgUTk7o7OxERXk50k+fRs7581CWlaGhvh4dHR3i04xLTU1NyDl/HlZWVggIDIS5ubl4CY0xy2f5wVlmjR9yq/GbCDf8drIH9p0oEqpqn/0kHScLVFg8/ZfWROeU9UKFc9IPhahpbMGsYBc8+0k6rFZ+IMz9J6sC58svbvKq19rRiR9yq4XPI/78OTzX7hcqgL/PrkJjy8WNZ++dE4DpAU74OkMpzN+y+Qg81+7HK4ey4Ll2v1GF8g+51WjtuPiOj+Wz/CCXWGDLF2eBnmt597958FLYGIXmV2rXg7MQ6CrHD7nVWD7LDwCw+fMzwvyWL87CRS7B87+PwsrYAGh07Ujqafn0wbECyFclYfU/f8Dqf/4Aq5UfCNXSHxwrQKmaG1sTERERXQ0MmmnY2djYwMvLC5GTJ0OhUKCuvh4Z6ekoLiqCpsH4hyAiIhpbLCwsYG9vDw9PTwSHhGDK1Knw8PCAmZkZampqcPbMGZzPzkZZT/Asbk8yHtRUVyMvNxcTJkyAh6eneJrGAA8HKb7dNA/dH64UDsP+zB4OUsglFlh1Y5DRmpt7qpH1Kup1wsf/yapAg7YNbvYSYezeOQHQ7F7e52P7803Pdf3rkTnCBnxBE2QAgPI6rWi1say/34HuD1fimUWTYWVuBgDwdbaFRtcOpcFj8yob0do+8HczWFmY4plFk43uxaobg/DBsQI8+0k6fHvahxje0389MgdyycXrd7OXoEHbZtSqROz530ehNfFedH+40qh9CBERERENHwbNdFU5ODoiICAAERMnQiKVoqKyEmcyM1FWWoqmpibxciIiGmNMTExgK5NhgpsbAoOCEDVlCjy9vGBubo6amhpkZmQgNycHFeXlaGxsFD98TOnq6kJxURFqa2sRGhYGR4VCvITGCGWdVmhB8Yedx9DY0o78Kk2vHsS7/5sntILQHwPpbawPmP/1yBycLFAJ7SwuRR8wTw9wwh92HhOuayD0AbO+tcYLBzKEiubh0NreJbS2MDwMNwE0vKf6w7BSuT/6gPmZRZOF1hrnlPXiZUREREQ0DBg00zVhYWEBFxcXhISEICg4GObm5igtKUHW2bNQlpWhuZlvYSQiGi9sbW0xYcIEIXh2c3NDd3c3ypVKpJ8+jQsFBaipqRlTvf4bGxtxPjsbZmZmCAkNhUTyS1UqjW0fHCvAq4fPIdBVjm82zQN6QlONrh2+zrbi5UYMq5d/E+EGO6klKup1+HWYKzS6dty8+Yiw4d2l/CbCDaHudtj93zzIVyX12gQvr/LiL3ncDTb707t3TgBc5BK8cCDDqPWGXlFNE+QSC6ONAoMmyGBlMXw/ZvT1HIYq6nWwk1oK/akNzQp2QX6VpldwTURERETDb/j+BUg0QNbW1pjg5oaw8HD4+/vD1NQUJcXFyDp7FmVlZWga4xVtRET0CxMTE8jkcrh7eCAkNBQTJ02Cg4MDtM3NyM3Jwblz51BWVgaNRiN+6KhRWVGBCwUFmODmBk8vL/E0jQPPfpKO1Jwq3Bzhhl0PzsJ/sirwdYZS2FAPPWFw2ZtLhDAaAAJd5cK8vhdyYsrFkNgweN314KwBtc7QB9u/iXDD35ZOFVpnfHCsACcLVPjtZA8hrN314Cxodi/H7GAXWFmYCiG0fuM9feuMpB8KodG1C5vr/SbCDQ/cGIRSdfNlq40HSvwcMLi+e+cEIDGlAHKJhdDLWXwvDUPobzbNY+sMIiIioqvEpFmr5S5tNCJotVo0NDSgob4e7e3tkNvZwc7ODnK5HKam/J3ISGFtZcW/DxoXWtvaxmX/4JFG29wMjUYDjUYDnU4HuVwufH8Y6RvotbS0oKy0FCYmJvDy9oalpaV4CY1gaxJ/xvupF8TDl7XrwVn47WQP/GHnsV7Vv1l/vwOBrnKhV/M3m+YZBcTfZlUIFcpZf78DdlJLyCUWkFlboK2jS3icfl4fmCrrtEg9X4U7p/lg678vbpj3xPxwvHr4nLD++d9HYcPvJsHS/OL38I9+LERMqCsatG1Cuw7Dcxo+364HZ2HVjUHC+AfHCnDXDF+cLFDhls1H8JsIN/zrkTlC8H1OWT+gFiDoCa7/sWIadn5z/pLB9L1zArDj/l8J4XhjSzvWvPc/oTpb/Pr019DXtVXU6zA9wMno8aPZFB8HHHtmrniYiIiI6Jpj0EwjUmtrKxoaGqBpaIBGo7kYLMjlkMnlfLvxdcagmcYLBs0jT3t7OzQajfD9wcbGBnb29rCzs4OVlZV4+XVVU12NsrIyeHh4wMXVVTxNo8Bgg+bhkvX3OwBgwIEtjV8MmomIiGikYFpEI5KVlRVcXFyE/p1Ozs5oaW3FhYICnD1zBsXFxahVq9HW1iZ+KBERjVEWFhZQKBTw9/fH5KgouLi4oEWnQ25ODnLOn0dlZSV0Op34YddUa2srCvLzUV9fj9DQUIbMREREREQ0brCimUadlpYWNDY2oqmxEY2NjTA3N4etTAZbW1vY2tryrclXGSuaabxgRfPo0tjYiIb6etTX18Pc3Bx29vawt7e/pu+Cqa6uhrKsDO7u7nCdMEE8TaMMK5qHTtzOQkzc/oIGhxXNRERENFIwaKZRT6vVoqmpCU1NTWhuaoKpqSlsbGyEQ2pjI34IDVJXVxesraxGfF9UouHAoHn0ampqQn1dnRA62zs4wMHeHlbW1uKlw0Lb3AylUgkTExN4eHpe03Cbrp7rHTQTDRSDZiIiIhopGDTTmNPS0oLm5mbhaNHpILWxgY1UCmnPYc0Q4Ip1dnYiPy8PwcHBsGF4T+MAg+axobGxUQidrays4ODgAHsHB1hYXNxQbKiUSiVUNTVw9/CAs7OzeJpGMQbNNFowaCYiIqKRgkEzjXldXV1obm6GVquFVquFTqtFW1sbJFIppBIJJBIJrHv+NDMzEz+cemgaGlBUVISJEyfC1tZWPE005jBoHnsaGhpQX1eHuro6yGQyODg6wsHBASYmJuKll1VXW4vy8nLYymRwd3cftuCaRg4GzTRaMGgmIiKikaLvhmlEY4ipqSlkMhlcXV3h5+eH8IgITIqMhIe7O6ytraHVaqEsK8OZzEycPXMG+fn5UJaVQaVSoampCR0dHeJTjjs6nQ5lSiWkNjZDapuRnZOHmxYsRnRMHKJj4nDH0vuhUteKl12WSl2LO5bej/jN2wAA8Zu3DfpcA5GYtA/RMXFIOX7CaDx+8zbctGAxsnPyjMb1tDodHn5iAx5+YgO0Q9igbDhen/6e6e+9/ujvHuqvva/XTTRa2dnZwcfXF5OjouDg4IC62lpkZGSgpLgYjY2N4uV90mq1KMjPR1VVFby8veHj48OQmYiIiIiIiEEzjVdmZmawlcng7OICbx8fhISGImrKFAQFB8PZ2Rnm5uZobmqCsqwM57KykJmRgZzz51FUWIiK8nLUqtVoampCe1ub+NRjjqahAbk5OXB2dkZgYOCgN1tMOX4CK1avxX0r7kZaajLSUpMRFRmBJfc+2G9QO1AJm9bj84/eg5PCUTw1LKZHT4FcZotvvz8mjKnUtUjPzEJIcCB8vD2N1utJJRK8/epWvP3qVkhHSLuW2+bPFe5/WmoyEjatFy+BVqfD//3lOfyUlo7HHlmF2NkzxEuIRjUTExM4KhQICAxEeHg4rKytha/3lRUVaOvja3tnZyfKysqQl5sLmUyG0LAwyOVy8TIiIiIiIqJxi0EzkQErKyvY2dnBdcIE+Pj6IiQ0FJGTJyM8IgKenp5CqKDRaFCuVOL8+fM4feoUss6eRV5uLoqLilBeXg5VTQ0aGhqg1WrR3t4ufppRQ6VS4cKFC/D18xtS71GtToek/QcwLToKSxb9ThhP2LQe3331KcJCgoA+qm4Tk/YJaw2rof/6wlZhHH1U4+orkPUVu+KqXP1YdEzcgKqNfbw9ERIciPTMLOE5alRqaDQazJweDQBC9a/hdfdV0dzXc4vXiSu2xS51n4bD1u07hJB55fK7xNNEY4qlpSVcXV0RGhYGHx8ftLe3I/vcORTk56Ourg4AUF1VhbNnzqC7uxsREyfCxdVVfBoiIiIiIqJxj0Ez0QCYm5vDxtYWjgoF3Nzd4evnh+CQEEyKjMTkqCgEBAZiwoQJsLW1hYmJCbRaLWpqalBSXIzz2dk4lZaGM5mZOJ+djfy8PBQVFaGsrAyVlZVQqVSor69HU2MjdDod2tra0DUC+sJWlJejuqoKwSEhsLOzA3r6XXd1dYmXXlZxSRlycvMxc3p0v5W9KnUtVq15ElGREUhLTcb2LQl4fedupBw/Aa1Oh9d27oJcLkfywb1YvmQRypTl4lMAPYH0+3s+Fip3xeI3b0N6ZhaSD+5F8sG9qKisxtbtO8TLjEglEsycHo0yZTnOnc8FAJxMOw30VDtv3b4DFZXVSD641+i6xRKT9gnPvWfXm8jJzcf+A/8WL7ukS92n4fDeBx/hy8NHcdv8uQyZadyxsbWFl7e30FqjsqICp0+dQk1NDby8veHl5TWk9kGXI5VIxuxBRERERERjHzcDJLoGuru70dHRgfb2dnR0dKCjvR3tHR3o7Oi4+HlHBzo6O9HZ0YHOzk50dHaiq6sL5mZmMDU1hZmZGcx6PjY1NYWp4cempjA1MYGJwZ8mJiYwNTEBTExgYnCg5y3jeobbX3UbfK5UKtHd3Q03Nzdhg8TOri4oy8oQGhp6xZsBZufk4U/rNuK+FXf3G16mHD+BdRvjsX1LAmJnzxDaNwDAQw/ci//bGC883jBsTdi0XgiPd+94BYeSv8HrO3cL5zE8b3hosNHj0BP+vr/nY7y1fYtQWd0X/WuInTMTG9atEa7t6acex9onnxbOqb+2O2+fjyWLfiese+nZjXj6+S1wdXHu1a7C8LX+42/PQavV9fv6zp3P7fc+/eNvz/Ub6OivyzCgl8tshdcdv3kbvjx8tM+58YqbAY5fDQ0NqKyshAkAR0dHtLW3o662Fubm5nBwdISjo+NVCZz7+/93LLjcO0dGIm4GSKMFNwMcPTZ8nA5VY6t4mGhM2L36V+IhIhqHGDQTjVDd3d3o7OxEV2cnOru6Ln7c1YUu/Z+GR3c3ug3+7O7uRnd3N7q6u4Gej7u7L/6v3n3x5L88T8+fJj0fd3d3o7m5GdZWVjC3sBDGuzo70dLSgsjIyKsSNIsD36EEzYbnMQyanZ0Uva5D/Lz9MbyeB1feg/VPJ+C+FXdjevQU/GndRmgam4zW3zZ/7iUDaUPisPhSQbP49Ykf219QJb5nYvqg+bb5c7F08R3407qNCAkOvOQ5xzoGzeNPo0aDqqoqtHd0YIKrKxwcjfu+azQa1NXWora2FnZ2dnBwdISDg4PRmqEYy/+vMWgmunoYNI8eGz5Ox5tHL747jmgs8XWyQdaWW8XDRDQOsXUG0QhlYmICc3NzWFpZQSKRwNbWFnK5HPYODnBUKODk7AwXV1dMcHODu7s7PDw94eXlBW8fH/j4+sLXzw/+/v7wDwhAQGAgAoOCEBgUhKCgIAQFBwtHcM+h/zgkJATBwcHo6uqCnVwujIeGhQ36beP6Hsc/nkzrN2zw8/GGprEJNSq1eEpwoahEPNSn/s7j7KSAXC4f8HkMSXvaZ+Tk5mPvJweBnrYZ+nNebpM9qUQCtwkuqKqu6fceDMRA7tNgeXq449GHHkBYSBBi58zET2npV9zag2g0amxsREF+PkpLS+Hg4ICwsLBeITMAyOVy+Pj6YnJUFOzs7aFWqZCRno6S4mJoNBrxciIiIiIionGFQTMR9WJra4vgkBDUNzSgtLRUGFc4OcHS0tJo7UBIJRIsX7KoV3AZv3kbblqwGNk5eQgPDYanhzu+/f4YAODnUxn4KS0dy5csQkhQgNFmfOfO5/bbo3l69BTIZbb49vtj0PZsQqjnpHBEVGSEcB6VuhaffXEYsXNmXrKaWW969BQAwHcpxxESHAgfb89e50w5fqLX5oMAIJFYC0F1cUmZ0YZ/UokEri7OqKishlaru+Tru9R9Gs5qyEcfegCeHu747IvDwgaIRGONRqNBfn4+SktKYGdvj/CICCicnMTLejE1NYVCoUBgUBDCwsNhZW2NivJynD1zBmWlpWhqMn6Hw3Dp6OjAN998g+effx6HDh1CW1ubeMk19fHHH+O5557Dd999J54iIiIiIqJxiK0ziKhf3d3dKCosRHd3N3z9/GBqagprKyuYmg7ud1T6Fhr6NhPiPsDiPsL6PsTiuWnRUaiorO6ztYSTwhGJSfvw+s7dQE8Liy8PHzU6l2E/4tvmz+1VfdwffZuKn9LS8dgjq4T2G4bjAIS5vtpaGD73tOgoYdzw3lzu9V3qPvVnIK0zDJ8DPW1FXt+5+4ru0VjC1hljV319PWqqq9HR0QEXF5cBhcsD0aLToa6+HvV1dejq6oK9vT3s7e1hM8B2Q5f7ZVFubi7uv/9+/Pzzz9i0aRM2bdoECwsLYb69vR0XLlxAZWUlzMzMEBkZCblcbnSOvtTX1+Ps2bPo6OiAubk5QkND4WRwTzo7O1FYWAilUglXV1cEBgbC3Nwcf/nLX7BlyxYsWLAAH3zwARz7qALXG8o7Oa6XxGPF0LV3iIeJRqSHbwoQD9EIxNYZNFaxdQYR6TFoJqLLKisrQ3NTE7x9fGAnlw+qfca1Iu4HPdAezERiDJrHHrVKhZqaGpiYmMDFxaXP9hjDRavVoqG+HvX19RdbEdnbw97ODrYymXip4HJB8969e/GHP/wBXl5e+Ne//oU5c+YIc+3t7Thw4AC2bt2K9PR0WFlZ4ciRI0Zr+vP5559j2bJl0Ol0kEgkWLduHZ577jkhxNZoNNi4cSPeeecdLFq0CG+99RZcXFyQnJyMRYsWQS6XY+fOnVi0aJH41ILRGDRbWliM6O93RHpdXV1oaeUGc6MBg2Yaqxg0E5He4MoSiWhc8fT0hJ2dHc5nZ6OlpUU8PaLo+wu/vnM3omPi8PrO3bhvxd2XDZnjN29DdExcn4e4DcZIpNXp8PATG3pde3RMnNCehGg86ujoQGVlJc6eOYP6+nq4u7sjJDT0qobMACCVSuHm7o6w8HD4BwTAzMwMZWVlOJOZiZKSEjQ0NIgfckmdnZ04cuQIOjo64Ofnh8jISGHu/PnzeOqpp/Dkk0/i1KlT6Orqgk6nQ0fHwKpxGxoaoOsJgnU6HT777DNkZGQI893d3WhtbUVXVxc0Go3wfSAwMBBRUVGoqanBkSNH2KeaiIiIiGicY9BMRAMik8uN3qI9kiVsWm+0MZ++xcWliB9jeFyuLcVIIJVI8ParW3tde1pqMr776tPLBu1EY41Wq0VpSQkyMzPR1toqbIwqt7MTL73qJBIJ3NzcEBoWhqDgYFhZWaG6qgrpp0+j8MIFqNXqy4bClZWVyMzMBABMnTrVqCXG7t278dprr0EikSA4ONjgUVdGIpHA0dER+fn52Lt3L5qbm8VLjLi7u+OGG25AV1cXjh07hrKyMvESIiIiIiIaRxg0E9GA2NjYwM3NjW8jJqIRra6uDvl5ebhQUABzCwtMmjQJ3j4+kEql4qXXhbW1NVxdXREUHIyJEydCbmcHTUMDzp45I15q5OzZs6iurgYAhIWFGc25urpizZo1eOuttzB9+nSjuSvh7e2N+fPnw9TUFJ988glOnz4tXmJEIpFg0qRJkMlkyM3NRXFxsXgJERERERGNIwyaiWjAFE5OsLS0FA8TEV1Xba2tqCgvx9kzZ6BSqeCoUGDipElwc3Mb0e/EMLewgEKhgJ+/P6KmTBFPG8nJyYFarQZ6KokNPfLII9i+fTumTZs2pK/RUqkUS5cuRUBAAEpKSnDgwAHxkl78/f3h4OCAtrY2FBQUiKeJiIiIiGgcYdBMREREo1J9fT0uFBQgOzsbnZ2dCAgIQFBQEByvcv/la62lpQUXLlyATqeDi4sLFAqF0byNjc2wBOqtra3w9PTEggULAADJyck4deqUeJkRd3d3yHo2OFQqleJpIiIiIiIaRxg0ExER0aih0+lQrlTi7JkzqK6qgp2dHSInT4anlxckI6Q9xnBrbW1FY2MjAEAul8PKykq8ZFi0tLSgubkZS5Ysgb+/P3JycvDxxx8LGwX2xcbGRqiirqmpEU8TEREREdE4wqCZiIiIRrT29nbUVFcjNycHBfn56AYQEBiI4JAQKJycYGJiIn4IDcGkSZOwcuVKWFlZ4YsvvsC5c+fES4iIiIiIiHph0ExEREQjTmdnJ9QqFQry85F19iy0Wi1cJ0zAxEmT4OHhAYlEIn4IDROpVIoVK1YgNDQU58+fx5EjR8RLiIiIiIiIemHQTERERCNCe3s7VD3hcmZGBjQaDRwdHTE5Kgo+vr6ws7MTP2RcMDU1hZmZGdBzj7q6usRLBqSrqwtFRUVISUnBmTNn0NraKl4i8PHxwcKFC2Fubo6vv/4aFRUV4iUAgI6ODuF6rlZLj+tBrVZDo9GIh4mIiIiI6BIYNBMREdF1o9PpUFVZidycHJzLykJTYyMcFQpMjoqCn78/HBwdx31rDIlEImxwWF1djaamJvGSAWlsbMTLL7+Mm2++GX/84x9RWloqXiIwMzPDwoULMXnyZGRnZ+PYsWPiJQCAuro6oYezi4uLeHpU6ujoQFVlJTo7O8VTRETXxa4HZ6H7w5W9Ds3u5bh3ToB4ORER0XXDoJmIiIiuma7OTtTX16O0pARZZ8/iQkEB2trbMWHCBEyOioKvnx8cHBxgasp/ouiZm5sjICAAMpkMOp2uV3XxRx99hBtvvBG33XYbvvrqK2F83bp1uPHGG7F9+3agJ2i+cOECOjo6oNFoLlnRDADBwcG4//77IZVKhc0IzczMjP5uiouL0dDQAPRUQY8F9XV1aGtrEw8TEV1Xyjotbt58BCb3JArHyQIVdtz/K4bNREQ0YvCnOCIiIrqqmhobUVFRgdzcXGRkZEBVUwNLKyv4BwQgYuJEeHl5QT5O22IMVHh4OJydnYGecNdQcXExvv/+exw7dgyVlZXCeHp6Or7//nvk5OQAPZW6+nB54sSJQgWyhYUFzM3NYWNjY9SexNLSEsuWLcPcuXOBnsDb398fMpkM6OmjnZeXh7q6OshkMvj7+wuPHa3Ky8tRXVOD4JCQIbVqUalrccfS+xEdE4fomDjctGAxsnPyxMsuS6vT4eEnNuDhJzZAq9Mh5fgJRMfEIeX4CfHSYZOYtE+4bsMjMWmfeOm40Nf90P99Zufk4aYFi43ujf7vSP93RnQ1JaYUoLW9C0ETLn5dvndOADS7lwsVz1l/v8No/Teb5glzrYn34vnfRwlzWX+/w6haWvxYIiKigWDQTERE1If29nbxEA1AV1cXGnuC5by8PJw+dQpKpRJdXV2YMGECoqZMQWBQEFxdXbmh3xWIiIiAp6cn0BMgG7Z1WL58Ob777rt+jyeffBIAkJ2djczMTAQFBeH++++HQqEAANxyyy349ttvkZiYiMDAQOG8AODo6IitW7fiu+++w7fffounnnpKCJrr6uqQnp6OtrY2TJ06Fd7e3kaPHW2Ki4qgbW5GcHAwpFLpoKvqs3PysOTeBxEVGYG01GSkpSbjvhV3Y8XqtUMOiGNnz0BaajJiZ88QTw0rucwWe3a9KVz/Y4+swvt7Ph5UWD4WiO/Hd199irCQIPEypBw/gXUb4+Hp4Y4Xn9kAKb/G0TV075wA7Lj/V9h3oggm9yTi5s1HYCe1xDeb5gE97TemBzjhDzuPweSeRHxwrABPzA/HvXMCkPX3O2AntRQqpnf/Nw/hHvbY9eAs8dMQERFd0uD+BU1ERDTGlZeXQ6VSiYdJpLWlBbW1tSgrLUXO+fPISE9HRXk5urq64OLigsjJkxESGgoPDw/I5fJx3295sOzt7TFjxsVwMTs726hy2cvLCzfeeGO/R1DQxUDs0KFDUKvVWLZsGW6++WYhSHV2dkZsbCymTJkCa2tr4bx6fn5+uPHGGxEbGwtfX1/hcaWlpfjxxx9hbm6O2NhYuLu7ix8qKCoshLKsDNXV1airq0NTUxNaW1tHRB/kjo4O5OXlASYmCAwKgrm5uXjJFfno088hl8vx6EMPCGMrl99lFBCLK54NK2IN5/746FNoamoW5sQVzYbVtvGbtxnNiefvWHo/VOpaYe5K+Pl4Q9PYhBqVGjC4DvF59eP6a9F/rGd4PYZV3uLHxW/e1useGZ5HX0msnzN8zYbPLX7Nw3U/+pKdk4f4l16Gp4c7du94BU6Ki33Via6mjbdPRGtHJ/6bXYWVsQEoVTdj9T9/AAD8J6sC7/43D5O9HfG3u6Px28keOFmgwgfHCgAAq//5A+SrkvDBsQJE/PlzeK7dj/9kXWzN9H12FRpb+At3IiK6cgyaiYiI+mDS06uVftHa2oq6ujqUK5XIz8tDZkYG8vLy0FBfDwtLS3h4eiJqyhQEh4TAw8MDdnZ2MDMzE5+GBunmm2+GQqFAaWkpUlJS0NXVJV7Sr9rai4HaI488gvvuuw8WFhbiJVcsLS0NpaWl8Pf3x4IFC2BpaSleIpDb2cHc3Bxtra2oN/hv6ExmJtJPn8bZM2dwPjsb+Xl5KCosRGlpKSrKy1FdXQ21Wo36+no0NjaiubkZLS0taGtrQ0dHxxXdg75otVrk5uTA1sbGqMe0Wq2GRqMxWjsQKnUt0jOzEBUZ0W/QqFLXYtWaJ4WK5+1bEvD6zt1CWPrGO+9Co9Fgz6438fRTj0NZbtyTWy87Jw/v7/kYt82fi7TUZPE0EpP24f09H2PPrjeReuQg3Ca44K8vbB1UO4fC4hLIZbZwdlIIgepjj6y65Hn1ldBfHj6KlOMnkJ2Th6P/SUHywb1IPrgXcrkcr+3c1efjEjatxxvvvIs7b5/f6zwqdS02xm/GfSvuRlpqMm6bPxevvPEOVOpapBw/garqGqQeOYg9u96ERqPBG++8Cwzz/RCrrlZhY/xmAMCWhE39/t0TDYWHgxTfGrS+6P5wJbwUNvjLR6fwn6wKuNlLEO5hbzT/zKLJsLIwhYONJeQSCxTVXHozWX1rjX89Mgcy66F/nyAiovGHQTMRXTPiCqTBVhPpq5z01U3xm7cN+lxX4lLXb9inUdxTcyhefvWtIb1VWVwRJq4ME987/bWLK8TGIyuJBG1tbShXKsVTY15HezsaGxtRU1ODkpIS5ObkICM9/WI/3tpamJiawtnFBWHh4Zg4aRL8/P3h6uoKW1tbVixfRVOmTMFtt92Guro6pKSkQKvVipf0y9HREW+++Sbeeust+Pn5iacH5cSJE+jq6sJNN92E6Oho8bQRR0dHuE6YAE8vL/j5+yM4JAQREyciasoURE6ejODgYHh7e8PFxQVyOztYWVkBJiZoa21FU2MjatVqVFZUoLS0FBcKCpCbk4NzWVnIzMjAqbQ0nD51Chnp6cjMyMCZzEycPXMGWWfPIisrC+d6juLiYuFj/ZFz/jw6OjpQV1cnjGWdPYvSkhJ0dHSIX8awOHc+F2XKctz86zkAgBumTsa06Cgk7T+AUmU50jOzEDtnJsJCguDj7YmQYON2Jnon005D09gknEf/J3q+lv94Mg0hwYHw8faEVCLB8iWL8FNaOn4+lWFwlr5pGpuwYvVa4XvG+3s+xlvbtyAsJAgn004DAKZHT4FUIsHM6dGoqKyGVvvL9zv9tdwadws8Pdzx7ffHEBYShD273sSh5G8Qt3AZypTlwnrx4wAgYdN63Bp3C+5Yej9e37lbGD93PhcajQbTo6cI6z7/6D04KRwRO3sG3n51K7Zu34EVq9dC03gxVBvu+2FYXY2eKvYyZTk0jU346NPPjeaIhktfmwHqK5L1zinrjeb1a47nVhudS0wfMOtba/xh5zFWNBMR0aAwaCaiayLl+AmsWL1WqEBKS01GVGQEltz74JCCVIh+yLxaruT6pRIJ3n51K95+deuQ+jMmJu3DV0e+FQ8Pir7iTX8kbFovXgKtTof/+8tz+CktHY89suqq9wAd6VxdXBASGgqtVouioiLx9KjX1dUFnU6H+vp6VFVWori4GLk5OcjMyMC5c+dQUV4OnU4HibU13N3dETFxIiZOnAj/gAC4ubnBzs5uWKpiaeAUCgWee+45fPvtt3j88cf7bHNxLT3xxBP47rvv8PTTTw/pvwVTU1NYWllBamMDuZ0dHB0d4eLiAjc3N3h6ecHH1xf+AQEICg5GaGgowiMiMHHSJEROnoyoKVMwNToaUVOmYOKkSQiPiEBoWBiCQ0IQGBSEwMBA+AcEwD8gAK6ursLH+kO/IaLrhAnCWEBgIGRy+aB7NF+OYXXwUPV3Hq1Wh4rKari6OA/q+5C+J/GeXW9CLrOFXC4XnudCUYlR8Pr6zt3QaDRCW43+6Ntj/HgyDckH92Ja9C+bkInpf+kZt3AZnnz0IWzfkiDMFRaXGK01pG+NAQDJB/fC0+NiO5fhuh/9fQ/Vz982f65QeU10rVXU62AntcRvItzEU1DWaaHRtcPX2VY8hd9EuCHU3Q67/5vXK7gmIiK6UlfnX9BERAa0Oh2S9h/AtOgoLFn0O2E8YdN6ow11xNW3hj0rDauJ//rCVmEcfVTlXq5npWH/xoFUHQ/0+g3XG1Y0G1YJG74uw3Xrn34e0QZV0inHT1z84b3nh/mU4yf6Pc9w2bp9hxAyr1x+l3h6XDIzM0NgUBBMTUyQl5s7qjYI7OjogE6nQ0NDA1Q1NShXKlFUWIicnBycycxEZkYGCgsLoVar0dHRARsbG7i5uyMsPPxihWlICLy9veHs4gJbmWzIfWtp6ExNTeHr64vY2FiEhoZe97+TiRMn4sYbb4SXl5d46pozMTGBmZkZzM3NYWFhAUtLS1hZWcHKygrW1tb9Hh6envD29kZJcTGam5uFcX9/f8jlcvHTXJaTwhFRkRFIz8zq91024n7Hfamqrrns9yb0VNr2dR6pVAK3CS4DPk9/wkKCcN+Ku1GmLBdaUPj7evcKXvv6Xij27ffHftkkT3rpsLe4pAw5ufl9/tKzv/unr1qeFh2FDevWGM0N1/3oz30r7kZYSBCWLr4Dcpmt0MqD6FpKTCmAXGKBTXdMEsa+2TQPZW8uAQB8naHE9AAn3DsnAADw/O+joNm9HPfFXvxcH0L/JsINf1s6la0ziIhoUBg0E9FVp/+Bceb06H4riS7Vs1Kr0+G1nbsgl8uRfHAvli9Z1OdbbjGAnpXxm7chPTNL6BFZUVmNrdt3iJcZGcj1X8rW7TtQUVmN5IN7e/XiBICc3Hys+sMyoZ/koeRvEDt7Bh57ZJXww3zs7BmXPc9QvPfBR/jy8FHcNn8uQ+YehqGyt48PbGUy5OXmXlG7guHU1dWF9vZ26HQ6NDU2or6uDqqaGlRUVKC0pAQXLlxAbk4Oss6eRfrp08g6exZFhYWoqamBVquFqakp5HZ28PDwQGhoKKKmTEF4eDgCAgLg4ekJJycnyGSyIVWmEo1G9g4OCA4JQWVFBSorLvZDNjExGXRF89LFdxj1BobBL0BTjp9AeGiw0E4CAH4+lYGf0tKxfMkieHm4IyoyAjm5+SguKRO+//RlevQUyGW2+Pb7Y8IvRPX0LS305zH8hekNUycbnedy9O0vUo79iOycPKFlxcm0071+saqXtP8AtDodDiV/I7QJ8ff1Fiqf9a+5P85OCsjlclwoKun12sT3LzFpH25asBjFJWVwdXEW2njonxvDfD8uxTCYP5T8jXia6Kr64FgBXj18DjEhrkKP5lB3O/xh5zH8J6sCq//5A04WqPCvR+YI/Zv3nSjCH3Yew7v/zRMe9+2meUg9XwVlnRYzg5zFT0NERHRJg/sXNBHRMLtUz8qcvALk5Objztvnw0nhKPyQ2ZdL9awUb9LkpHDEnbfPF354vhrUtXVGz6m/dsO3/urfkmz4g7WY+Nr7Os+lfHn4qFAJfdOCxUavt0xZLvSUvJr3YrQpVypRVlaGxsZGNDY2wtbWFnZ2dsjNyUFlRYUwrj+qq6uNPtdoNNBoNGhoaEB9fT3q6upQW1sLtUqFmpoaVFdVobKyEuXl5SgrK0NJSQmKiopwoaAAeXl5yDl/HueysoTN0jIzMnA+OxtFhYUor6hAbW3txWCnuxvW1tZwcHCAu4cHAoOCEDl5MiZHRSEsPByBgYHw9vHBBDc3ODo6wtbWFhaX2LSNrh9tzzsgxuIx0tnY2CA4OBgajQalJQP7utqfsJAg7P/gn0jPzBK+7r6+cze2b0lA7OwZcFI4YveOV4T5dRvjhTkA2LBuDUKCA7Fi9Vq89PJr8HDv/TZ4GISaXx4+iph5C+HqYhwIrVx+F+5bcTdWrF6LmHkLAQD/+NtzV/wLUyeFI5589CFoGpvw2s5d8PH2RMLTT+H1nbsRM28hKiqrL1YpG5w3MiIMty5egdd37haqkm+NuwVyuRwrVq9F/Esvw8PdrVdvZz3992f9ayuvqIJcZovC4hI4KRyxJWETUo79KNzbhKefEiqKNRoN4hYuw/t7PoaHu5tQxTxc9+Ny9MH8+3s+5vdTGjar//kDPNfux3+y+t4cVO/ZT9JhtfIDoT+z+DG3iHo8r/7nD30+btmbKfBcux8Rf2bPcSIiujImzVptt3iQiKg/1lZWV1zllZ2Thz+t24j7Vtzdb7Wsfjd4/WZD2p5+wQDw0AP34v82xguPN6x+Tti0XqhS3r3jFRxK/sboPCnHTwg/xDs7KXpdh/h5+zKQ6zdcs2TR73pdu35DIr3b5s/FhnVrhHX/+Ntz0Gp1Rq/L8NoA4E/rNvZ5HnGvSEPieyUWv3mbUMm8dPEd+NO6jQgJDrwqP3yPNufPn0dDQ4PQB1f/zVLXUx1sJeqP29nRYdTKQL8pnomJifFhagpT8Z+mpjDr+dPUzOzix2ZmMDM4rvT/OyIanMLCQrS0tMDP1xeOjlev9/9Qib83DeT72dVm+D1X3PKCrp6uri60tLaKh2kE2vBxOt48miseJhr1fJ1skLXlVvEwEY1D/KmViK46H29PhAQH4seTaf1WtvXXc9FQX5W+fenvPJeqGL6UgVx/f5wUjpDL5QPajO9S9Nc+1PP0xdPDHY8+9ADCQoIQO2cmfkpLx/4D/xYvG3dkMhkCg4IQFByMoOBg+Pr6oru7G44KBSZFRiI4ONjoCAsPF9YGBQdf3IgsKAgBPZuR+fn7w9fPDz4+PvDy9oanpyfcPTzg5uYGV1dXODk7w1GhgL29PWRyOWxsbGBtbQ0LCwuGzETXkJeXFzra29HR0SGeGlH0X7Nf37lbqOzV9wq+FP2mfH0d8Zu3iZePebwfRERERMOHP7kS0VUnlUiwfMmiXgFm/OZtQhsHcc9Fw56VIUEBCAkOFDZX0rfZ6MulelaKN2lSqWvx2ReHETtn5iV/MB/I9fdH4ehg9Jz6H2ivtLey+NoHe57LefShB+Dp4Y7Pvjg87jcycnJ2hqSnqru5qQm5OTmws7MbERufEdHVY25uDplcPip+wZOwab3RLx/7e9eNodjZM4weM5y/vNSfezRVM1/N+0FEREQ03oz8f0ET0ZgQO3sG9ux6E+/v+VioFEo59qPwFt9L9ayUSiR48ZkNAIC4hcuQtP9Avz2aL9ezMmHTekRFRiBu4TLELVzWb0sJsctd/6VsWLcGbhNcELdwGdZtjBf6VV6OfsOlFavXIjFp36DPcyX0fTHLlOVGG1mNZ3V1dcjNzYW7hwcmTJggniaiMcjHxwdyuVw8TEQD0NHRge/+8x/8bfNmfP3112hraxMvuaY++eQTvPTSS0j5/nvxFBEREQ0z9mgmoisymB7N19JI7FlJo1NTczNUNTWoqqqCr58fZDKZeAkRjWGWFhZGfdeJRqqR1qM5Ly8PDz/0EE6dOoWnnnoKT/35z7CwsBDm29vbUVRYiMqqKpiZmWHSxImQDeAXOw0NDcjKykJnRwfMzM0REhIChUIhzHd2dqKoqAjl5eVwdXGBf0AAzM3N8eyzz+KVbdsQFxeH3e++CwcHB6PzXkvs0UxjFXs0E5HeyE2LiIgGYbA9K+M3b+vVm1GoXB7m9hTDSavT4eEnNvS65uiYuMu29aBLU5aVobq6GsEhIQyZiYiIBuj06dP4+eef4e7ujhtvuqlXyPzFF1/gvvvuw4L583H7736HM2fPGj2+P6mpqbj9d7/Db3/7W9z+u9/hjTfeQHt7uzCvbW7GG6+/jgXz5yMhIQF1dXUAgNjYWEgkEpw+fRqpqakGZyQiIqLhxopmIroiI72imWi45OTkoKurCz6+vuIpIhoHWNFMo8VIqmju7OzEn/70J+z54AP8+sYb8fFHHwnVyrk5Odi1axcOHjwIpVIpPObrr79GTGyswVn6lvThh3jwwQeFz4NDQrB7925MnToVAKDRaLBhwwb8KzERv7n5Zrz11lvw8vLChQsXsHrVKvz000944IEH8OKLLw6ogvpqYEUzjVWsaCYiPaZFREREfbC1tYWLq6t4mIiIiPpRVVWFs2fOAACioqKMAt33ExOxY8cOSCQSBAVd+p1mlyKRSODg4IALBQXYv28fmpubxUuMuLm5YerUqejq6sIPP/xgFHITERHR8GLQTERE1AcnZ2dIJBLxMBEREfXj3LlzqKmpAQCEhoQYzbm6uOChhx7Cq6++iugbbjCauxKeXl6YFxcHU1NTHDhwABkZGeIlRiQSCSImToStTIb8/HyUlJaKlxAREdEwYdBMREREREREQ5abm4va2loAgJu7u9Hc6gcfxNa//x3RN9wAS0tLo7krIZVIsGTJEvj5+6O0tBT//uIL8ZJe/Hx94WBvj7a2Nly4cEE8TURERMOEQTMRERERERENSUtLC4oKC6HT6eDs7AxHR0ejeRsbG6ONAQerta0NHh4eiIuLAwAcPXoU6enp4mVG3NzcYGtrCwAoLy8XTxMREdEwYdBMREREREREQ9LW1obGpiYAgFwuh5WVlXjJsGhtaUFzczPuvPNO+Pn5IS8vD5988gl0Op14qUBqYyNUUatUKvE0ERERDRMGzURERERERDSqRERE4J577oGVlRUOHTqE89nZ4iVERER0jTFoJiIiIiIiGqXa2tpQVVkpHh7zpFIpli5bhuDgYOTm5OCbb78VLyEiIqJrzKRZq+0WDxIR9cfaygqmpvwdFY19rW1t6OzsFA8T0ThhaWEBc3Nz8TDRiNPc3IyzZ88iMCgIEolEPH3NNDU2YuPGjXjvvffg7e2Nj/ftQ2RkpHgZNBoNNmzYgH8lJgIAvv76a8TExgrzXV1dKC0tRWlpKRwcHBAYGAgrKyskffghHnzwQfj5+eGfu3Zh5syZ6OzsxLaXX8bmzZsRFhYGNzc3HDlyBL+5+Wa89dZb8PLyAgAUFhZi2dKlOHPmDP74xz9i+6uvCs93LRWqdLC25NcVGpvc5EPvwU5Eox+DZiK6Igyaabxg0Ew0vjFoptGiubkZmZmZUDg5wdPTUzx9zXR0dCAhIQH/eOUVSCQSfPHvf2PWrFniZZcNmjUaDeKffRbvvvsupk6dil27dyMgIKDPoBkAzp07hz8++CCysrJgaWWFpsbGXkHz6dOncf999yEvLw9PP/00Nj39tPB81xK/rtBY1d3dDV1Li3iYiMYhpkVERERERMNIpa7FHUvvR3RMHKJj4nDTgsXIzskTL7ssrU6Hh5/YgIef2ACtToeU4ycQHROHlOMnxEuHTWLSPuG69ccdS++HSl0rXnpVie+h/ojfvA3ouU7xfY3fvA3RMXFITNpncKaxz9raGhMnTUJrSwuKCgvF09eMubk5/P39YSuTQafToVLUzmP//v34bVwcFt95J5K//loY//Of/4zfxsXhjTfeAAA0NjaisLAQHR0d0DQ2oq2tzeAsvQUGBuLeP/wBEokETY2NAAAzU1OjwoiSkhI0NDQAALy9vYVxIiIiGl4MmomIiIiIhkl2Th6W3PsgoiIjkJaajLTUZNy34m6sWL12yAFx7OwZSEtNRuzsGeKpYSWX2WLPrjeRlpqMPbvehEajwRvvvCtedk3cNn+ucB/TUpORsGm9eAnQEzJ/efgobps/FyuX3yWeHtNMTExgZmaGgMBAmJqaIi83F+3t7eJl10RoaCicnZwAAKUlJUZzpSUlSE1NxQ8//ICqqiphPDMzE6mpqcjLzQV6KqNbe8LliPBwODs7AwDMe6qBpVIp7OzshMdbWlrirrvuws0333xxnbk5/Pz8IJPJAACdnZ0oyM9HfX09bGUy+Pr5CY8lIiKi4cWgmYiIiIhomHz06eeQy+V49KEHhLGVy+8yCojF1bqGFbiGc3989Ck0NTULc+KKZsPqY301r2GYbTg/2KrksJAgxM6ZifTMLKjUtUKVdV/Xnp2Th5sWLBbmDK9Ff31DuZb+JCbtE0Lm/oLo8cLbxwe2Mhlyc3Kgbf7lv51rJTw8HB4eHgCAjMxMoxZUd919N77++ut+j8cefxwAkJOTg7NnzgiVyo6OjgCA3/zmNzj01Vf4565d8Pf3F84LAA4ODnjhxRfx9ddf49BXX+GJdetga2sLAKivr0dmZiba2towJSpKaKdBREREw49BMxERERHRMFCpa5GemYWoyAg4KS6GY2IqdS1WrXlSqHjeviUBr+/cLYSyb7zzLjQaDfbsehNPP/U4lOUV4lMAPaHu+3s+Fip+xRKT9uH9PR9jz643kXrkINwmuOCvL2yFVqcTL70iW7fvQEVlNZIP7jW6dpW6FhvjN+O+FXcjLTUZt82fi1feeAcqdS1Sjp9AVXUNUo8cHPYK6e9SjuP1nbsxLToKG9atEU+PC21tbagyaFPh5uaGCRMmIDc3F/X19UZrrzY7OztMmz4dAJBz/rxR5bKnpydiYmP7PQIDAwEAXx8+jNraWiy56y7ceOONQgsMJycnzJkzB5MnT4a1tbVwXj1fX1/ExMZizpw58PHxER5XVlaG//3vfzA3N8fsOXPg5uYmfigRERENEwbNRHRNGFYyGVZfDURi0r4Br+1PX88v7u1IRER0tZ07n4syZTlu/vUcAMANUydjWnQUkvYfQKmyHOmZWYidMxNhIUHw8fZESPDF8E3sZNppaBqbhPPo/0RPb+cfT6YhJDgQPt6ekEokWL5kEX5KS8fPpzIMznJ52Tl5SDn2I6IiIwDAKEgPDw2Gp4c7CotLcO58LjQaDaZHTwEAJGxaj88/eg9OCkfEzp6Bt1/diq3bd2DF6rXQNDaJnqV/Xx4+2u/3bU1jE3b/ay8ADOq1jRWdnZ0oLy9H1tmzOJeVhXNZWaiqqoK5uTkuFBQYjZ/LysL57OyLH587h+xz53A+Oxu5OTnIy81FQX4+CgsLUVJcDGVZGSorKlBTU4O6ujo0NjaipaUFHR0d4kswctONN8LR0RFlZWU4duwYurq6xEv6VVdXBwB48MEHsWLFClhYWIiXXLHTp0+jrKwMfn5+iIuLg6WlpXgJERERDRMGzUR0zRj2WUw9chBV1TVDDpCvhLjP430r7sZrO3cNubqLiIhooAqLSyCX2cLZSSGeumL9nUer1aGishquLs6QSiTi6cvSNDZhxeq1iI6Jw4rVaxESHIgN69agRqWGRqMRwt+4hctQpizHhaISFBYb9+M1pG/hAQDJB/fC08NdvKRfht+7v/vqU4SFBBnNT4uOwmdJu+Hp4S5UUI83JiYmkNrYwNfXF/4BAfAPCICnlxfMzMxgb2+PgMBAYdw/IAC+fn7wDwiAn58ffP384O3jA3cPD0xwc4OTszPs7ewgtbGBuYUFurq70aLTob6uDpUVFUJwnX76NLLOnkVebi6Ki4pQUV4OtVqNpqYmhEdEYP6CBaivr8fxY8eg1WrFl9wvBwcH/GP7drz62mvw9fUVTw/KyZMn0dXVhdjYWEyZcvEXIURERHR1MGgmoutCKpHg8UdW43TGWaE6Sd97Un+kHD+BlOMn8PrO3fjy8FEhlO5r3WBMj56CpqZmaLUXg2bD3pKG/SPjN2/Dy6++JfTMNAzHxX029XPZOXm4/e77cPvd9wnnutR1G/bR1Pe7FPfBfPiJDUIoLp4b7D0gIqLh46RwRFRkhNDPuC9+Pt7QNDahRqUWTwmqqmsG9EvQ/s4jlUrgNsFlwOcRM9wMMC01GW+/uhVSiQTOTgrI5fJev7hN2LS+39elr66+Gq0t5DJbPP7Iavh4eeLO2+ejTFk+bC05RhMrKyuEhITAxtYW1tbWaG9vR3FRERQKBfwDAmBtbd3nIZFIIJFIIJVKYWtrC5lMBjs7Ozg4OsLJyQmurq5wd3eHl7c3/Pz9ERQcjPCICEyOikLk5MkIDAzEBDc32PZsutfY2AhlWRmqKiux+M478fY772DhokVo1Gig0Wiu2waFa9euxddff40/b9gwLBXSRERE1D8GzUR03fh4e8LdzRU1KjWyc/Kw7fW3hR9sH3tkFZL2H8ANUyfjsUdWCRv89LduMD9In0w7DVtbG0ilEqG3ZMLTTyEtNRlRkRFGvSy/OvIttiRsQvLBvUjPzELK8RPQ6nT46wtbceft85GWmow9u940Cs4bGxux/rGH8flH76FGpe73ulOOn8CPJ9OQeuQgkg/uxdH/pCA7Jw9bt++Aq4sz0lKTkXxwLyoqq4W3BW/dvgMAkHrkILZvSUD8Sy+zDQgR0QiwdPEdvXoQ63+ZmHL8hNBu4tvvjwEAfj6VgZ/S0rF8ySJ4ebgjKjICObn5KC4pQ3FJGXJy8w3O/ovp0VMgl9ni2++PQavTIWn/AWFOKpFg5vRo4Tz6+WnRUbhh6mSj81wJcZCu/wVqX68rMWkfblqwGMUlZXB1cUZFZTW0Wh0OJX+DMmW5+NRDtmTR7zAtOgopx34cd98PTUxMhI9ra2uRl5sLTy8vuLi6Gq0bTqamprCytoZMJoNCoYCbuzt8fX0REhqKqClTcPMtt+B3v/sdJk2ahM7OTlRVViL73DmcOXMGBfn5qCgvR0NDAzquQfgcHh6OmNhYeHp6iqeIiIhomDFoJqIRISwkCF98/L7wllg/H2/xEuAK1vXFsM9jdEwcPvviMF58ZgOkEgnOnc8FAISHBgM9QYFhtbO+X6aTwhF33j4f335/DFKJBG+/uhUrl98FABcrvWQXdzgHAJlMJryl+VLX/e33xzBzejSkEgmcFI7Ys+tNhIUEIWHTeiRsWg8YVKehpzqsqroGy5csglQiwQ1TJyMkOBAn004L5yQiousjLCQI+z/4J9Izs4TvN6/v3I3tWxIQO3sGnBSO2L3jFWF+3cZ4YQ4ANqxbg5DgQKxYvRYvvfwaPNz73rgsLCQI9624G18ePoqYeQvh6uJsNL9y+V24b8XdWLF6LWLmLQQA/ONvzw2qlYahDevWwG2CC+IWLsO6jfF47JFVwuvakrAJKcd+FF5zwtNPISwkSAjf4xYuw/t7PoaHu9ugq637o+9DrWlsGrdtsaoqK1GuVCI4JAQODg7i6WvK3Nwctra2cHJygqeXF4KCgxE5eTJCgoOhcHJCN4Ca6mpkZWUhKysLRUVFUNXUQDcO/96IiIjGEpNmrbZbPEhE1B9rKythF+8roW8poQ9O0dN2YtWaJ/Hkow8hdvYMxG/ehi8PHxXmp0VH4R9/ew77D/wbF4pKhMf2t+5SPzwbPr9Wp8P//eU5zJweLYTEKcdPYN3GeKPHyGW2eGv7Fnz06efw9/UW1iYm7ROuR/w4/WMA4KWXX8OrW5+Hk8IR6Oe6X3p2I55+fovRtehl5+ThT+s2Gm2atH1LAsJDg43uG3rObXiNNHStbW3o7OwUDxPROGFpYQFzc3Px8Iih/x5x34q7sXL5XUhM2of393yMt7Zv6dXHmMa2lpYWZGdnAwD8/P1H3WZ3Op0Ozc3NaG5qQlNTE7q6umBrawtbmQwymQzW1tbih4xonZ2dKC0pga+fn3hqxH9dobFL09iMrq4u2NhIYHEV/hvs7u6GrqVFPExE49CVp0VERMOkRqVGd3c3nJ0USDl+AumZWUg+uBdpqcnYviVBvBzoCYQHsu5S9P2h39/zsVFv42nRUUg9crDPTYcuFP2yyZH+Y5W6Fq+88Q62b0kQ2lv0V3nW33VLJNa9qtDQU7X82s5duG/F3Ujr2TxxWnQUIKpu1q+tqq4xeDQREY11YSFBiJ0zE6/v3C1UEN+34u7Lhszi/QIMj2u5QS96fkkqvgb9wb0HBq6zsxM6nQ5e3t6jLmQGAIlEAicnJ/j4+iJi4kSEhIZCbmcHbXMzCvLzcSYzE4UXLqCmuhra5mbxw0ekhoYG8dCQKeu08H38E5jckwiTexJh/+BenCxQiZddVmNLO2KeP4yY5w+jsaUdn/1UDJN7EvHZT8XipcPmxYOZwnXrD9/HP4GybuAbRQ6X5TtSel2L/l7o5w2vTX+/rvY9ulpaWtuQV1iKvAslyMkvRnZuIYpKK9De0SFeSkQ0LBg0E9F1oQ9Sp0ye2OuHYnGvyf4MdF1f9G851vdJDg8NNuqBnJi0z2hDQH0/SpW6FumZWbj513NEZwQOJX8DZXmFeLgX8XX7+3rjx5Np0Op0wuaCx0/8ZPQYfQ9P9ATlri7OwrX/fCoDObn5mB7NndSJiMaThE3rjTblG8i7WmJnzzB6jOFh+K6ja0F8/YaH/h07dHkmJiawsbUdlSFzXywtLaFQKITgOTgkBHZ2dtC1tKC4uBjpp08jNycHyrIy1NXWomUcVFGeLFAh4s+fY1awC7o/XInuD1di/a0R+NWzh4Ycft45zQfdH67EndN8xFPDyk5qif89fyu6P1yJ/z1/K+q17Xgq6WfxsmvCx8kGZW8uQfeHK/HpEzfiWE41Xvv64rsCDDW2tGPB37/BsZxqvLBkylW/R8OtobEJ+YWlqKxSQatrQVt7Oxo0TShVVqK4tALd3XxzOxENPwbNRHTNGPZI1veT1P9Qe8PUyULPx1sXr8AtN8YKPZL9fLzx5eGjiN+87ZLrrtStcbegorIa+w/8W+gtGf/Sy4iOicP7ez7GloRNQtuLoAA/LLn3QcQtXIY7b58v9KO88/b5WLcxHtExcWhu1iIkOBA1KrX4qS553SuX3wVXF2fEzFsonH/uTbFYvmSRUKn27ffHcNv8uSgsvlhNvWHdGgBAzLyFWLcxXuiDSUREROOLlZUVgoKCxmxLBisrKzgqFPD29kZYeDgmRUbCzc0NZubmqKuvR0F+PjLS05Gbk4OSkhLUVFejsbER7ddgo8Fr5dWvz8FeaoGXl98gjP11YaRRQCyueH7xYKaw1nBu9nOH0aD95d6IK5oNq4/11b+GYbbh/GCrkqcHOGFBlAd+yK2Gsk5rVDUsvvaTBSrYP7hXmDO8FsPq5MFey9xJ7pgT4oLkTKVQ1az30O4fhZD5rwsjjeZGgxpVHerqNeJhAIBKXY+cgmKUKCt7HYUl5WhrZ8UzEQ0OezQT0RUZbI/m0Yz9j8cn9mgmGt/YS5VGi66uLrS0toqHx5XOzk7otFrodDroWlrQ0nN0d3XBytoaVlZWsLKygqWlJawsLWFhaQlLS8ur8m/azs5OnD1zBpOjLrY8M2RuZnbFlefKOi1mP/cVZgW7IGlNrHga6GPNZz8VY/Gr/8WnT9yIO6f5YPmOFHyVrsSRjXMBAPO2HMUkL3t89edbcPRMubDW09EG87YcxYIoDySticXyHSnY+0OhcJ4XD2Zi26EsHNk4F2Eedljw928AAF/9+RbIrC1EV/ULw8dND3ACekLiH3Krcfy5BXgq6Wfh4//l1wjX86tAZ8x+7iusvikYf10YafSY/+XXYPvhc/jqz7cgW9lgdN2XYngODwepULWMntfx0O4f8UNuNX472QPvfJuLZbP8LnvOkers+QIhaJbLbOA2wRmVlSo0GOz/0hczM1NMCguCzFYqnuoXezQTkd7wf2clIroO2OeRiIiIaHwyMzODrUwGZxcXeHt7Izg4GJGRkYiYOBFeXl6ws7ODiYkJmpubUVlZiYL8fGRmZCAjPR3nsrKQm5uLwgsXUFpSgvLyclRVVUGlUqGurg4NDQ1obGxEc3MzdFotWnQ6tLS0oLW1td+jG+g1VlRYiLq6OvGlD4v/5degWNWM30+/WN2sr9Ldfvgccioa8ENuNRZEeWB6gBPCPOwwyctefAoAwJEz5WjQtgnn0f+JnjYSyZlKTPKyR5iHHWTWFlg3PxzHcqpx9Ey5wVku72SBCl+lKzEr+OKeIz/kVmNWsAs8HKT4VaAzfJxscE7ZgP/l16Be2455k9wBAElrYlH02u/h4SDFndN8kPrsfDy0+0f86tlDaNC2iZ5lYI6eKcexnGrERXoIYXmxqhnvfJsLAPgqXTmoXtgjgWFrDFsbKVwUDoDJ5esMTUxMxENERAPGoJmIxoSr2ecxYdN6VjMTERERjTLm5uawsbGBo6Mj3Nzc4OPjg6DgYERMnIioKVMwcdIk+AcEwM3NDfYODrCWSGBqYoKO9nZom5tRX1cHVU0NKisqUFZaiqLiYlwoLMSFggLk5+Whproa+Xl5RkfhhQvo6uw0GsvLzUVdXd1V64l7TtkAO6klPB1txFNXrL/zaHTtKFU3w0thc8nq5f40aNvwq2cPweSeRPzq2UOY5GWPd1bNhLJWi3ptO/b+UAiTexLhuXY/ilXNOKesxzll/5sq6lt4AEDZm0vg49T7mvtTrGqG59r9MLknEYtf/S+WzfLr1Rpj2Sw//O/5WwEAT374U6+2GqOBtdUv1fPVqjqcOnMeDZqLG2paWpjD1kYKG6kElha//H1aWVoYfU5EdKUYNBMREREREdG4Y2ZmBmtra8hkMjg4OMDZ2RkT3Nzg4ekJbx8f+Pn7IyAwEEHBwQgJDUVYWBjCw8MRHhGBiIkT4enlhYiJE42O0LAwmJmZGY1NnDQJvr6+g2rH4+EgxaxgF6GfcV/CPezQoG1DWe3FELEvpermAYWl/Z1HLrGAl8JmwOcRM9wMsPvDlUh9dj5k1hbwcJTCXmqBZbP8hLnuD1ciaU1sv69LX109J8QF76yaaTQ3EIabAeqfSzz/8vIbhF7S/W0WONI5OTpALrsYwHd0dKC5+Zc9bWykEoQF+2FqZCg83C9WlqPnlzNTI0OvqG0GEZEhBs1EREREREREV5GDoyPs7ftuWXE5T/w2HPXadjyV9LMwpq/o/eynYqHdxCcnL26Up28HsW5+OELc7DAr2AVnSuuRrWxAtrIBZ0rrDc7+i3mT3GEntcQnJ4vR2NKO7YfPCXMyawvERXoI59HPzwlxwdye1haDIQ7SDTcnFL+uFw9mwv7BvchWNgiht0bXjve+z0exqnc4PhxeXn4DfJxssOu73H6D/pHKwV4G9wkukNnawMLcDAAgt7WBg70c3p5uQsVzV9cvlfbcn4SIhopBMxEREREREdEINT3ACVl/vwM/5FbD5J5EmNyTiGf2nxY26fNwkOL4cwuEecONAAHgnVUzMcnLHr969hBW//MHeCv6bjMxPcAJ62+NwN4fCiFflQQv0bq/LozE+lsj8KtnD0G+KgkYwEaAA/HOqpnwUtjAc+1+LH71v3hhyRThde177EZ8la4UXvO7f5yF6QFOQvjuuXY/th3KgvcQqq0vxcNBitU3BaNY1WwU9I8Wzgp7hAR6w8vDDZ7urvDxckNYkK9Q6QwAbi4KBPt7IyTQB95ebkaPJyK6UibNWu3VaRRFRGOStZXVVdmhm2ikaW1rY1UH0ThmaWExqLe5E11rXV1daGltFQ/TddLZ2YmzZ85gclSUeGrEf105WaDCvC1Hsf7WCPx1YSRePJiJbYeycGTjXEwPcBIvJxJ0d3dD19IiHiaicYhBMxFdEQbNNF4waCYa30Z6IESkx6B5ZBnNQTMALN+Rgr0/FAqfv7BkSq+N8sQ++6kYi1/9r3gY6NlUT9wD+WoSX78hwypvGl4MmolIj0EzEV0RBs00XjBoJhrfRkMgRAQGzSNOZ2cnGhoa4OjoKJ7i1xUasxg0E5Ee0yIiIiIiIiKiYWBmZtZnyExERDQeMGgmIiIiIiIiIiIioiFh0ExEREREREREREREQ8KgmYiIiIhoGGl1Ojz8xAZEx8QhOiYONy1YjOycPPGyYZOdk4cVq9dCpa41+lgsMWkfHn5iA7Q6nXiqXynHT+COpff3eT4iIiIiIkMMmomIiIiIholKXYtl9/8Jri7OSEtNRlpqMhKefgorVq9FyvET4uXDLiwkCHt2vQknBXvEEhEREdG1xaCZiIiIiGiYHEr+Bm4TXLBh3RphLHb2DDz2yCok7T8ArU6HlOMnjCqLE5P2IX7zNqCPamj9On2lsuFcyvETUKlrsTF+M7Jz8rBqzZP48WSaUUVzyvETQlX1mazzwjX19zzoqZC+acFiRMfE4dvvjwmPgcH5xI8hIiIiImLQTEREREQ0TC4UlWDm9GhIJRKj8enRU1BeUYXikjKjcbGt23cI1dDJB/eiorIaP5/KAAAoyyswc3o00lKTcdv8uUjafwBSqQRbEjYhLCQIu3e8Ans7uXCu7Jw8xL/0MrZvScChT/egqbn5ss+jD67vW3E30lKThfX68217/W3s2fUmUo8cFM5DRERERAQGzUR0LanUtbhj6f3DVgllWAE2GIZVWeKjv7c3q9S1WLF67WV7bV6qRyYREY1NWp0OVdU14mEAgLOTAnKZrXi4l4RN65GwaT0AQCqVwG2CizAnk8kwPXoKAODmX88RxvtTo1IjJDgQN0ydDKlEguVLFglz/T1PjUoNma0Nbo27BQCwdPEdkNnaAABOpp2Gu5srfLw9hfNVVdcM6Xs5EREREY0dDJqJ6JpQqWuxas2TuPP2+ULPypnTo/F/f3nuuv2AGjt7hnAtt82fi9vmzxU+j509Q7yciIjokqQSCVxdnMXDQE+Aq2lsEg/3Yti2ImbeQvyUli7MyWW2cHZSGK2/lMLiEvGQoL/nqVGp0dj0S+Wz2E9p6YiZtxDRMXFYtzEeFZXV0Gqvz/dxIiIiIhpZGDQT0TWh71m5ZNHvhDH9xz+fyuhVAWzYv9Lwh+GbFixGdk4eUo6fwOs7d+PLw0eFqmbDdXcsvX9I1cTi3pUpx09Aq9Phry9sRXZOHv60biOyc/J6VWkPpcKaiIhGP39fb/x4Mk34JerXR7+DSl1rVA0sdqHoYiCs1enw2s5dQtuK1CMHMS06Srx8wPx8vMVDAACdrqXf53F2UggVzH0x/KVsWmoyPv/oPW48SEREREQAg2Yiuha0Oh1+PJnWq2elVCLB269uvWT1sP6H4YSnn0JaajISnn4KH336ubCx0m3z5yJh0/pePSWjIiPw1xe2DrpaWt9zMvXIQWzfkoD4l15GcUkZXnxmA8JCgvDW9i3w8fbEX1/YKlRp79n1Jk5nnL1sWw0iIhq7bo27BRWV1Ua9i5fc+yDe3/MxHn9ktfB9MCc3H8UlZVCpa5GemWVwhl/8fCrDqKL5SoWHBgu9l7U6HZL2HxAvAUTP4+PtCVtbGxxK/gYA8NGnnwsVztOjpxh9n4vfvG3IbbCIiIiIaOxg0ExE10x/lVVXInb2DKGnpKG+ekoOZNOlvuh7bC5fsghSiQQ3TJ2MkOBAnEw7bbROH5SvXH4XcAX9N4mIaOxyUjhi73tvoaq6BtExcXj6+S0ICQ5E9JTJWLF6LVKOn0Ds7BmInTMTK1avxao1T2LOjGlAz/eV5UsW4fWduxEdE4dvvz+G2+bPvWQLDPR8/2lsasaqNU+ivkEjjDspHPHkow9h3cZ4xMxbiMiIMNja2EAise73eaQSCR5/ZDXe3/MxomPiYCuVCv2bw0KCsP6xh7Fi9VpEx8QhPTMLLz6zodfGh0REREQ0Ppk0a7Xd4kEiov5YW1nB1PTKfkel1enwf395DjOnRwuhrFh2Th5eevk1vLr1eTgpHJFy/ASS9h/AP/72HLRaHVateRJlynJ4erhj945X4KRwRGLSPlwoKkHCpvVIOX4Cr7zxjjCnUtfiiQ3P4umnHkdYSJD46XrRt7zQV0evWvMknnz0IaHaOn7zNvj7euPWuFuMzpty/ATWbYwXziOX2eKt7VsAwOj10OjT2taGzs5O8TARjROWFhYwNzcXDxONOF1dXWhpbRUP0wjErys0VnV3d0PX0iIeJqJx6MrSIiKiQZBKJJg5PdqoZ6Ve/OZtSDl+wmgMog2MnBSO+Pyj95CWmownH32oz5YY4p6SA910qS9SqUSo3oJBhbOYSl2LV954B9u3JCAtNRnJB/fCw91NvIyIiIiIaNASk/YJ+4Hoj6G2rTHcD4WIiGi4MGgmomtC37Ny/4F/C2OJSfuQnpmF8NBgAICyvALnzucKPZ0BQF1bhxWr1xr1PXZ1ce71Nl3924YNe0r2t+nS5UglEri6OCNp/wFodTr8fCoDObn5mB49RbzUyKHkb6AsrxAPExERERENybToKKQeOShsxOnq4oz/+8tzgw6KY2fPwNuvbu31b2oiIqKhYNBMRNeEk8IRu3e8gs++OCxUYnz2xWGh1UVYSBDuW3E31m2Mx62LVyAyIgwAoHB0wB/vXyH0g3zljXfw6EMPAD09n788fBTxm7fBSeGILQmbhJ6SQ+0buWHdGgBAzLyFWLcxHglPP4WwkCBIpRLY2trgT+s2okalxp23z8e6jfGIjolDc7MWIcGBqFGpxacjIiIiIho2jz70gLDZJ3ra0N20YDGiY+Jwx9L7oVLXAj3vzHv4iQ3Cv78Tk/YBoopmwzUrVq8V+sln5+Rhxeq1Ro83fCeiYaX1TQsWGxWGGM7pn1N8LYYV1eK5vt7xSEREIx97NBPRFRlMj2ai0Yg9monGN/ZSpdGCPZpHj8F+XUlM2ocfT6bhH397zqiIwnAPEcP9ReI3b0NVdQ3+8bfnsP/Av4U9TVTqWvz1ha148ZkNOHc+V9gPZf+Bfwvn//lUBtZtjMf2LQlwdlLgT+s24r4Vd2Pl8ruMzvvzqQyj/VEM9zsR77Wi39/ko08/F9aI90QRnzv+pZfx1vYtA9prha4/9mgmIj2mRUQ0psVv3iZURogPVkoQERER0Wh37nwuAAjt6JYuvgNNTc3Qao3bajgpHPH2q1uNNqrW6Vrw48k0LF+yCFKJBDdMnYxp0VHCvEwmE9rH3fzrOcJ47OwZ+Pyj94Rz+ft6C3Pffn8MM6dHQyqRwEnhiD273kRYSBASNq1Hwqb1gGhPFP1+KIbXEBIciJNpp4VzEhHR6MCgmYjGtIRN64VeduIjdvYM8XIiIiIiohFPvFl1mbIccQuXIbqn/YWyvAI1KjVWLr8LAPottNDqdKiorDYaMySX2cLZSSEe7tXq4vWdu4XxvjbRhqi9R8y8hfgpLR0AoNUaX4N+vxQiIhp9GDQTERERERERjSL6cNbP52IlsXizwO+++lRoO6EvvEg+uBf/7709Rr2UpZJfKouvhH6Db/1zPvbIKuASIbFWp8NrO3fhvhV3Iy01GalHDgqV04bVzfq1/YXVREQ0sjFoJiIiIiIiIhpF3njnXbhNcMENUycjPDTYaGPAxKR9woaA8Zu3CZvxAYCtrY1RhbJEYo2Z06ORtP8AtDodfj6VIVQaD5RKXYvPvjgsfO7v640fT6ZBq9NBpa7FHUvvx/ETPxk9xvB59OG04TXk5OYLLTuIiGj0YNBMRERERERENIL9lJaOmHkLhVYV+o3z9H2QtyRsQvxLLyM6Jg7v7/kYWxI2wUnhiEcfegCffXEY0TFxiFu4DMuXLDLq0QwASxb9DgAQM28hvvjqiFGP5v7cGncLKiqrETNvIVateRL3Lv09qqproNXpsHL5XXB1cUbMvIWIW7gMd94+H3NvisXyJYvw+s7diI6Jw7ffH8Nt8+eisLgEALBh3Rqg5xrWbYxHwtNPcSNAIqJRyKRZq+0WDxIR9cfaygqmpvwdFY19rW1t6OzsFA8T0ThhaWEBc3Nz8TDRiNPV1YWW1lbxMI1Ao+HrSnZOHjY8+xK2Pv80g14asO7ubuhaWsTDRDQOMWgmoivCoJnGCwbNROPbaAiEiMCgeVQZqV9X4jdvw5eHjwqfb9+SwE2z6YowaCYiPQbNRHRFGDTTeMGgmWh8G6mBEJEYg+bRg19XaKxi0ExEekyLiIiIiIiIiIiIiGhIGDQTERERERERERER0ZAwaCYiIiIiIiIiIiKiIWHQTEREREQ0TBKT9iE6Js7ouGnBYmTn5ImXXlOJSfvw8BMboNXphDGVuhYrVq+97LWlHD8hPDYxaR/iN28TL7ms+M3bkJi0TzxMRERERGMIg2YiIiIiomE0LToKqUcOIi01GWmpyUh4+im8tnOXUcg7msTOnoG3X90KqUQinhqwhE3rsXL5XeJhIiIiIhpDTJq12m7xIBFRf0xN+fspGj+6urrEQ0Q0TlhaWMDc3Fw8fFmJSfvw48k0/ONvzwnBbHZOHl56+TW8uvV5vPHOu8gvKMT53Hw89sgqrFx+F+I3b8OXh48CgDCGnorjVWueRJmyHJ4e7ti94xU4KRyRnZOHP63bCE1jk9H4pfR1XSp1LZ7Y8CyefupxAMBLL78GW1sb/JSWDgDYviUBsbNnIOX4CSTtP4DFd9yKjc++BAC4bf5cJGxaj8SkfXh9524AgFxmi7e2b0FYSBDiN28zep0Xikrg7+uNlcvvGtT1U/+6urrQ0toqHqYRaLBfV4hGuu7ubuhaWsTDRDQOMTEioivS1dXFg8e4OYiIhsPJtNOwtbWBVHox4JXJbJF65CBWLr8LiUn7UFVdg9QjB7Fn15t4f8/HSDl+AlqdDn99YSuefPQhpKUm487b5+ONd96FSl2LjfGbcd+Ku5GWmoyoyAj89YWtw1ItrSyvwMzp0UhLTcZt8+ciaf8Bo/POnjENjz2ySgiZU46fwGdfHEbywb1IS01G7JyZ+OjTz4X1hq9T72pePxERERFdXwyaiYiIiIiG0U9p6YiZt1Do0fzZF4fx4jMbhEpiVxdnSCUSaHU6/HgyDTOnR0MqkSAsJAixc2aisLgExSVlaGpqRnhoMABg5fK7kLBpPWpUashsbXBr3C0AgKWL70B5RRWKS8qMrmEwZDIZpkdPAQDc/Os54uleYmfPwOcfvSdUI/v7ehvN61+noat5/URERER0fTFoJiIiIiIaRuIezYZhLPoIZF/fuVsIpb88fBQXikpQo1KjsanZaB16glrDcWcnBeQyW6M1gyWX2cLZSSEe7pdWp8PDT2wQrl3fQkNP/Dpxla+fiIiIiK4vBs1ERERERNfR9i0JQiidlpqMhE3r4eykgMzWRry013iNSg1NY5PRmr74+fQd+g7ksf3Zf+DfACCE6o89skq8pJfBXj8RERERjXwMmomIiIiIrgOpRIKZ06OFXsgqdS3uWHo/EpP2wdlJgcamZpw7nwv0bOb38BMbYGtrg8amZhxK/gYA8NGnn8PdzRU+3p6isxtzdlIgJzcfP5/KEMYG+tiBUKlr8dkXh8XDvehf15VePxERERGNfAyaiYiIiIiuk5XL74KrizNi5i1E3MJliIqMwMrld8FJ4YgtCZsQ/9LLRn2evTzcsSVhE97f8zGiY+KQnpll1P+5P2EhQXhr+xbhfNExcaiqrsE//vbcZR9ryM/HG18ePor4zdtwa9wtqKisRsy8hVi15kncu/T3qKquueTGfvrXdaXXT0REREQjn0mzVtstHiQiIiIiGs8sLSxgbm4uHiYacbq6utDS2ioephGIX1dorOru7oaupUU8TETjECuaiYiIiIhGuZTjJ4RKZfERv3mbeDkRjTLizTfvWHo/VOpa8bIBy87Jw4rVa4d0Dn1LH8N3MajUtVixei2yc/KM1oqlHD8hPDYxad+gvk7Fb96GxKR94mEiIrqOGDQTEREREY1ysbNnGG0oKN5ckIhGL61Oh//7y3NwdXEW/r9+8tGHsGrNk0MKiq+n2Nkz8ParW4fUNidh03qsXH6XeJiIiK4jBs1EREREREREI9TPpzJQUVmNRx96QBiLnT0DUZEROJT8Ta/qZMNqYXEldGLSPqjUtdgYvxnZOXlCWJ2dk4ebFiwelmppPf1zx2/e1usdFvprPPpdCl7fuVvo/Y6eSmn9+psWLBaqo+M3b8M9q9YIr8Owoln8OlOOnzC4EiIiulYYNBMRERERERGNUN9+fwxRkRFwUjgajQ+konf/gX8LldDJB/fix5NpAIAtCZsQFhKE3TteAQBsjN+M+1bcjbTUZERFRuCvL2y95MaeV6KqugapRw5i+5YEpBz70aitxuwZ0/DYI6tw2/y5SNi0HinHT+CzLw4j+eBepKUmI3bOTHz06efCepnMFqlHDvZ63Vu37wAA4XniX3r5su07iIho+DFoJiIiIiIiIhrB/H29xUNXzEnhiLdf3dorsK5RqSGztcGtcbcAAJYuvgPlFVUoLikzWjdYM6dHQyqRIDw0GB7ubuJpI7GzZ+Dzj94TrlH8ul1dnHu129DqdKiqrsHyJYsglUhww9TJCAkOxMm000briIjo6mPQTERERERERDSCXSgqEQ8NiL7y91ItJWpUajQ2NQufOzspIJfZGq0ZCj+fgYfk4hYYr+/cbTQvDp4BQKvVoaKyWvhcKpHA1cXZaA0REV0bDJqJiIiIiIiIRqibfz0H6ZlZvfomJybtE3oUGyosNg6lEzatF1pn/L/39vRqKeHspIDM1kb4vEalhqaxyWhNX/oKkAf62P7sP/BvoKcFRlpqMh57ZJV4SS9SqQRuE1yEz/UVzkREdO0xaCYiIiIiIiIaoW6YOhluE1zwxjvvCmMpx0/g/T0fY3r0FACAsrwC587nQqvTCX2Y0bOBnmEYbWtrA2cnhfA5eoLmxqZmHEr+BgDw0aefw93NFT7enkbrxJydFMjJzcfPpzKEsYE+diBU6lp89sVh8XAv+grmpP0HoNXp8POpDOTk5gv3hoiIrh0GzUREREREREQjlFQiwT/+9hyqqmuElhLxL72Mt7ZvQVhIEMJCgnDfiruxbmM8bl28ApERYcJjH33oAXz2xWFEx8QhbuEyLF+yCE4KRyFcXrXmSaBnc8D393yM6Jg4pGdm4cVnNvTqhSwWFhKEt7ZvQfxLLwvXVVVdg3/87bnLPtaQn483vjx8FPGbt+HWuFtQUVmNmHkLsWrNk7h36e9RVV1z2Y0JN6xbAwCImbcQ6zbGI+HppxAWEiReRkREV5lJs1bbLR4kIiIiIhrPLC0sYG5uLh4mGnG6urrQ0toqHqYRiF9XaKzq7u6GrqVFPExE4xCDZiIiIiIiEQZCNFowaB49RtvXlZTjJ7BuY7x4GABw2/y5SNi0XjxM4xSDZiLSY9BMRERERCQy2gIhGr8YNI8e/LpCYxWDZiLSY9BMRERERCRiaWEBExMT8TDRiNTa1iYeohGIQTONVQyaiUiPQTMRERERERHRVcagmcYqBs1EpGcqHiAiIiIiIiIiIiIiuhIMmomIiIiIiIiIiIhoSBg0ExEREREREREREdGQMGgmIiIiIiIiIiIioiFh0ExEREREREREREREQ8KgmYiIiIiIiIiIiIiGhEEzEREREREREREREQ0Jg2YiIiIiIiIiIiIiGhIGzUREREREREREREQ0JAyaiYiIiIiIiIiIiGhIGDQTERERERERERER0ZAwaCYiIiIiIiIawbQ6HR5+YgOiY+IQHROHmxYsRnZOnnjZsMnOycOK1WuhUtcKz51y/IR4GRKT9uHhJzZAq9OJp/qlUtfijqX393m+gYrfvE24F4ZHYtI+8dJByc7Jw00LFvc6/x1L74dKXSteLjC8b0RE4xGDZiIiIiIiIqIRSqWuxbL7/wRXF2ekpSYjLTUZCU8/hRWr1w4prB0oqUSCt1/ditjZM8RT19Vt8+cK90N/rFx+l3jZoMlkMuzZ9abR+T//6D04KRzFS4mIqAeDZiIiIiIiIqIR6lDyN3Cb4IIN69YIY7GzZ+CxR1Yhaf8BaHU6pBw/YVRZnJi0D/GbtwF9VEPr1+mrbw3nUo6fgEpdi43xm5Gdk4dVa55EqbLcqKI55fgJoar6TNZ54Zr6ex7x3F9f2Co8BgbnEz9msPTP9dY/3xeqkvX3YyBVyQMhfq2JSft63TfDanDD+6uXmLRPuI9v/fN94bXHb94mVGaLq8kvdT4iopGAQTMRERERERHRCHWhqAQzp0dDKpEYjU+PnoLyiioUl5QZjYtt3b5DqIZOPrgXFZXV+PlUBgBAWV6BmdOjkZaajNvmz0XS/gOQSiXYkrAJYSFB2L3jFSgcHYRzZefkIf6ll7F9SwIOfboHTc3NA3qerdt3AABSjxzE8iWLUKYsF8637fW3sWfXm0g9ctBo7VBlZmXj0Kd7sH1LAl7fuRv+vt5IPXIQbhNccCj5G/HyK7L/wL+NXuuPJ9MAwOi+OSkcjV739i0JiH/pZWTn5CE7Jw+ffv4V9ux6E4c+3YPMrGzRM/TN8B4bno+IaKRg0ExEREREREQ0Aml1OlRV14iHAQDOTgrIZbbi4V4SNq1Hwqb1AACpVAK3CS7CnEwmw/ToKQCAm389RxjvT41KjZDgQNwwdTKkEgmWL1kkzPX3PPrXsHzJIkglEtwwdTKmRUcBAE6mnYa7myt8vD2F81VV1wyoqvnLw0eFyl59ZbBh6KoP552dFAgLCcKtcbdAKpHA1cXZ6Dz9aWxsxIrVa42eQ18lbshJ4Yi3X93aq6VGX687JDgQJ9NO9/m6L0elrkV6Zpbw96Q/X41KLV5KRHTdMGgmIiIiIiIiGoEuFYzWqNTQNDaJh3sx3NguZt5C/JSWLszJZbZwdlIYrb+UwuIS8ZCgv+fRanWoqKwWLxf8lJaOmHkLER0Th3Ub41FRWQ2t9vJBs7hH83dffYqwkCBh3s/H22j9leqrR7M+SNf3gr5UCwvx6xb/Xbq6OPeqUh+IdRvjje7xpf5OiIiuNQbNRERERERERCOUv683fjyZJlT5fn30O6jUtUZVsWIXii6Gj1qdDq/t3IX7VtyNtNRkpB45KFQTD0Z/4a1O19Lv84irqMXEgfFo2XAvYdN6oXXG/3tvT68WFuLXLa5OH0jltjisltna9Aq/h3MDRCKioWLQTERERERERDRC3Rp3Cyoqq416Fy+590G8v+djPP7IaqEqNic3H8UlZUKLhb78fCrDqKL5SoWHBgu9l7U6HZL2HxAvAUTPI5VIMHN6tLBxoeHc9OgpOJ1xVghp4zdvG5YNAa82ww37AMDW1qZXZbi+gtnwdefk5mN69BRMj56CnNz8fu+j/hcL587nCv2snRSOCPD3xUeffg4YVJD3VU1NRHS9MGgmIiIiIiIiGqGcFI7Y+95bqKquQXRMHJ5+fgtCggMRPWUyVqxei5TjJxA7ewZi58zEitVrsWrNk5gzYxrQE3YuX7IIr+/cjeiYOHz7/THcNn/uZdstODsp0NjUjFVrnoS6tk4Yd1I44slHH8K6jfGImbcQkRFhsLWxgURifcnnWbLodwCAmHkLkbT/AG6KnQ0ACAsJwvrHHhZ6IadnZuHFZzYMqKWEuEdzfz2UB6uvHs36PtCPPvQAPvviMKJj4hC3cBmWL1kEJ4Wj0X1TqWuxYd0aoOd1r9sYj4Snn0JYSBDCQoKQ8PRTwn00bKnx6EMPoKKyGjHzFuKLr44YVaBvWLdG+O9gxeq1uG/F3YidPUOYJyK63kyatdpu8SARERERERERDR9LCwuYm5uLh4mQcvwEkvYfwD/+9tyAQvaRpru7G7qWFvEwEY1DDJqJiIiIiIiIrjIGzQMXv3kbvjx8VDwMANi+JWHIVbxanQ7/95fn+mwjIpfZ4q3tW4w2FrzaGDQT0VjBoJmIiIiIiIjoKmPQTGMVg2Yi0mOPZiIiIiIiIiIiIiIaEgbNRERERERERERERDQkDJqJiIiIiIiIiIiIaEgYNBMRERERERERERHRkDBoJiIiIiIiIiIiIqIhYdBMREREREREREREREPCoJmIiIiIiIiIiIiIhoRBMxERERERERERERENCYNmIiIiIiIiIiIiIhoSBs1ERERERERERERENCQMmomIiIiIiIiusq6uLvEQERHRmMKgmYiIiIiIiOgqKikuRl1dnXiYiIhoTGHQTERERERERHSVdHR0oLGxUTxMREQ05jBoJiIiIiIiIrpKypVKmJqawtR08D9+q9S1uGPp/YiOiUN0TBxuWrAY2Tl54mWXpdXp8PATG/DwExug1emQcvwEomPikHL8hHjpsEtM2ofomDjhucey+M3bhL8r/XHH0vuhUtciMWlfr78//frEpH1G5yEiGm0G/52OiIiIiIiIiPrU2dmJ/Px8dHV3Iyw8HA4ODuIlA5Kdk4cl9z6IqMgIpKUmIy01GfetuBsrVq8dckAcO3sG0lKTETt7hnhqWGl1Ovx4Mg0AkJObj+KSMvGSMcfTwx3JB/cKf2eff/QenBSO4mWI37wNXx4+itvmz8XK5XeJp4mIRhUGzURERERERETDSKfTITcnB1KJBL6+vuLpK/LRp59DLpfj0YceEMZWLr/LKCAWVzwbVsYazv3x0afQ1NQszIkrmvVVx9ExcUKVrWGYbTivr9AdiOKSMuTk5uOm2NkAgJNpp4W57Jw83LRgMdY//TxuWrAYDz+xAbsSk3DTgsV465/vC8/31j/fx8NPbOj13OLXHr95G2Dw2gwP/X0xnDM8l77aeCDPOxwSk/YJIXPCpvXiaSKiUYdBMxEREREREdEw0Wg0yMvNhZOzM9w9PITxrq4uo3UDoVLXIj0zC1GREX1Ww6Jnzao1TwoVz9u3JOD1nbuFgPiNd96FRqPBnl1v4umnHoeyvEJ8CqAn8H1/z8e4bf5cpKUmi6eRmLQP7+/5GHt2vYnUIwfhNsEFf31h64DaYOiD5WW/X4iQ4ED8eDKt1+Oamptx6NM9ePvVrbCwMIemsQk2NlKkHjmIadFR2P2vvVi+ZBH27HoTGo0Gb7zzLtDz+u68fT7SUpPx2COr8OXho0g5fkKo1k4+uBeeHu6Qy2wxPXoKsnPyEP/Sy3jskVV9vo6BPu9QfZdyHK/v3I1p0VHYsG6NeJqIaFRi0ExEREREREQ0QB0dHWhra0Nra2uvo7KyEhcKCuDu7g65XC6MF164gLq6OvGphsW587koU5bj5l/PAQDcMHUypkVHIWn/AZQqy5GemYXYOTMRFhIEH29PhAQHik8B9ITBmsYm4Tz6P2HQ+iIkOBA+3p6QSiRYvmQRfkpLx8+nMgzO0pvhY8NCgzBzenSf7TNmTo+GVCIRPtcHw1KJBK4uzvD0cEd4aDCcnRSQy+XCuoRN63Fr3C24Y+n9eH3nbmFc71DyNyhTlgv3QB966889c3o0KiqrodVeDJoH+ryXU6YsR9zCZb2qqdETZu/+114AGNA9JCIaLRg0ExEREREREYl0dHSgvq4OyrIy5Ofl4ezZsziVloZzWVnIzclBTXU18vPyjI7KigqYmJigqqpKGMvLzUV9fT26u7vFTzEsCotLIJfZwtlJIZ66Yv2dR6vVoaKyGq4uzkZh8EDo22bog+Tp0VMAUfuMwdJvbhi3cBmefPQhbN+SYDSvr9KWy2yxdPEdAIAL/7+9O4+uqj73P/7JzEkIgSRknkggYSgIMqhIEEVIQa9SLSqDRSv26q3XQh1/VkXUWltR6nS9VmhLRRxQobaKoL1KCKhUVEAIIQQynZA5JCHnZCL5/WHONmeHQMIBySHv11pnrfI83/3dZ4fVJXz8+uzcfNXUHtX8hXdobGqanntppWpqalRWXuF0ravMM5rN85fHjx2td9esVEx0lJ5+/uXTOpIDAM4WgmYAAAAAACQ1NjSopLhY+7Oy9O3u3aqoqJCXl5cGhoVpyJAhGnP++Rp13nn60ciRiomN1Ygf/cjpkzJ0qHx9fTVgwACj9qORI5WQkCBvb2/z7U4qNCRYo0eN0De79nQaRA6Kj1NN7dETBqUlpWUdRlUcT2f7+PtbFBkR1uV92nvjnb+rpvaonntppcampmn+wjtUU3tU7763odNn6ipHiH3n7bcc94WGjnvfNP96DUsZIklKTIhTv8C+Wr3iBSME/uSDd4z+D6FfYF/96vaFio+N0TVXzVChtei0jeQAgLOJoBkAAAAA0KtVHzminAMHlJmZqYbGRkVERmr0mDFKGjxYEZGRCgoKkp+fnzw8PMyXOrFYLEpOSZHNZlNubq5RHxAcrP79+zut7aobrr26w2xgx0v50rd+ruFDkxUTHaV/bc6QJH351U79e8c3mjv7J4qNjtLoUSOMURWOYPZ4Jowdo36BffWvzRmy2e1as3ad0XOMmHDs4+iPHzta484/z2mf9hwzpsePHa0tm9Ybwe6dt9+iQmuR9u7bb76kWxzjLA7m5nf4zplZ2UrP+Ewx0VG6Iu1yo97+RLXjRPRti+7rdoB+usz+yX9o/NjRSs/4TJlZ2eY2ALgVgmYAAAAAQK9UWVmpfZmZKi4uVv8BA3Te6NGKi4vr1ixeMy8vLw0eMkSeHh7K3r9fTU1N5iXdMixliNa++oq+2bXHmPf73EsrtfzJpZp88YUKDQnWyhefNvqL719i9CTpvsW/VEryYM1feId++9Szio6KNN9CarvPTfOv1z83fKTU6bMUHjbQqb9g7nW6af71mr/wDqVOnyVJeuZ3j5xwlIZjfrR5/nL7UNsVoSHBuuaqGcZ3Ljpcon6BfXUoL9+YOd1+VvJti+5TfFyMlv7mHj330kqlTp+lw8Wlevyh+074HGeSY951Te1RPfvSirMWeAPA6eBRZ7OdmUFRAAAAAAD0QDXV1TpcXCwPDw+Fh4crKCjIvOS0OHz4sKoqK5UwaJD6BQbK19fXvKTHyMzK1n8tvl83zb9eC+Zep1Vr3tJfV7+p/1n+5A86VgLup7W1Vfb6enMZQC9E0AwAAAAA6BWamppktVpVV1enyMhIBQcHm5ecduXl5SrIz1dSUpIiIiLM7R5lyRPL9M8NHxm/vvP2Wzq8xM4sfevnWnz/EnNZknTljGla+sDd5rLbM/+c2mt/mry3IGgG4EDQDAAAAAA451WUl6uwsFADw8IUFRVlbp8xzc3Nytq3T3FxcQoPDze3AbdH0AzAgaAZAAAAAHDOOnbsmAoKCtRQX6+Y2FgFBASYl5xxVZWV8vPzU2hoqLkFuD2CZgAOBM0AAAAAgHPS0aNHlZ+Xp35BQYqJiTG3f1C+Pj7y9vY2lwG3R9AMwMHTXAAAAAAAwN2Vl5cre/9+RURGnvWQGQCA3oCgGQAAAABwTimyWlVaWqqUoUN/kBf+AQAAgmYAAAAAwDkkLzdXNptNKSkp8vf3N7cBAMAZQtAMAAAAAHB7ra2tysnJUaukwUOGyMvLy7wEAACcQQTNAAAAAAC31tLSogMHDsjX11cJCQnmNgAA+AEQNAMAAAAA3FZLS4tyDhyQxWJRbGysuQ0AAH4gBM0AAAAAALfU2tqqnAMH5O/vr5iYGHMbAAD8gAiaAQAAAABu6WBOjiwWi6IJmQEAOOsImgEAAAAAbufQoUPy9vFRDOMyAADoETzqbLZWcxEAAAAAgJ6qoKBATY2NSkxKMrd6LG8vL3MJOGc0HztmLgHohQiaAQAAAABuo/jwYdXU1Cg5JcXcAgAAZxGjMwAAAAAAbqGyokIVFRUalJhobgEAgLOMoBkAAAAA0OMdPXpUubm5Shg0SD4+PuY2AAA4ywiaAQAAAAA9WnNTk/LaQuaAgABzGwAA9AAEzQAAAACAHi0vL08DgoMVHBxsbgEAgB6ClwECAADALVmr7Hr5/7LNZcBtPXrtKHMJkoqsVtXX1ysxKcncAgAAPQhBMwAAANyStcqu5Hv+YS4Dbumm1ES9uGCcudzrVVVVqchq1dBhw+Tl5WVuAwCAHoTRGQAAAACAHqehoUH5eXmKi48nZAYAwA0QNAMAAAAAepyC/HxFREQoMDDQ3AIAAD0QQTMAAAAAoEc5fPiwPD09FR4RYW4BAIAeiqAZAAAAANBj1NbWqqy0VLFxceYWAADowQiaAQAAAAA9RmFBgWJiY+Xj42NuAQCAHoygGQAAAADQIxQWFCggIEDBwcHmFgAA6OEImgEAAAAAZ111dbWOHDmimNhYcwsAALgBgmYAAAAAwFnV2toqa2GhYmJj5enJX1MBAHBH/BMcAAAAAHBWWa1W9e3bV/379ze3zjh/i+WUPgAAwBlBMwAAAADgrKmtrVVVZaWiY2Kc6uZg90x9AADA6UHQDAAAAAA4a6xWq6JjYuTl5SVJam5uJgAGAMANETQDAAAAAM6K4uJi+fr6Kjg42Kj1Cwx0WgMAANwDQTMAAAAA4AdXX1+vIqtV0dHR5hYAAHBDBM0AAADotVbcOlGtry3Qxw9MN7cAnGFFRUWKio6Wn5+fUXOnkRnMeAYAwBlBMwAAAHqly0ZE6sfnRWuv9YgmJIXqxklJ5iUAzpCqqio1NDQoIiLCqBHaAgDg3jzqbLZWcxEAAADo6axVdiXf8w9zucse/elo3X75UP3PR/u0eOZwvfV5rha+ss3o7/nD1TpS16hxiaGSpA07C3Vxcrg+yy5V2qho+Xp7ylpl09Pv79HSn45WYB8fNTa36Pf/2K2H3/7G2GN4dH9jz73WIxpx799146QkvXjzBQrs42P0JMlaZdPPXsrQ/+05rI8fmK6pIyIlyWnfGycl6Zn547v1PdDz3ZSaqBcXjDOXz1l79+xRdEyMgoKCjJq7Bs02u91cAgCgV+JEMwAAAHqliclhKq2xa8k736igok4XDRloXqKRcQO08JVt8lvwqt7Zni8/H0+dPyhEM/7wsX72Uob6WXz05A1j9ccNe+Uxb5UOlNTo2gnxUlvIHOTvq6lPbJLHvFVa+Wm2hkf314pbJ+rVjBz1u2WNPOatkse8VXps3U41Nrfow51WI2QeGhVkXPtqRo4WzRhunLruzvcAeprDRUXy9/d3CpkBAID7I2gGAABAr3PjpCRNSArVZ9llkqR3tucpNiRAj/50tNO6goo6vZqR41RzhMGvZuSooKJOB0pqjJPDn2WXKcjfV5eNiNSIe/+umDvW6v/2HJYkbc4sUW19k9Neahvh8fMpQ7Qlq0QLX9mmGycl6by4YP3502zj2oWvbFNBRZ0WTP5+vEdXvwfQk9jtdhUXFyvK9AJAdz3NDAAAvkfQDAAAgF7nkmHhqrE3ac22Q5KkTzNLVGNv0sTkMPPSkzp85MT/2fzHD0xX62sL9LfbJ3UYlSFJzy+YIEl64u+7JUlDIgLVz+Kjh35ynlpfW2B82o/gOJ6TfQ+gJyiyWhUdHS1fX19zq4Pm5mZ9/PHHevTRR/X++++rsbHRvOQH9eabb+qRRx7RJ598Ym4BAACCZgAAAPQ2jpcARg/w17/aQuB/PTBd0QP8T+tLAR0B84SkUP3spQz97KWMDieaP35gumJDAvT/3vjKOL0sSQ3Nx/TYup3GaA3H5/InNjldD7iT8vJyHTt2TGHh4ebWcR08eFBLlizRb3/7W3355Zfy8PBw6jc1NSkrK0ubN29WRkaGampqnPqdOXLkiDIyMvTpp58qIyND5eXlTv1jx47pwIED2rx5s/bt26fm5mZJ0jfffKOlS5dq2bJlqqysdLoGAAAQNAMAAKCXmTIsXP0sPh2C3MfW7ZSft5cuGda1EOxExiQEa2hUkFZ+mq1+t6zpMH5DbS8jTE0J11uf5zr1s4trJUlRA/zbrQbcW1NTk6yFhYo2jczQCcZm7NixQ9u3b1d0dLSmTp0qH5/v/4uApqYmrVu3TnPnztVll12m6dOna9euXU7Xd2bz5s2aPn26Lr30Uk2fPl3Lly9XU9P3/xKorq5OzzzzjC677DI9+OCDRqg8ZcoUWSwW7dixQ5s3b263IwAAEEEzAAAAepuJyWGqsTfp08wSp/rDb3+jAyU1x30p4KlKGNhXajtF/bsbzjdGZ9w4KUmLZgw35jK392pGjrbnlOu6CxOM09U3TkpSzcq5WnHrRKe1gLuwFhZq4MCBCuj73f8nHDoLmY8dO6ZNmzapublZgwYN0qhRo4zevn37dM899+iuu+7SV199pZaWFtntduPk8clUV1fLbv9u1Izdbte7776rnTt3Gv3W1lY1NDSopaVFNTU1qq+vlyQNHjxYo0ePVllZmTZt2tTlE9QAAPQWBM0AAADoNRwvAdxXVO00qsLhs+wyDQ7v1+GlgN31dW6l/vxptlJTwo3RHFv2lchaZdNFQwbqkmHhCuzjo6kjIp3mMNesnKsbJyXp8ic2qaCiTn+7fZIx3/mtz3M7hNKAO6isrFR9fX2HFwCeSHFxsXFC+fzzz1e/fv2M3sqVK/Xss8/KYrEoOTm53VXdY7FYFBwcrAMHDuj1119XXV2deYmTqKgojRs3Ti0tLcrIyFBhYaF5CQAAvZpHnc3Wai4CAAAAPZ21yq7ke/5hLgNu6abURL24YJy57Paam5u1d88eDUpMVGBgoFOvs9PMkrRx40YtXLhQhYWFWrlypX7+858bvWXLlik3N1ezZs3SqlWrtHr1aknSJ598oilTprTb5fj+9re/acGCBUpJSdG4ceO0du1aRURE6LXXXtOkSZNUXV2tX//61/rzn/+sadOmacWKFYqLi5MkvfLKK7rrrrvU0NCg9evXa8aMGbK1nY4GAKC340QzAAAAAOCMKCwoUGhoaLdCZknKyspSRUWF1HaSuL3bb79dy5cv1/jx4+Xr6+vU6w5/f3/dcMMNSkpKUn5+vtatW2de0kFiYqIGDBigxsZG5eTkEDIDANAOQTMAAAAA4LQrLy9XQ0NDt0ZmSFJ9fb0OHjwou92usLAwhYSEOPUDAgKcXgx4qhoaGhQTE6OZM2dKbaeov/rqK/MyJ1FRUUZobrVazW0AAHo1gmYAAAAAwGnVUF+vwoICxcTGmlsn1dDQoNraWklSv3795OfnZ15yWtTX16uurk6zZ89WYmKisrKy9OabbxovCjyegIAA4xR1WVmZuQ0AQK9G0AwAAAAAOK3y8/MVGRWlgIAAc6vHGTlypBYsWCA/Pz+999572rt3r3nJcTUfO2YuAQDQqxE0AwAAAABOm6KiInl5eSk8PNzc6pH8/f01f/58DR06VPv27dOmTZvMSwAAQBcQNAMAAAAATovqI0dUWVGh2Lg4c6vLPD095eXlJUlqampSS0uLeYmh/anihoYG2ex24wV9LS0tys3NVXp6unbv3q2GhoZ2VzqLj4/XrFmz5O3trQ8//FCHDx82L5EkNTc3G9/Hz4UXEQIAcC4iaAYAAAAAuKyxsVF5eXmKjYtz6WV9FotFwcHBkqTS0lIdPXrUvOSkbHa7amtr9dRTT2nq1Kn6xS9+oYKCAvMyg5eXl2bNmqXzzjtPmZmZysjIMC+RJB0uLpbNZpMkDRw40NwGAKBXI2gGAAAAALgsLy9PYeHhCgoKMre6xdvbW0lJSQoMDJTdbu9wuviNN97QlClTdOWVV2rjhx8a9XvvvVc/TkvT888/L0kqLStTdna2mpubVVNTc8ITzZKUnJysm2++Wf7+/sbLCL28vOTp+f1fm/Pz81VdXS1JinPh1DYAAOcigmYAAAAAgEsKCwrk7e2tiIgIc+uUDB8+3DgxnJeX59TLy8vT5s2blZGRoZKSEqO+a9cubdmyRdn790ttYy4aGhslScOGDVNYWJgkycfHR97e3goICHAKxX19fTVnzhxNmzZNagu8ExMTFRgYKEmqPXpUOQcO6MiRI+obGKiEQYOMawEAgORRZ7O1mosAAABAT2etsiv5nn+Yy4Bbuik1US8uGGcuu4WysjJVlJcrOSXF6fTvifhbLOaSkyNHjujqq69Wenq65s2bp1WrVhlzmwsKCpSTkyO1zWU2i4yK0uDBg7Vp0ybd8vOfKzg4WMueflpTp05V34AAlZWVKTMzU4GBgRo2bJj69OnjdP2hQ4eUl5cnT09PxcXFKS4uTp6eniooLNRdv/611q5dq9TUVL38pz8pPj7e6VoAAHqzrv0pAAAAAAAAk5qaGhVZrYpPSOhyyKy2GcrtP2b9+/fXhRdeKEnKzMxUcXGx0YuNjdWUKVM0ZcoUpU6e3OEzePBgSdKHGzaosrJSs6+7TlOmTJGnp6dsdrsC+vbVuPHjlTJ0qFpaWzt8l/CICE244AKNGz9eYeHhqm97yWBhYaG++OILeXt76+JJkxQZGWl8JwAAQNAMAAAAADgF9fX1yj10SAkJCbKc5ITyqZg6dapCQkJUUFCg9PR0tbS0mJd0qqqqSpJ06623av78+S69nNDh66+/VmFhoQYNGqS0tDT5+vqalwAA0KsRNAMAAAAAuqW5uVmHDh5UZFSUgvr3N7e7pbMxGmPGjNGVV16pqqoqpaeny2azOfWPdxLaYcCAAXpm+XL98dlnlZCQYG6fku3bt6ulpUWTJ0/WmDFjzG0AAHo9ZjQDAADALTGjGecSd5vRnL1/vwL69lVUVJS51WWdBcwOLS0tys/PV35+vsLCwjR48GB5e3tLJwmZz5S9e/eqorxcgxITFRMTY24DANDrETQDAADALZXUNKiouuOLwAB3NSa2n7nUIx3MyZGPj49i4+LMrW45WdDcmbMRMgMAgJMjaAYAAIBb8vDwkKVPH3MZcEvNzc1qbGoyl3uc3EOHJA+P0zKO4lSCZkJmAAB6LmY0AwAAAABOKi83V62traclZD4VhMwAAPRsBM0AAAAAgBPKy83VsZYWDUpMNLd+EITMAAD0fATNAAAAAIBOHTp4UC2trUo8SyEzAABwDwTNAAAAAIAOWlpadCA7W15eXho0aJC5DQAA4ISgGQAAAADgpL6+XvuzsmTx91dcfLy5/YNibAYAAO7Bo85mazUXAQAAgJ7Ow8NDlj59zGXALTU3N6uxqclcPitqqquVm5uriMhIhYWFmdsAAADHxYlmAAAAAIAkqaSkRIcOHVJ8fDwhMwAA6BZONAMAAMAtcaIZ55KzfaL5WHOz8gsK1NzUpLj4ePn5+ZmXAAAAnBAnmgEAAACgFztSVaW9e/fK19dXQ5KTCZkBAMApIWgGAAAAgJNobGyS3d5gLp9xVqtVTY2N5vJp0dTUpLzcXBUVFSk+IUHR0dHmJQAAAF1G0AwAAIBe6fH1u+Qxb5XxmftiunlJl7z77zx5zFuld/+dp9r6JqU+ukGpj25Qbf2ZHYNgrbIp4VdvG/c+l5l/rzzmrVLCr96Wtcpm9Pvf+rq255Qb18x9MV0e81bp8fW72u3UfRWV1dqXnau9+w8qM/uQ9ufkqbKq2rzsjKmsqDCXTouS4mLt+fZb+fj4aPiIEerXr595CQAAQLcQNAMAAKDXmftiupa9v0dfPHqFWl9boMIXZmvb/lKXA+LAPj7a8vAMbXl4hgL7+Jjbp9UXB8qUV14nSXp7+7kdNEtSkL+v8fv1xaNX6IitSfes+dK8TGr7/X192yHNmThID84aZW53WXXNUR0uLVdZRZVqj9pUZ7OrpKxS1uIylZZXmpefGR4e5opLykpL9e3u3bLZ7UoZOlRRnGIGAACnCS8DBAAAgFs61ZcBbs8p1/QnP9LdV4w4YQj5+Ppdemjt15Kk+NAAbX1kpqIH+HfozZk4SK9vO6R3Fk3RtJFRmvmHjyVJH9x7uWrsTbr4kQ+UV16nkbEDJElB/j764N7LFdjHR9Yqm9GXpMdmjznhd2pv7ovp2ra/VLEhASqoqHP6fu17GVmlemXhRXp8/S6NiBmgGnujMrJKFR8aoLtmjtCdf9sume7d/vmC/H216f5pGhYdpJl/+FgZWaXGd3D8XPpZfJx6jr0cz9fV+3bm8fW7tOz9Pdp0/zRNSAqV2j3j1kdm6i+bDxj9TbuL9NDarzVn4iCt+eVk81bdknUgV6XlVeayJCkgwKLwgcHy9en4LxRaW1s1MGSAPLoREnf2MsDdu3Zp6NCh8vH1Nbe6rKGhQRUVFSovL1ffvn0VFhamvn37mpcBAAC4hBPNAAAA6FU27S6SJE0fGWVuGRzB5hePXqGalXMVGxKgG57frNr6Jm3PKdey9/dozsRBan1tgflSJ/es+VJHbE364tErtOLWicqv+C5QVtvoi4sf+UATk8PU+toCvbNoih5a+3WXxmBYq2zatr9UE5PDtHjGcOWV1+mLA2VOa/LK67R4xnC1vrZAM0bHSJL2FFbpjf++RO8smqK88jq99UWualbO1ZyJg7Ts/T3anlOu7TnleuvzXBW+MFuFL8xWf38f3fXavyVJWx6eodbXFuix2WMkSROTwxQ9wF//ufIzFVTUqfCF2cd9jq7c93R4e3ueHlr7tSalhOnlWy4yt7ulprbOaSZzeFiIosJD5OPtJUmqq7PrYK5V+7JzO3zyCg+rtfXsnudpaGhQWVmZsrOzlbVvn1qOHdOQIUOUmJhIyAwAAM4IgmYAAACgndr6Jm3cZdXI2P4aFh2kwD4+WjxjuDKySvXR7iIjqF704+GSpJ9OiDft8J2itjDYsc+w6CCNjO1v9B2jLxzXTxsZpUkpYVq+Ye9Jx3e0v/aCwQMVHxrQYXxGfGiALhg80KnmCIZjggMU5O+rtFHRCuzjo+HR33+vCUmh2vXkVfrL5gOKuWOtcdrawVpl04pP9ivI31eLfjzcKfSOHuBvfJ+91u/nGHflvt2xPadcH3xjNfaVpGpbo57657eSZPxeucJDUktLi/HrgD59FB8bJV8/P6d1x+Pt9V0Y3R3V1dUqLCxUS0uL00eSWlpbO9Qdn6amJtntdlVXV6ukpES5hw5pz7ffan9Wlmx1dRo4cKBGnXeeYmJjZbFYzLcFAAA4bQiaAQAAgHZq7E0qqKhTbEjAaZmz3Nk+e63VCvL3VUxwgLl1Um9vzzOC5OgB/pqYHKZt+0uNl+O5wvFyw427rCp8YbYmpYQ59e9Z86Xyyus0c3S0JiSFylpp0xFbk17fdkge81YZ4fRe6xGn61xVbWvUBQ+/L495q3TBw+9rZGz/DqeWJ6WEKfOpWYoPDdCvV//bpZ+HXx8/eXp9/9elotJy7dp7QHV13+3p7eUlSx8/Wfr4yc/3+99fXx8feXl5G7/uqpaWFpWWlGjnzp3a1e7T1NSkzL17nWq7du5UQUGBdu3cqX2Zmco9dEjlZWVqamxUYGCgEpOSNHLUKMUnJKh//1ML8wEAALqLoBkAAAC9imNkhuNkslk/i48x97izk8XVtkYVVjqf9O1MZ/sMjw7q1j4OjtO8eeV1irljrTzmrdLr2w4pr7xOf9l8wLy82xwh9hv/fYn6WZwDcse940MD9NTccZKk6GB/9ff3MUaJOD6uzkc2a/8ywNbXFnR44WKQv6+enjdeQ6OCtPDSZOWV13X6ssCu8PXx1sCQAfJuG5VRX9+gOpvd6Af166vRP0rRmJFDnU4K9w8K1IiURHl6du+vWp6enoqKitKYMWM0ut3Hx8dHI0aMcKqNHjNG8fHxGj1mjEaOGqVhw4crafBgxcTGKiQ0lJPLAADgrOjen34AAAAANzchKVQzR0c7zQa2VtmU8Ku3lfroBklS2qho7S44okxrtWrrm7R8w15NSgnTtJFRmj4ySkH+vsaoCvPICoeotpPGjn0+2l3k9CI988gLR3/xjOHHPQHtsGl3kaptjXpn0RQjdC18YbbiQwO0cZf1uKF2dwyP7q8jtiZZK20dvvMfP9yralujFl6abIysMJ+odpyI7sqs6TPlVz8epkkpYfrgG6tL858jw0MVFTFQfn7fv4ivX2CAQgYEKSEuSt7eXvLy8tSxlmNG/1hLi7zanYTuqqCgIEVERprLUjdeKAgAAHA2df9PQAAAAICbW/PLybr7ihHGKIaYO9YqNiRAH9x7uQL7+OjBWaOMfr9b1kiS0ZuQFKo//2KiMSriRJ6aO079/X10wcPv65F3dmpk7ACjFz3AX1sfmalt+0vlMW+Vrv3jp3pn0RRdM/74M5/Vbn60ef6yI+x1hNquuPmSwcZ3/vmftimu7XT3/sM12rb/u9D5obVfy2PeKiNQfvmWixQbEqCYO9bq2j9+qsdmjznhc5xpjrna1bZG3fXav085fPf09FRcdIQS46M1KC5a0VHhio2OUMqQBPlb+hjrYqPCFR0ZpujIgYoKD3Xaw2Vn+aWCAAAAXeVRZ7PxJxcAAAC4HQ8PD1n6fB/29URzX0zXtv2l2vrITEnSxY98oInJYad9rATcX3NzsxqbOgbiu3fv1tCUFPn4fn+qGgAAoCciaAYAAIBbcoegeXtOuaY/+ZGqbY2SpPjQAG19ZKYxduJ4auubNPMPHzuNrHAI8vfVpvunaULSaT41e5aZf07tTUoJM06Tn8s6DZp37dLQoUMJmgEAQI9H0AwAAAC35A5BM9BVnQXNJcXFCg4OJmgGAAA9HkEzAAAA3BJBM84lnQXNAAAA7oKXAQIAAAAAAAAAXELQDAAAAAAAAABwCUEzAAAAAAAAAMAlBM0AAAAAAAAAAJcQNAMAAAAAAAAAXELQDAAAAAAAAABwCUEzAAAAAAAAAMAlBM0AAAAAAAAAAJcQNAMAAAAAAAAAXELQDAAAAAAAAABwCUEzAAAAAAAAAMAlBM0AAAAAAAAAAJcQNAMAAKBXKa+o1NU33Kz0rZ+bW6dVZla25i+8Q+UVlVryxDKtWvOWeQkAAABwziBoBgAAAM6wpQ/crQVzrzOXAQAAgHMGQTMAAADQzpInlmlsaprGpqZ1OIXcvuc4Ee04Ie2oL3limdM1jutWrXlLmVnZunTmtcbasalpum3RfbLZ7Sfcp33v6htuVnlFpSQpfevnTnu1P6V9oucAAAAATjeCZgAAAKDNqjVv6Ztde7Rx/etaveIF/XX1m0Z46whrd2zZqNUrXtCf/rJaBdYiPfjY73XNVTOM+tc7v1VmVrZp5+8MSxmiTz54Rzu2bNSOLRt15YxpumjCWEnqdB+b3a4HH/u97vrv/9SOLRt1zVUz9PzLf1ZmVraWPfe/Wr3iBe3YslF33n6L1qxdJ5vdfsLnAAAAAM4EgmYAAACgzcHcfF1z1QyFhgRrWMoQTZ50kf61OUM2u12fbd+hqZdMktoC49UrXlBsdJT+94+/N8ZiDAwNUb/AvqZdj89xYnnB3Ovkb7F0uk9efqGOHq3T8KHJxvqlD9ytYSlD9N6bf9WwlCGSpEHxccbenT0HAAAAcKYQNAMAAACSbHa7SkrLnGqJCd+FtzabXYeLS516Du3HV6TNmiNr0WHzkg5WrXlLJaVlum/xL41aZ/uUlVeo9mhdu6u/1348xuL7l0iS7Pb6Tp8DAAAAOFMImgEAAABJ/haLwsMGOtUO5uZ/1/O3KDIizKmnttnJTz//spY/uVQ7tmzUxvWvKzoq0rzMSfrWz/XZ9h165nePyN9ikU6yz8DQEAX2DTDt8t0+jvEYO7Zs1PInl0qSLJY+nT4HAAAAcKYQNAMAAABtEhPi9O57G1ReUanMrGylZ3ymqZdMMkJox/iJzKxsXXX9TcrOOeR0/fsbPz7hieb0rZ/r6edf1uMP3WeEzMfTfp+BoSGqPVqnvfv2S22noW9bdJ8aGhuN9Ta7XWvWrjN+3dlzAAAAAGcKQTMAAAB6pcX3LzHGToxNTVP61s+1YO51Gj1qhNJmzdH8hXfopvnXa/LFF0qS7lv8S5WUlmlsaprmL7xDd995my6aMFbXXDXD2KuuzqaU5MEqK68w306SdCgvX4XWIqXNmmPc9+obbpakTvcJDQnWk0sf0JLfPqWxqWl6970Nevyh+3TxheMVGRGmtFlzdMW183X5lMk6erRONpv9hM8BAAAAnAkedTZbq7kIAAAA9HQeHh6y9OljLgNuqbm5WY1NTeYyAACA2+BEMwAAAAAAAADAJQTNAAAAAAAAAACXEDQDAAAAAAAAAFxC0AwAAAAAAAAAcAlBMwAAAAAAAADAJQTNAAAAAAAAAACXEDQDAAAAAAAAAFxC0AwAAAAAAAAAcAlBMwAAAAAAAADAJQTNAAAAAAAAAACXEDQDAAAAAAAAAFxC0AwAAAAAAAAAcAlBMwAAAAAAAADAJQTNAAAAAAAAAACXEDQDAAAAAAAAAFxC0AwAAIBeKX3r5xqbmmZ8ljyxzLzktFryxDKtWvNWh//dXnlFpa6+4Walb/3c3OqUzW7XbYvuO+5+XZGZla1LZ17r9LNwfE60Z2fP0J7ju3XneQAAAOCeCJoBAADQ66xa85aW/PYprV7xgnZs2agtm9arpLRMty26Tza73bz8tFv6wN1aMPc6c/msGJYyRJ988I52bNmoO2+/RePHjtaWTeu1Y8vGHvMdAQAA0PMRNAMAAKBXKa+o1LvvbdDS39yjYSlDJEn+Fosef+g+HS4u1Zdf7exwEre8olLzF96hzKxs6TinoR3rljyxTHf/5lHjhLAjuF615i39c8NHeu6lld+F3O1OAzvuNTY1TQ8+9nvje57oPmq719jUNP3iv+/R0aN1Rr39fuZrToXjPu1POJufx3zPHyqwBwAAQM9B0AwAAIBepay8QoF9AzR8aLJTPTQkWKNHjdC/Nmc41c0ys7K17Ln/NU5D33n7LVqzdp0RrGbnHNLaV1/R6hUvKGv/AX351U4tmHudrpwxTXfefkuHU8K/X/6iJGnLpvWaO/snKrQWnfQ+q9a8pW927dHG9a/rN/f8Staiw077hYcN1I4tG7X8yaVa8tunjIC8u9rfZ/WKF/TX1W8qfevnHZ6n/T03rn/dCOwBAADQexA0AwAAoFcpK69QbbsTwO0lJsSZSx0MSxmi9978q3EaelC88zWjR41QaEiw4uNilJI82KlnZrPbVVJaprmzfyJ/i0Xjzj9P48eOlk5yn4O5+brmqhkKDQnWsJQhmjzpIqnt5PU3u/Zo6iWTJEnjzj9PKcmDVVZeYVzbHce7z/GC+KUP3K2lD9wtSfL3tygyIsy8BAAAAOc4gmYAAAD0KgNDQxTYN8BcltqC1a5oP05i8f1LnHpdCasdbDa7DheXmsuG493Hbq9XSWmZeamTxfcv0djUNKVOn6V/7/hGh/K69lztOULw9jp7tvYvFHTcEwAAAL0LQTMAAAB6lYGhIao9Wqe9+/ZLbaeAP/zokw6ngdsrK69QTe1RqW1usmOchGM8xak60enfzu5jsfRReNhA83JDYN8AY9yG42Me19EV/hZLh/scL4i32e169qUVumn+9caLFR2nsgEAANB7EDQDAACgVwkNCdY1V81wml388adblDZrjkaPGqHJF19orHWMidi+42vV1tYadQeb3a41a9eZy13mb7HoogljjdnLX36187ingc33mXrJJL373gaVV1QqMytb6RmfSW3PlpSYoDfe+bvU7qTxqb4QMDEhrsN9jhfEt9fZMwAAAODcRtAMAACAXmfB3Ou09Df3aP7CO5Q2a44+Sd+qW342R+kZn+m2RfdJkn51+0KlZ3ymsalpKi0tV3RUpNQ29zgyIkxps+boimvn6/Ipk3X0aJ1stu9eBtiZxIQ4PffSSq1a85ZTffZP/kOSlDp9ltasXadLJ18sneQ+ky++UKNHjVDarDm6f8kTmjl9qrHffYt/qZLSMo1NTdP8hXfopvnXO4Xn3bFg7nXGfcx7OZ5n7bp/aO7sn+i5l1ZqbGqa/rU5Q1fOmHZK4zoAAADgvjzqbLZWcxEAAADo6Tw8PGTp08dcBtxSc3OzGpuazGUAAAC3QdAMAAAAt0TQ3HWZWdn6r8X3G3Om2xs/drSe+d0j8rdYzC38gAiaAQCAuyNoBgAAgFsiaMa5hKAZAAC4O2Y0AwAAAAAAAABcQtAMAAAAAAAAAHAJQTMAAAAAAAAAwCUEzQAAAAAAAAAAlxA0AwAAAAAAAABcQtAMAAAAAAAAAHAJQTMAAAAAAAAAwCUEzQAAAAAAAAAAlxA0AwAAAAAAAABcQtAMAAAAAAAAAHAJQTMAAAAAAAAAwCUedTZbq7kIAAAA9HQeHh7y9vIylwG31dTcbC4BAAC4DYJmAAAAAAAAAIBLGJ0BAAAAAAAAAHAJQTMAAAAAAAAAwCUEzQAAAAAAAAAAlxA0AwAAAAAAAABcQtAMAAAAAAAAAHAJQTMAAAAAAAAAwCUEzQAAAAAAAAAAlxA0AwAAAAAAAABcQtAMAAAAAAAAAHAJQTMAAAAAAAAAwCUEzQAAAAAAAAAAlxA0AwAAAAAAAABcQtAMAAAAAAAAAHAJQTMAAAAAAAAAwCUEzQAAAAAAAAAAlxA0AwAAAAAAAABcQtAMAAAAAAAAAHAJQTMAAAAAAAAAwCUEzQAAAAAAAAAAlxA0AwAAAAAAAABcQtAMAAAAAAAAAHAJQTMAAAAAAAAAwCUEzQAAAAAAAAAAlxA0AwAAAAAAAABcQtAMAAAAAAAAAHAJQTMAAAAAAAAAwCUEzQAAAAAAAAAAlxA0AwAAAAAAAABcQtAMAAAAAAAAAHAJQTMAAAAAAAAAwCUEzQAAAAAAAAAAlxA0AwAAAAAAAABcQtAMAAAAAAAAAHAJQTMAAAAAAAAAwCX/H40VoKW+Q073AAAAAElFTkSuQmCC;" vertex="1" parent="1">
          <mxGeometry x="10" y="50" width="1200" height="751" as="geometry" />
        </mxCell>
        <mxCell id="bf281JipG-QSbm_vybdA-2" value="Vai para" style="rhombus;whiteSpace=wrap;html=1;" vertex="1" parent="1">
          <mxGeometry x="10" y="410" width="140" height="70" as="geometry" />
        </mxCell>
        <mxCell id="bf281JipG-QSbm_vybdA-3" value="Possui" style="rhombus;whiteSpace=wrap;html=1;" vertex="1" parent="1">
          <mxGeometry x="260" y="200" width="110" height="70" as="geometry" />
        </mxCell>
        <mxCell id="bf281JipG-QSbm_vybdA-4" value="Vai para&lt;span style=&quot;color: rgba(0, 0, 0, 0); font-family: monospace; font-size: 0px; text-align: start; text-wrap-mode: nowrap;&quot;&gt;%3CmxGraphModel%3E%3Croot%3E%3CmxCell%20id%3D%220%22%2F%3E%3CmxCell%20id%3D%221%22%20parent%3D%220%22%2F%3E%3CmxCell%20id%3D%222%22%20value%3D%22Possui%22%20style%3D%22rhombus%3BwhiteSpace%3Dwrap%3Bhtml%3D1%3B%22%20vertex%3D%221%22%20parent%3D%221%22%3E%3CmxGeometry%20x%3D%22260%22%20y%3D%22200%22%20width%3D%22110%22%20height%3D%2270%22%20as%3D%22geometry%22%2F%3E%3C%2FmxCell%3E%3C%2Froot%3E%3C%2FmxGraphModel%3E&lt;/span&gt;" style="rhombus;whiteSpace=wrap;html=1;rotation=-30;" vertex="1" parent="1">
          <mxGeometry x="460" y="410" width="110" height="70" as="geometry" />
        </mxCell>
        <mxCell id="bf281JipG-QSbm_vybdA-5" value="Repara" style="rhombus;whiteSpace=wrap;html=1;rotation=0;" vertex="1" parent="1">
          <mxGeometry x="630" y="170" width="110" height="70" as="geometry" />
        </mxCell>
        <mxCell id="bf281JipG-QSbm_vybdA-6" value="Engloba" style="rhombus;whiteSpace=wrap;html=1;" vertex="1" parent="1">
          <mxGeometry x="1090" y="170" width="110" height="70" as="geometry" />
        </mxCell>
        <mxCell id="bf281JipG-QSbm_vybdA-7" value="É reparada" style="rhombus;whiteSpace=wrap;html=1;" vertex="1" parent="1">
          <mxGeometry x="760" y="525" width="80" height="50" as="geometry" />
        </mxCell>
        <mxCell id="bf281JipG-QSbm_vybdA-8" value="Vai para" style="rhombus;whiteSpace=wrap;html=1;rotation=0;" vertex="1" parent="1">
          <mxGeometry x="500" y="500" width="90" height="55" as="geometry" />
        </mxCell>
        <mxCell id="bf281JipG-QSbm_vybdA-9" value="Vai para" style="rhombus;whiteSpace=wrap;html=1;" vertex="1" parent="1">
          <mxGeometry x="760" y="660" width="90" height="60" as="geometry" />
        </mxCell>
        <mxCell id="bf281JipG-QSbm_vybdA-10" value="Necessita de" style="rhombus;whiteSpace=wrap;html=1;rotation=0;" vertex="1" parent="1">
          <mxGeometry x="520" y="300" width="110" height="60" as="geometry" />
        </mxCell>
        <mxCell id="bf281JipG-QSbm_vybdA-11" value="&lt;b&gt;&lt;font style=&quot;font-size: 26px;&quot;&gt;1&lt;/font&gt;&lt;/b&gt;" style="text;html=1;align=center;verticalAlign=middle;whiteSpace=wrap;rounded=0;" vertex="1" parent="1">
          <mxGeometry x="340" y="190" width="60" height="30" as="geometry" />
        </mxCell>
        <mxCell id="bf281JipG-QSbm_vybdA-12" value="&lt;b&gt;&lt;font style=&quot;font-size: 26px;&quot;&gt;N&lt;/font&gt;&lt;/b&gt;" style="text;html=1;align=center;verticalAlign=middle;whiteSpace=wrap;rounded=0;" vertex="1" parent="1">
          <mxGeometry x="230" y="240" width="60" height="30" as="geometry" />
        </mxCell>
        <mxCell id="bf281JipG-QSbm_vybdA-13" value="&lt;b&gt;&lt;font style=&quot;font-size: 26px;&quot;&gt;1&lt;/font&gt;&lt;/b&gt;" style="text;html=1;align=center;verticalAlign=middle;whiteSpace=wrap;rounded=0;" vertex="1" parent="1">
          <mxGeometry x="60" y="220" width="60" height="30" as="geometry" />
        </mxCell>
        <mxCell id="bf281JipG-QSbm_vybdA-15" value="&lt;b&gt;&lt;font style=&quot;font-size: 26px;&quot;&gt;1&lt;/font&gt;&lt;/b&gt;" style="text;html=1;align=center;verticalAlign=middle;whiteSpace=wrap;rounded=0;" vertex="1" parent="1">
          <mxGeometry x="190" y="490" width="60" height="30" as="geometry" />
        </mxCell>
        <mxCell id="bf281JipG-QSbm_vybdA-16" value="&lt;b&gt;&lt;font style=&quot;font-size: 26px;&quot;&gt;N&lt;/font&gt;&lt;/b&gt;" style="text;html=1;align=center;verticalAlign=middle;whiteSpace=wrap;rounded=0;" vertex="1" parent="1">
          <mxGeometry x="560" y="495" width="60" height="30" as="geometry" />
        </mxCell>
        <mxCell id="bf281JipG-QSbm_vybdA-17" value="&lt;b&gt;&lt;font style=&quot;font-size: 26px;&quot;&gt;1&lt;/font&gt;&lt;/b&gt;" style="text;html=1;align=center;verticalAlign=middle;whiteSpace=wrap;rounded=0;" vertex="1" parent="1">
          <mxGeometry x="370" y="460" width="60" height="30" as="geometry" />
        </mxCell>
        <mxCell id="bf281JipG-QSbm_vybdA-18" value="&lt;b&gt;&lt;font style=&quot;font-size: 26px;&quot;&gt;1&lt;/font&gt;&lt;/b&gt;" style="text;html=1;align=center;verticalAlign=middle;whiteSpace=wrap;rounded=0;" vertex="1" parent="1">
          <mxGeometry x="730" y="520" width="60" height="30" as="geometry" />
        </mxCell>
        <mxCell id="bf281JipG-QSbm_vybdA-19" value="&lt;b&gt;&lt;font style=&quot;font-size: 26px;&quot;&gt;1&lt;/font&gt;&lt;/b&gt;" style="text;html=1;align=center;verticalAlign=middle;whiteSpace=wrap;rounded=0;" vertex="1" parent="1">
          <mxGeometry x="800" y="560" width="60" height="30" as="geometry" />
        </mxCell>
        <mxCell id="bf281JipG-QSbm_vybdA-21" value="&lt;b&gt;&lt;font style=&quot;font-size: 26px;&quot;&gt;N&lt;/font&gt;&lt;/b&gt;" style="text;html=1;align=center;verticalAlign=middle;whiteSpace=wrap;rounded=0;" vertex="1" parent="1">
          <mxGeometry x="800" y="620" width="60" height="30" as="geometry" />
        </mxCell>
        <mxCell id="bf281JipG-QSbm_vybdA-22" value="&lt;b&gt;&lt;font style=&quot;font-size: 26px;&quot;&gt;1&lt;/font&gt;&lt;/b&gt;" style="text;html=1;align=center;verticalAlign=middle;whiteSpace=wrap;rounded=0;" vertex="1" parent="1">
          <mxGeometry x="720" y="710" width="60" height="30" as="geometry" />
        </mxCell>
        <mxCell id="bf281JipG-QSbm_vybdA-23" value="&lt;b&gt;&lt;font style=&quot;font-size: 26px;&quot;&gt;1&lt;/font&gt;&lt;/b&gt;" style="text;html=1;align=center;verticalAlign=middle;whiteSpace=wrap;rounded=0;" vertex="1" parent="1">
          <mxGeometry x="690" y="360" width="60" height="30" as="geometry" />
        </mxCell>
        <mxCell id="bf281JipG-QSbm_vybdA-24" value="&lt;b&gt;&lt;font style=&quot;font-size: 26px;&quot;&gt;1&lt;/font&gt;&lt;/b&gt;" style="text;html=1;align=center;verticalAlign=middle;whiteSpace=wrap;rounded=0;" vertex="1" parent="1">
          <mxGeometry x="790" y="130" width="60" height="30" as="geometry" />
        </mxCell>
        <mxCell id="bf281JipG-QSbm_vybdA-25" value="&lt;b&gt;&lt;font style=&quot;font-size: 26px;&quot;&gt;1&lt;/font&gt;&lt;/b&gt;" style="text;html=1;align=center;verticalAlign=middle;whiteSpace=wrap;rounded=0;" vertex="1" parent="1">
          <mxGeometry x="1110" y="315" width="60" height="30" as="geometry" />
        </mxCell>
        <mxCell id="bf281JipG-QSbm_vybdA-26" value="&lt;b&gt;&lt;font style=&quot;font-size: 26px;&quot;&gt;N&lt;/font&gt;&lt;/b&gt;" style="text;html=1;align=center;verticalAlign=middle;whiteSpace=wrap;rounded=0;" vertex="1" parent="1">
          <mxGeometry x="980" y="120" width="60" height="30" as="geometry" />
        </mxCell>
        <mxCell id="bf281JipG-QSbm_vybdA-27" value="&lt;b&gt;&lt;font style=&quot;font-size: 26px;&quot;&gt;1&lt;/font&gt;&lt;/b&gt;" style="text;html=1;align=center;verticalAlign=middle;whiteSpace=wrap;rounded=0;" vertex="1" parent="1">
          <mxGeometry x="690" y="300" width="60" height="30" as="geometry" />
        </mxCell>
        <mxCell id="bf281JipG-QSbm_vybdA-28" value="&lt;b&gt;&lt;font style=&quot;font-size: 26px;&quot;&gt;1&lt;/font&gt;&lt;/b&gt;" style="text;html=1;align=center;verticalAlign=middle;whiteSpace=wrap;rounded=0;" vertex="1" parent="1">
          <mxGeometry x="510" y="190" width="60" height="30" as="geometry" />
        </mxCell>
        <mxCell id="bf281JipG-QSbm_vybdA-29" value="&lt;b&gt;&lt;font style=&quot;font-size: 26px;&quot;&gt;N&lt;/font&gt;&lt;/b&gt;" style="text;html=1;align=center;verticalAlign=middle;whiteSpace=wrap;rounded=0;" vertex="1" parent="1">
          <mxGeometry x="380" y="535" width="60" height="30" as="geometry" />
        </mxCell>
      </root>
    </mxGraphModel>
  </diagram>
</mxfile>
